<?xml version="1.0" encoding="UTF-8" standalone="no"?>
<!-- icon666.com - MILLIONS vector ICONS FREE -->

<svg
   version="1.1"
   id="Layer_1"
   x="0px"
   y="0px"
   viewBox="0 0 468.126 468.126"
   style="enable-background:new 0 0 468.126 468.126;"
   xml:space="preserve"
   sodipodi:docname="home.svg"
   inkscape:version="1.3.2 (091e20e, 2023-11-25, custom)"
   xmlns:inkscape="http://www.inkscape.org/namespaces/inkscape"
   xmlns:sodipodi="http://sodipodi.sourceforge.net/DTD/sodipodi-0.dtd"
   xmlns="http://www.w3.org/2000/svg"
   xmlns:svg="http://www.w3.org/2000/svg"><defs
     id="defs15" /><sodipodi:namedview
     id="namedview15"
     pagecolor="#ffffff"
     bordercolor="#000000"
     borderopacity="0.25"
     inkscape:showpageshadow="2"
     inkscape:pageopacity="0.0"
     inkscape:pagecheckerboard="0"
     inkscape:deskcolor="#d1d1d1"
     inkscape:zoom="0.86835594"
     inkscape:cx="332.23703"
     inkscape:cy="244.71532"
     inkscape:window-width="1920"
     inkscape:window-height="1009"
     inkscape:window-x="-8"
     inkscape:window-y="-8"
     inkscape:window-maximized="1"
     inkscape:current-layer="Layer_1" /><rect
     style="fill:#df3e0f;fill-opacity:1;stroke:none;stroke-width:14.4486;stroke-linecap:round"
     id="rect15"
     width="61.072895"
     height="119.24281"
     x="112.37412"
     y="16.117456"
     rx="73.236862"
     ry="15.373661" /><path
     style="fill:#BF4925;"
     d="M406.535,460.004c0,4.49-3.631,8.121-8.121,8.121H69.694c-4.474,0-8.105-3.631-8.105-8.121v-20.283 c0-4.482,3.631-8.113,8.105-8.113h328.72c4.49,0,8.121,3.631,8.121,8.113L406.535,460.004L406.535,460.004z"
     id="path1" /><path
     style="fill:#DD622C;"
     d="M61.588,439.714c0-4.482,3.631-8.113,8.105-8.113h328.72c4.49,0,8.121,3.631,8.121,8.113"
     id="path2" /><path
     style="fill:#BAAE9D;"
     d="M396.397,428.725c0,4.49-3.631,8.121-8.121,8.121H79.847c-4.474,0-8.121-3.631-8.121-8.121V200.097 c0-4.482,3.647-8.113,8.121-8.113h308.429c4.49,0,8.121,3.631,8.121,8.113L396.397,428.725L396.397,428.725z"
     id="path3" /><path
     style="fill:#9B9083;"
     d="M288.247,436.846h100.029c4.49,0,8.121-3.631,8.121-8.121V200.097c0-4.482-3.631-8.113-8.121-8.113 H79.847c-4.474,0-8.121,3.631-8.121,8.113v20.236L288.247,436.846z"
     id="path4" /><path
     style="fill:#DD622C;"
     d="M438.846,199.609L242.663,3.426c-4.553-4.569-12.642-4.569-17.219,0L29.277,199.609 c-3.474,3.474-4.521,8.712-2.647,13.265c1.89,4.553,6.341,7.515,11.264,7.515h392.357c4.923,0,9.358-2.962,11.248-7.515 C443.367,208.321,442.32,203.083,438.846,199.609z"
     id="path5" /><path
     style="fill:#BF4925;"
     d="M438.846,199.609L242.663,3.426c-4.553-4.569-12.642-4.569-17.219,0L70.214,199.609 c-3.474,3.474-4.521,8.712-2.631,13.265c1.875,4.553,6.325,7.515,11.248,7.515h351.413c4.923,0,9.358-2.962,11.248-7.515 C443.367,208.321,442.32,203.083,438.846,199.609z"
     id="path6" /><circle
     style="fill:#007EEF;"
     cx="140.192"
     cy="332.004"
     r="27.735"
     id="circle6" /><path
     style="fill:#005CB7;"
     d="M167.927,332.004c0,15.313-12.414,27.735-27.735,27.735c-15.305,0-16.573-12.422-16.573-27.735 s1.26-27.735,16.573-27.735C155.505,304.262,167.927,316.684,167.927,332.004z"
     id="path7" /><g
     id="g8"><rect
       x="136.151"
       y="291.753"
       style="fill:#BAAE9D;"
       width="8.105"
       height="80.494"
       id="rect7" /><rect
       x="99.957"
       y="327.956"
       style="fill:#BAAE9D;"
       width="80.479"
       height="8.121"
       id="rect8" /></g><circle
     style="fill:#007EEF;"
     cx="327.954"
     cy="332.004"
     r="27.735"
     id="circle8" /><path
     style="fill:#005CB7;"
     d="M355.665,332.004c0,15.313-12.43,27.735-27.735,27.735s-16.581-12.422-16.581-27.735 s1.276-27.735,16.581-27.735S355.665,316.684,355.665,332.004z"
     id="path8" /><g
     id="g10"><rect
       x="323.858"
       y="291.753"
       style="fill:#9B9083;"
       width="8.121"
       height="80.494"
       id="rect9" /><rect
       x="287.703"
       y="327.956"
       style="fill:#9B9083;"
       width="80.494"
       height="8.121"
       id="rect10" /></g><path
     style="fill:#005CB7;"
     d="M277.755,462.872V328.35c0-24.127-19.566-43.693-43.693-43.693 c-24.151,0-43.693,19.558-43.693,43.693v134.522H277.755z"
     id="path13" /><path
     style="fill:#754034;"
     d="M221.262,286.57c-17.888,5.467-30.893,22.103-30.893,41.779v134.522h61.787V328.35 C252.155,308.673,239.142,292.037,221.262,286.57z"
     id="path14" /><path
     style="fill:#4C2A25;"
     d="M217.646,288.004c-15.967,6.498-27.278,22.048-27.278,40.346v134.522h54.571V328.35 C244.94,310.044,233.613,294.502,217.646,288.004z"
     id="path15" /></svg>
