<?xml version="1.0" encoding="UTF-8" standalone="no"?>
<!-- icon666.com - MILLIONS vector ICONS FREE -->

<svg
   id="Layer_1"
   enable-background="new 0 0 256 256"
   viewBox="0 0 256 256"
   version="1.1"
   sodipodi:docname="profile.svg"
   inkscape:version="1.3.2 (091e20e, 2023-11-25, custom)"
   xmlns:inkscape="http://www.inkscape.org/namespaces/inkscape"
   xmlns:sodipodi="http://sodipodi.sourceforge.net/DTD/sodipodi-0.dtd"
   xmlns="http://www.w3.org/2000/svg"
   xmlns:svg="http://www.w3.org/2000/svg">
  <defs
     id="defs39" />
  <sodipodi:namedview
     id="namedview39"
     pagecolor="#ffffff"
     bordercolor="#000000"
     borderopacity="0.25"
     inkscape:showpageshadow="2"
     inkscape:pageopacity="0.0"
     inkscape:pagecheckerboard="0"
     inkscape:deskcolor="#d1d1d1"
     inkscape:zoom="2.2456164"
     inkscape:cx="127.5819"
     inkscape:cy="147.62094"
     inkscape:window-width="1920"
     inkscape:window-height="1009"
     inkscape:window-x="-8"
     inkscape:window-y="-8"
     inkscape:window-maximized="1"
     inkscape:current-layer="g39" />
  <g
     id="g39">
    <g
       id="g1"
       transform="matrix(1.2856092,0,0,1.2856092,-36.780349,-36.780354)">
      <circle
         cx="128"
         cy="127.998"
         fill="#f1f2f2"
         r="99.005997"
         id="circle1" />
    </g>
    <g
       id="g3"
       transform="matrix(1.2856092,0,0,1.2856092,-36.780349,-36.780354)">
      <path
         d="m 192.829,53.168 c 15.061,17.37 24.176,40.035 24.176,64.83 0,54.679 -44.326,99.006 -99.006,99.006 -24.795,0 -47.46,-9.115 -64.83,-24.176 18.153,20.935 44.945,34.176 74.83,34.176 54.679,0 99.006,-44.326 99.006,-99.006 0.001,-29.884 -13.24,-56.676 -34.176,-74.83 z"
         fill="#e6e7e8"
         id="path2" />
    </g>
    <g
       id="g4"
       transform="matrix(1.2856092,0,0,1.2856092,-36.780349,-36.780354)">
      <path
         d="m 195.458,55.54 c 16.468,17.681 26.548,41.391 26.548,67.459 0,54.679 -44.326,99.006 -99.006,99.006 -26.068,0 -49.777,-10.08 -67.458,-26.547 18.075,19.406 43.847,31.547 72.458,31.547 54.679,0 99.006,-44.326 99.006,-99.006 0,-28.612 -12.142,-54.384 -31.548,-72.459 z"
         fill="#d1d3d4"
         id="path3" />
    </g>
    <g
       id="g38"
       transform="matrix(1.2856092,0,0,1.2856092,-36.780349,-36.780354)">
      <g
         id="g37">
        <g
           id="g7">
          <g
             id="g5">
            <path
               d="m 199.948,196.02 c -5.643,5.972 -12.025,11.246 -19.003,15.658 -15.309,9.707 -33.47,15.33 -52.945,15.33 -28.34,0 -53.889,-11.902 -71.948,-30.987 4.966,-17.217 20.829,-29.797 39.647,-29.797 H 160.3 c 18.819,-10e-4 34.682,12.579 39.648,29.796 z"
               fill="#58595b"
               id="path4" />
          </g>
          <g
             id="g6">
            <path
               d="m 180.945,211.678 v -14.509 c 0,-11.964 -5.11,-22.758 -13.257,-30.29 15.494,2.812 27.97,14.242 32.259,29.14 -5.643,5.973 -12.025,11.247 -19.002,15.659 z"
               fill="#414042"
               id="path5" />
          </g>
        </g>
        <g
           id="g26">
          <g
             id="g8">
            <path
               d="m 116.143,144.1 v 29.344 c 0,2.27 0.652,4.493 1.878,6.403 4.666,7.272 15.293,7.272 19.959,0 1.226,-1.911 1.878,-4.133 1.878,-6.403 V 144.1 Z"
               fill="#fcc4ae"
               id="path7" />
          </g>
          <g
             id="g25">
            <g
               id="g9">
              <path
                 d="m 116.143,153.275 c 3.727,1.246 7.71,1.932 11.856,1.932 4.147,0 8.131,-0.686 11.858,-1.932 V 144.1 h -23.714 z"
                 fill="#f2ad97"
                 id="path8" />
            </g>
            <g
               id="g10">
              <path
                 d="m 128,150.049 c -20.638,0 -37.368,-16.73 -37.368,-37.368 V 93.283 c 0,-20.638 16.73,-37.368 37.368,-37.368 20.638,0 37.368,16.73 37.368,37.368 v 19.397 c -0.001,20.638 -16.731,37.369 -37.368,37.369 z"
                 fill="#ffd2c0"
                 id="path9" />
            </g>
            <g
               id="g11">
              <path
                 d="m 90.632,93.283 v 9.973 c 14.561,-9.72 23.877,-26.306 23.819,-44.489 0,-0.106 -10e-4,-0.212 -0.002,-0.318 -13.939,5.426 -23.817,18.976 -23.817,34.834 z"
                 fill="#f2ad97"
                 id="path10" />
            </g>
            <g
               id="g12">
              <path
                 d="m 151.717,64.408 c 5.305,6.452 8.492,14.712 8.492,23.717 v 19.397 c 0,20.638 -16.73,37.368 -37.368,37.368 -9.005,0 -17.265,-3.187 -23.717,-8.492 6.853,8.334 17.243,13.651 28.876,13.651 20.638,0 37.368,-16.73 37.368,-37.368 V 93.283 C 165.367,81.651 160.051,71.261 151.717,64.408 Z"
                 fill="#fcc4ae"
                 id="path11" />
            </g>
            <g
               id="g13">
              <path
                 d="m 90.633,112.681 v -11.678 c -6.648,0 -12.037,5.389 -12.037,12.037 0,6.648 5.389,12.037 12.037,12.037 0.701,0 1.383,-0.072 2.051,-0.187 -1.323,-3.828 -2.051,-7.933 -2.051,-12.209 z"
                 fill="#ffd2c0"
                 id="path12" />
            </g>
            <g
               id="g14">
              <path
                 d="m 165.367,101.003 v 11.678 c 0,4.277 -0.728,8.381 -2.051,12.208 0.668,0.115 1.35,0.187 2.051,0.187 6.648,0 12.037,-5.389 12.037,-12.037 0,-6.647 -5.389,-12.036 -12.037,-12.036 z"
                 fill="#ffd2c0"
                 id="path13" />
            </g>
            <g
               id="g15">
              <path
                 d="m 172.784,103.559 c 1.601,2.044 2.556,4.619 2.556,7.417 0,6.443 -5.062,11.703 -11.426,12.021 -0.183,0.638 -0.383,1.268 -0.598,1.892 0.668,0.115 1.35,0.187 2.051,0.187 6.648,0 12.037,-5.389 12.037,-12.037 0,-3.849 -1.807,-7.276 -4.62,-9.48 z"
                 fill="#fcc4ae"
                 id="path14" />
            </g>
            <g
               id="g16">
              <path
                 d="m 114.45,48.45 c 0.063,19.841 -11.034,37.78 -27.929,46.973 -3.574,1.945 -7.962,-0.854 -7.604,-4.907 1.215,-13.768 7.334,-26.37 16.952,-35.245 5.197,-4.813 11.413,-8.524 18.427,-10.754 0.1,1.298 0.154,2.606 0.154,3.933 z"
                 fill="#7c3108"
                 id="path15" />
            </g>
            <g
               id="g17">
              <path
                 d="M 174.046,92.149 C 142.722,108.32 103.34,89.862 95.869,55.27 c 5.167,-4.786 11.343,-8.482 18.309,-10.716 29.122,-9.454 58.144,12.709 62.566,42.33 0.319,2.14 -0.775,4.272 -2.698,5.265 z"
                 fill="#8c3f0a"
                 id="path16" />
            </g>
            <g
               id="g18">
              <path
                 d="m 176.743,86.883 c -2.121,-14.207 -9.901,-26.698 -20.637,-34.808 5.316,7.004 9.014,15.421 10.377,24.547 0.32,2.141 -0.774,4.273 -2.697,5.266 -19.505,10.069 -42.133,6.711 -58.237,-5.607 15.414,20.22 44.349,28.335 68.498,15.868 1.922,-0.993 3.016,-3.125 2.696,-5.266 z"
                 fill="#7c3108"
                 id="path17" />
            </g>
            <g
               id="g21">
              <g
                 id="g19">
                <circle
                   cx="110.439"
                   cy="107.785"
                   fill="#995222"
                   r="4.527"
                   id="circle18" />
              </g>
              <g
                 id="g20">
                <circle
                   cx="145.561"
                   cy="107.785"
                   fill="#995222"
                   r="4.527"
                   id="circle19" />
              </g>
            </g>
            <g
               id="g24">
              <g
                 id="g22">
                <path
                   d="m 90.633,112.681 v -6.558 c -3.82,0 -6.917,3.097 -6.917,6.917 0,3.82 3.097,6.917 6.917,6.917 0.243,0 0.473,-0.047 0.709,-0.072 -0.456,-2.333 -0.709,-4.738 -0.709,-7.204 z"
                   fill="#f2ad97"
                   id="path21" />
              </g>
              <g
                 id="g23">
                <path
                   d="m 165.373,112.681 v -6.558 c 3.82,0 6.917,3.097 6.917,6.917 0,3.82 -3.097,6.917 -6.917,6.917 -0.243,0 -0.473,-0.047 -0.709,-0.072 0.456,-2.333 0.709,-4.738 0.709,-7.204 z"
                   fill="#f2ad97"
                   id="path22" />
              </g>
            </g>
          </g>
        </g>
        <g
           id="g27">
          <path
             d="m 134.645,126.53 c 1.028,0 1.807,0.96 1.569,1.96 -0.884,3.717 -4.226,6.482 -8.213,6.482 -3.988,0 -7.33,-2.765 -8.213,-6.482 -0.238,-1 0.541,-1.96 1.569,-1.96 z"
             fill="#e59076"
             id="path26" />
        </g>
        <g
           id="g36">
          <g
             id="g33">
            <g
               id="g28">
              <path
                 d="m 154.678,166.223 -22.368,60.682 c -1.436,0.062 -2.873,0.103 -4.309,0.103 -1.437,0 -2.873,-0.041 -4.309,-0.103 l -22.348,-60.682 14.755,-6.669 v 6.403 l 11.901,18.53 11.902,-18.531 v -6.403 z"
                 fill="#d1d3d4"
                 id="path27" />
            </g>
            <g
               id="g29">
              <path
                 d="m 101.341,166.215 11.135,30.204 c 0.453,1.228 2.027,1.574 2.952,0.648 L 128,184.495 116.106,165.958 v -6.407 z"
                 fill="#ffffff"
                 id="path28" />
            </g>
            <g
               id="g30">
              <path
                 d="m 154.67,166.215 -11.145,30.204 c -0.453,1.228 -2.027,1.574 -2.952,0.648 L 128,184.495 139.894,165.958 v -6.407 z"
                 fill="#ffffff"
                 id="path29" />
            </g>
            <g
               id="g31">
              <path
                 d="m 137.957,194.451 -7.419,7.419 c -1.402,1.402 -3.674,1.402 -5.075,0 l -7.419,-7.419 9.957,-9.957 z"
                 fill="#808285"
                 id="path30" />
            </g>
            <g
               id="g32">
              <path
                 d="m 135.285,218.799 -2.976,8.106 c -1.436,0.062 -2.873,0.103 -4.309,0.103 -1.437,0 -2.873,-0.041 -4.309,-0.103 l -2.976,-8.106 2.196,-19.475 2.545,2.545 c 1.416,1.395 3.673,1.395 5.089,0 l 2.545,-2.545 z"
                 fill="#58595b"
                 id="path31" />
            </g>
          </g>
          <g
             id="g34">
            <path
               d="m 123.691,226.905 c -2.36,-0.082 -4.679,-0.267 -6.977,-0.554 L 92.766,200.412 c -0.677,-0.739 -0.636,-1.888 0.144,-2.545 l 6.321,-5.582 c 1.17,-1.046 0.554,-2.975 -0.985,-3.14 l -7.449,-0.8 c -1.149,-0.123 -1.888,-1.293 -1.498,-2.401 l 7.162,-19.721 h 4.884 z"
               fill="#808285"
               id="path33" />
          </g>
          <g
             id="g35">
            <path
               d="m 165.205,188.345 -7.449,0.8 c -1.539,0.164 -2.155,2.093 -0.985,3.14 l 6.32,5.582 c 0.78,0.657 0.821,1.806 0.144,2.545 l -23.948,25.939 c -2.298,0.287 -4.617,0.472 -6.977,0.554 l 22.368,-60.682 h 4.884 l 7.141,19.721 c 0.39,1.108 -0.349,2.278 -1.498,2.401 z"
               fill="#808285"
               id="path34" />
          </g>
        </g>
      </g>
    </g>
  </g>
</svg>
