<?xml version="1.0" encoding="UTF-8" standalone="no"?>
<!-- icon666.com - MILLIONS vector ICONS FREE -->

<svg
   version="1.1"
   id="Layer_1"
   x="0px"
   y="0px"
   viewBox="0 0 512 512"
   style="enable-background:new 0 0 512 512;"
   xml:space="preserve"
   sodipodi:docname="settings.svg"
   inkscape:version="1.3.2 (091e20e, 2023-11-25, custom)"
   xmlns:inkscape="http://www.inkscape.org/namespaces/inkscape"
   xmlns:sodipodi="http://sodipodi.sourceforge.net/DTD/sodipodi-0.dtd"
   xmlns="http://www.w3.org/2000/svg"
   xmlns:svg="http://www.w3.org/2000/svg"><defs
     id="defs6" /><sodipodi:namedview
     id="namedview6"
     pagecolor="#ffffff"
     bordercolor="#000000"
     borderopacity="0.25"
     inkscape:showpageshadow="2"
     inkscape:pageopacity="0.0"
     inkscape:pagecheckerboard="0"
     inkscape:deskcolor="#d1d1d1"
     inkscape:zoom="0.56140411"
     inkscape:cx="40.968706"
     inkscape:cy="736.54608"
     inkscape:window-width="1920"
     inkscape:window-height="1009"
     inkscape:window-x="-8"
     inkscape:window-y="-8"
     inkscape:window-maximized="1"
     inkscape:current-layer="Layer_1" /><path
     style="fill:#999999;stroke-width:1.38964"
     d="m 510.11134,284.85244 v -57.70605 l -42.71326,-24.72441 c -5.28062,-20.12333 -13.36275,-39.11272 -23.80725,-56.52764 l 13.11678,-49.176461 -40.8053,-40.8039 -49.9755,13.330784 C 349.07608,59.440877 330.79819,51.825669 311.46973,46.795183 L 285.47659,1.8890769 H 227.76915 L 201.87049,46.631207 c -19.56608,5.030484 -38.06354,12.715174 -55.10188,22.63301 L 96.719463,55.915369 55.912784,96.720657 69.064305,146.01662 C 58.740694,163.25229 50.734998,182.03184 45.464106,201.92448 L 1.8892717,227.14917 v 57.70605 l 42.4269953,24.55904 c 5.173617,21.39763 13.501709,41.55987 24.463163,59.97256 l -12.242699,45.89552 40.803899,40.80668 45.1229,-12.03703 c 18.9588,11.62431 39.8242,20.42765 62.02504,25.84307 l 23.28058,40.21886 h 57.70744 l 23.36674,-40.36616 c 21.95903,-5.42236 42.6118,-14.16456 61.38858,-25.67632 l 45.05202,12.01758 40.8039,-40.80668 -12.21352,-45.77185 c 11.08514,-18.58778 19.4841,-38.95846 24.6605,-60.58537 z m -253.74765,129.774 c -86.53406,0 -156.68569,-70.14886 -156.68569,-156.68709 0,-86.53545 70.15163,-156.6857 156.68569,-156.6857 86.53406,0 156.6857,70.15025 156.6857,156.6857 0,86.53823 -70.15302,156.68709 -156.6857,156.68709 z"
     id="path1" /><path
     id="rect3"
     style="fill:#999999;stroke-width:1.38964"
     d="m 230.74609,91.853516 0,96.998084 c 16.35745,-0.31002 32.72745,-0.15794 49.08518,-0.69079 l -0.15744,-96.307294 z"
     sodipodi:nodetypes="ccccc" /><path
     id="rect4"
     style="fill:#999999;stroke-width:1.3896"
     transform="rotate(-59.999272)"
     d="m -63.509817,413.18477 c -26.534879,2.06661 -36.11489,2.84902 -48.925973,4.05121 l -6.49459,96.58886 48.926865,10e-4 z"
     sodipodi:nodetypes="ccccc" /><path
     id="rect5"
     style="fill:#999999;stroke-width:1.3896"
     transform="rotate(-120.00073)"
     d="m -327.45291,27.790045 1.42489,-98.236307 -48.92589,-6.85e-4 -0.72201,105.701384 c -11.05148,0.535778 57.88567,-7.464392 48.22293,-7.464392 z"
     sodipodi:nodetypes="ccccsc" /><path
     id="path5"
     style="fill:#999999;stroke-width:1.38964"
     d="m 256,155.77539 c -8.71845,0 -17.18429,1.12278 -25.25391,3.22656 l 48.9277,-0.3789 C 272.07725,156.77761 264.15703,155.77539 256,155.77539 Z"
     sodipodi:nodetypes="sccs" /><path
     id="circle5"
     style="fill:#999999;stroke-width:1.38964"
     d="M 256 171.55859 A 84.441269 84.441269 0 0 0 171.55859 256 A 84.441269 84.441269 0 0 0 256 340.44141 A 84.441269 84.441269 0 0 0 340.44141 256 A 84.441269 84.441269 0 0 0 256 171.55859 z M 256 194.44531 A 61.553947 61.553947 0 0 1 317.55273 256 A 61.553947 61.553947 0 0 1 256 317.55273 A 61.553947 61.553947 0 0 1 194.44531 256 A 61.553947 61.553947 0 0 1 256 194.44531 z " /></svg>
