<svg width="310" height="184" viewBox="0 0 310 184" fill="none" xmlns="http://www.w3.org/2000/svg">
<path d="M169.235 130.991H130.622V147.646H169.235V130.991Z" fill="url(#paint0_linear)"/>
<path d="M63.2654 130.148C63.2654 132.816 65.4069 134.975 68.0546 134.975H230.874C233.522 134.975 235.663 132.816 235.663 130.148V28.769C235.663 26.101 233.522 23.9422 230.874 23.9422H68.0546C65.4069 23.9422 63.2654 26.101 63.2654 28.769V130.148Z" fill="#C8C6C4"/>
<path d="M229.337 31.8732H71.1736V110.779L150.255 113.146L229.337 110.779V31.8732Z" fill="url(#paint1_linear)"/>
<path d="M149.602 129.008C150.912 129.008 151.974 127.943 151.974 126.628C151.974 125.314 150.912 124.249 149.602 124.249C148.292 124.249 147.229 125.314 147.229 126.628C147.229 127.943 148.292 129.008 149.602 129.008Z" fill="url(#paint2_linear)"/>
<path d="M182.816 149.253C182.816 146.623 180.694 144.494 178.071 144.494H121.133C118.51 144.494 116.388 146.623 116.388 149.253V154.011H182.816V149.253Z" fill="#C8C6C4"/>
<path d="M228.684 109.597H70.5203V119.115H228.684V109.597Z" fill="#3393DD"/>
<path d="M252.408 65.1836H255.026C257.436 65.1836 259.388 66.9459 259.388 69.1237V73.0639V116.396V120.336V124.276C259.388 126.454 257.438 128.216 255.026 128.216H252.408" fill="#C8C6C4"/>
<path d="M256.224 118.697H239.617H224.592V72.6974L239.617 71.1112L256.224 72.6974V118.697Z" fill="#53ADE5"/>
<path d="M252.27 65.1836C254.456 65.1836 256.224 66.957 256.224 69.1491V73.1146H224.592V69.1491C224.592 66.957 226.36 65.1836 228.546 65.1836H252.27Z" fill="#E1DFDD"/>
<path d="M235.801 68.356C235.364 68.356 235.01 68.7113 235.01 69.1491C235.01 69.5869 235.364 69.9422 235.801 69.9422H243.709C244.146 69.9422 244.5 69.5869 244.5 69.1491C244.5 68.7113 244.146 68.356 243.709 68.356H235.801Z" fill="url(#paint3_linear)"/>
<path d="M256.224 116.264H224.592V120.701H256.224V116.264Z" fill="#66AEE5"/>
<path d="M252.27 128.632C254.456 128.632 256.224 126.858 256.224 124.666V120.701H224.592V124.666C224.592 126.858 226.36 128.632 228.546 128.632H252.27Z" fill="#E1DFDD"/>
<path d="M239.755 125.835C240.628 125.835 241.337 125.125 241.337 124.249C241.337 123.373 240.628 122.663 239.755 122.663C238.881 122.663 238.173 123.373 238.173 124.249C238.173 125.125 238.881 125.835 239.755 125.835Z" fill="url(#paint4_linear)"/>
<path d="M188.214 154.011H244.373L245.153 141.322L244.373 128.632H188.214V138.149H189.774L190.554 141.322L189.774 144.494H188.214V154.011Z" fill="#E1DFDD"/>
<path d="M244.5 138.149H189.796V144.494H244.5V138.149Z" fill="#606060"/>
<path d="M294.184 154.011H189.796V160.356H294.184V154.011Z" fill="#606060"/>
<path d="M295.765 128.632H243.572V154.011H295.765V128.632Z" fill="url(#paint5_linear)"/>
<path d="M276.923 157.561C276.487 157.561 276.133 157.206 276.133 156.768C276.133 156.33 276.487 155.975 276.923 155.975H281.668C282.105 155.975 282.459 156.33 282.459 156.768C282.459 157.206 282.105 157.561 281.668 157.561H276.923Z" fill="#33312D"/>
<path d="M266.643 157.561C267.08 157.561 267.434 157.206 267.434 156.768C267.434 156.33 267.08 155.975 266.643 155.975C266.206 155.975 265.852 156.33 265.852 156.768C265.852 157.206 266.206 157.561 266.643 157.561Z" fill="#33312D"/>
<path d="M206.541 155.975H200.214V156.768H206.541V155.975Z" fill="#33312D"/>
<path d="M206.541 156.768H200.214V157.561H206.541V156.768Z" fill="#E1DFDD"/>
<path d="M278.429 139.496C278.431 139.494 278.434 139.489 278.434 139.486C278.434 139.482 278.432 139.478 278.429 139.475C277.392 138.441 277.091 138.636 277.077 138.647C276.496 139.221 276.136 140.021 276.136 140.904C276.136 141.626 276.376 142.294 276.783 142.827C276.787 142.832 276.794 142.835 276.8 142.832C276.805 142.828 276.806 142.822 276.803 142.816C276.56 142.069 277.792 140.256 278.429 139.496Z" fill="#606060"/>
<path d="M277.075 138.647L277.077 138.646L277.075 138.647Z" fill="#606060"/>
<path d="M281.518 138.647L281.516 138.646L281.518 138.647Z" fill="#606060"/>
<path d="M281.518 138.649C281.518 138.647 281.518 138.647 281.518 138.649C281.504 138.638 281.206 138.438 280.166 139.475C280.162 139.478 280.161 139.481 280.161 139.486C280.161 139.489 280.162 139.493 280.166 139.496C280.803 140.256 282.034 142.07 281.793 142.819C281.792 142.825 281.792 142.832 281.796 142.835C281.803 142.838 281.809 142.835 281.814 142.83C282.219 142.297 282.461 141.629 282.461 140.907C282.459 140.021 282.1 139.223 281.518 138.649Z" fill="#606060"/>
<path d="M277.654 138.22C278.195 138.081 279.057 138.535 279.289 138.668C279.293 138.669 279.294 138.671 279.296 138.671C279.297 138.671 279.301 138.669 279.302 138.668C279.391 138.615 280.321 138.084 280.933 138.217C280.939 138.219 280.945 138.219 280.949 138.213C280.952 138.206 280.949 138.201 280.944 138.197C280.46 137.908 279.935 137.734 279.296 137.734C278.658 137.734 278.127 137.908 277.643 138.201C277.638 138.205 277.635 138.211 277.638 138.217C277.641 138.222 277.648 138.224 277.654 138.22Z" fill="#606060"/>
<path d="M279.307 140.283C279.304 140.279 279.301 140.278 279.296 140.278C279.293 140.278 279.288 140.281 279.285 140.283C278.339 141.004 276.719 142.789 277.213 143.293C277.77 143.782 278.497 144.078 279.296 144.078C280.095 144.078 280.822 143.782 281.377 143.293C281.874 142.789 280.253 141.004 279.307 140.283Z" fill="#606060"/>
<path d="M249.898 89.5953V99.9057C249.898 100.164 249.8 100.385 249.64 100.558C249.469 100.754 249.212 100.876 248.93 100.876H239.054L235.268 104.661C235.084 104.845 234.839 104.943 234.594 104.943C234.067 104.943 233.626 104.514 233.626 103.985V100.876H231.886C231.347 100.876 230.918 100.447 230.918 99.9057V89.5953C230.918 89.0671 231.347 88.6372 231.886 88.6372H248.93C249.469 88.6372 249.898 89.0671 249.898 89.5953Z" fill="#FFB900"/>
<path d="M234.988 96.1146C235.737 96.1146 236.343 95.506 236.343 94.7553C236.343 94.0045 235.737 93.3959 234.988 93.3959C234.239 93.3959 233.633 94.0045 233.633 94.7553C233.633 95.506 234.239 96.1146 234.988 96.1146Z" fill="white"/>
<path d="M240.408 96.1146C241.157 96.1146 241.764 95.506 241.764 94.7553C241.764 94.0045 241.157 93.3959 240.408 93.3959C239.66 93.3959 239.053 94.0045 239.053 94.7553C239.053 95.506 239.66 96.1146 240.408 96.1146Z" fill="white"/>
<path d="M245.829 96.1146C246.577 96.1146 247.184 95.506 247.184 94.7553C247.184 94.0045 246.577 93.3959 245.829 93.3959C245.08 93.3959 244.473 94.0045 244.473 94.7553C244.473 95.506 245.08 96.1146 245.829 96.1146Z" fill="white"/>
<path d="M216.567 49.147L215.232 66.9094C215.199 67.3535 215.001 67.7215 214.703 67.9975C214.382 68.3132 213.924 68.4924 213.438 68.4559L196.425 67.1695L189.412 73.1971C189.072 73.4906 188.637 73.6285 188.214 73.5968C187.306 73.5286 186.603 72.7292 186.671 71.8187L187.074 66.4621L184.077 66.2352C183.148 66.1654 182.465 65.3676 182.535 64.4365L183.87 46.6741C183.938 45.7637 184.733 45.0784 185.662 45.1482L215.025 47.3673C215.951 47.4403 216.635 48.2381 216.567 49.147Z" fill="#FFB900"/>
<path d="M190.21 58.4438C191.503 58.4438 192.551 57.3928 192.551 56.0962C192.551 54.7997 191.503 53.7486 190.21 53.7486C188.918 53.7486 187.87 54.7997 187.87 56.0962C187.87 57.3928 188.918 58.4438 190.21 58.4438Z" fill="white"/>
<path d="M199.548 59.1496C200.841 59.1496 201.889 58.0986 201.889 56.8021C201.889 55.5055 200.841 54.4545 199.548 54.4545C198.256 54.4545 197.208 55.5055 197.208 56.8021C197.208 58.0986 198.256 59.1496 199.548 59.1496Z" fill="white"/>
<path d="M208.888 59.8555C210.181 59.8555 211.229 58.8045 211.229 57.5079C211.229 56.2114 210.181 55.1603 208.888 55.1603C207.595 55.1603 206.547 56.2114 206.547 57.5079C206.547 58.8045 207.595 59.8555 208.888 59.8555Z" fill="white"/>
<path d="M95.5893 49.1407C94.422 48.5078 93.4746 48.2635 92.8341 48.4094C91.602 48.7299 88.6491 51.0394 87.6083 51.7072C87.1465 52.0482 86.8507 52.5701 86.7938 53.1427C86.574 54.3133 85.6961 65.201 86.8049 69.0492C88.2473 74.1552 91.7665 73.5096 92.5446 73.305C93.3022 73.113 95.5529 68.3719 96.4955 67.0014C97.4081 65.4453 98.3144 65.3041 99.2017 65.0852C99.904 64.8997 100.964 64.63 104.976 63.6101C108.989 62.5917 110.049 62.3221 110.751 62.1349C111.638 61.9176 112.516 61.5892 114.101 62.5124C115.635 63.2627 120.122 66.2923 120.88 66.0988C121.637 65.9069 125.041 64.8076 123.565 59.6969C122.479 55.8361 115.935 46.8328 115.116 45.9175C114.751 45.4543 114.221 45.1514 113.639 45.0737C112.374 44.9753 108.601 44.3979 107.357 44.6977C106.737 44.831 106.009 45.3877 105.391 46.579L95.5893 49.1407Z" fill="#FFD566"/>
<path d="M116.826 47.3514C116.434 46.8312 115.856 46.4854 115.213 46.387C113.844 46.2665 109.822 45.9365 108.48 46.2712C107.323 46.5726 107.221 47.61 106.572 49.0249C105.911 51.0679 105.65 51.5295 104.665 51.7785C104.363 51.8547 102.999 52.2021 101.732 52.5145C100.465 52.8286 99.1036 53.1744 98.7999 53.2505C97.8367 53.4885 97.3543 53.2379 95.7094 51.7643C94.4109 50.8332 93.7545 49.9893 92.6189 50.278C91.2777 50.6111 87.9689 52.8239 86.8602 53.5646C86.3619 53.9548 86.0425 54.5322 85.9745 55.1635C85.7261 56.4705 84.88 68.6034 86.1026 72.9068C87.719 78.6045 91.5529 77.905 92.3864 77.694C93.2199 77.483 95.6382 72.2232 96.6521 70.6893C97.6358 68.9699 98.6307 68.8287 99.5812 68.5717C100.359 68.3655 101.495 68.0784 105.865 66.976C110.235 65.8752 111.391 65.5722 112.15 65.3819C113.114 65.1439 114.053 64.7775 115.807 65.8276C117.484 66.6619 122.388 70.0707 123.222 69.8597C124.055 69.6488 127.749 68.4512 126.099 62.7456C124.892 58.466 117.711 48.3714 116.826 47.3514Z" fill="#FFB900"/>
<path d="M101.487 61.2672L99.8976 61.6701L99.4469 60.0474C99.3694 59.7825 99.1021 59.6208 98.8316 59.6779L98.1499 59.8507C97.8953 59.9142 97.7387 60.1728 97.802 60.4297C97.8067 60.4456 97.8115 60.4614 97.8162 60.4773L98.267 62.1L96.6774 62.5029C96.4228 62.5663 96.2662 62.8249 96.3295 63.0819C96.3342 63.0977 96.339 63.1136 96.3437 63.1294L96.5509 63.821C96.6284 64.0859 96.8957 64.2477 97.1662 64.1906L98.7557 63.7877L99.2065 65.4104C99.284 65.6753 99.5513 65.8371 99.8217 65.78L100.503 65.6071C100.758 65.5436 100.915 65.2851 100.851 65.0281C100.847 65.0123 100.842 64.9964 100.837 64.9805L100.386 63.3579L101.976 62.955C102.231 62.8915 102.387 62.633 102.324 62.376C102.319 62.3601 102.314 62.3443 102.31 62.3284L102.102 61.6384C102.027 61.3703 101.758 61.2085 101.487 61.2672Z" fill="white"/>
<path d="M109.979 62.5743C108.655 62.8836 107.323 62.0921 106.956 60.7803C106.577 59.5288 107.281 58.2043 108.529 57.8236C108.56 57.8141 108.593 57.8045 108.625 57.7966C109.95 57.4762 111.29 58.2709 111.647 59.5906C112.024 60.8501 111.311 62.1761 110.056 62.5537C110.031 62.56 110.004 62.5679 109.979 62.5743Z" fill="white"/>
<path d="M113.003 50.6095C112.377 50.8887 111.643 50.6222 111.341 50.0068C111.032 49.4278 111.249 48.7061 111.828 48.3968C111.842 48.3888 111.856 48.3809 111.872 48.3746C112.498 48.0954 113.232 48.3619 113.534 48.9773C113.843 49.5563 113.626 50.278 113.047 50.5873C113.033 50.5952 113.019 50.6032 113.003 50.6095Z" fill="white"/>
<path d="M110.468 53.3441C109.8 53.4996 109.13 53.0998 108.949 52.4368C108.755 51.8087 109.104 51.1425 109.731 50.9474C109.746 50.9426 109.762 50.9378 109.778 50.9331C110.446 50.7776 111.116 51.1774 111.296 51.8404C111.493 52.4638 111.149 53.1284 110.528 53.3267C110.507 53.333 110.488 53.3394 110.468 53.3441Z" fill="white"/>
<path d="M113.623 55.8376C112.997 56.1168 112.264 55.8503 111.962 55.2333C111.654 54.6543 111.871 53.9326 112.449 53.6233C112.464 53.6154 112.478 53.6074 112.494 53.6011C113.12 53.3219 113.854 53.5884 114.156 54.2038C114.469 54.7717 114.265 55.4855 113.699 55.7996C113.674 55.8123 113.648 55.8249 113.623 55.8376Z" fill="white"/>
<path d="M115.722 53.2807C115.054 53.4361 114.384 53.0364 114.203 52.3734C114.009 51.7452 114.358 51.079 114.985 50.8839C115.001 50.8792 115.016 50.8744 115.032 50.8696C115.7 50.7142 116.37 51.1139 116.551 51.777C116.745 52.4051 116.396 53.0713 115.769 53.2664C115.753 53.2712 115.738 53.2759 115.722 53.2807Z" fill="white"/>
<path d="M92.9005 59.1671C91.5767 59.4764 90.2449 58.6849 89.878 57.3731C89.4984 56.1216 90.2022 54.7971 91.4501 54.4148C91.4818 54.4053 91.515 54.3958 91.5466 54.3879C92.8736 54.0675 94.2133 54.8621 94.5707 56.1819C94.9471 57.4413 94.2338 58.7674 92.9796 59.1449C92.9527 59.1528 92.9274 59.1608 92.9005 59.1671Z" fill="white"/>
<path d="M34.1443 160.356H14.3723L15.1647 157.15L32.5627 121.887L34.1443 160.356Z" fill="url(#paint6_linear)"/>
<path d="M14.3723 160.356C14.0149 160.356 13.6542 160.275 13.3126 160.102C12.1406 159.507 11.6661 158.064 12.2513 156.876L29.6493 121.613C30.2361 120.426 31.6611 119.947 32.8331 120.537C34.0051 121.132 34.4796 122.576 33.8944 123.764L16.4964 159.027C16.0805 159.869 15.2422 160.356 14.3723 160.356Z" fill="#C8C6C4"/>
<path d="M28.4695 155.209C28.4695 157.823 30.4465 159.939 32.8886 159.939H37.3076V90.5629H32.8886C30.4465 90.5629 28.4695 92.6789 28.4695 95.293V155.209Z" fill="#C8C6C4"/>
<path d="M33.2144 95.3215C33.2144 92.6916 35.3369 90.5629 37.9593 90.5629H129.694C132.316 90.5629 134.439 92.6916 134.439 95.3215V155.597C134.439 158.227 132.316 160.356 129.694 160.356H37.9593C35.3369 160.356 33.2144 158.227 33.2144 155.597V95.3215Z" fill="#E1DFDD"/>
<path d="M129.694 150.839L83.8266 152.425L37.9592 150.839V95.3215H129.694V150.839Z" fill="#53ADE5"/>
<path d="M129.694 150.422H37.9592V155.597H129.694V150.422Z" fill="#66AEE5"/>
<path d="M94.0201 146.256L71.7412 143.249L73.8827 127.29L96.1616 130.297L94.0201 146.256Z" fill="url(#paint7_linear)"/>
<path d="M73.8903 127.292L71.7483 143.252L94.0264 146.26L96.1684 130.3L73.8903 127.292Z" fill="white"/>
<path d="M94.7998 140.446L94.3917 140.086C92.4448 138.368 89.6595 137.992 87.3298 139.133L83.3741 141.069L82.8806 144.751L94.0201 146.255L94.7998 140.446Z" fill="url(#paint8_linear)"/>
<path d="M91.2601 136.806C92.78 136.806 94.0121 135.57 94.0121 134.046C94.0121 132.521 92.78 131.286 91.2601 131.286C89.7402 131.286 88.5081 132.521 88.5081 134.046C88.5081 135.57 89.7402 136.806 91.2601 136.806Z" fill="#FFB900"/>
<path d="M86.7715 139.903L83.4674 136.986C81.5204 135.269 78.7352 134.893 76.4054 136.033L72.4498 137.97L71.7412 143.249L94.0185 146.255L86.7715 139.903Z" fill="#8BC53F"/>
<path d="M94.5689 130.082C95.4467 130.201 96.0635 131.013 95.9465 131.892L94.2336 144.659C94.115 145.539 93.3052 146.158 92.4289 146.04L73.3339 143.463C72.4561 143.344 71.8392 142.532 71.9563 141.653L73.6692 128.886C73.7878 128.005 74.5976 127.387 75.4738 127.504L94.5689 130.082ZM94.784 128.486L75.6889 125.908C73.9317 125.67 72.3153 126.908 72.0781 128.67L70.3652 141.437C70.1279 143.2 71.3616 144.821 73.1188 145.059L92.2138 147.636C93.971 147.874 95.5875 146.637 95.8247 144.875L97.5376 132.107C97.7749 130.345 96.5412 128.724 94.784 128.486Z" fill="#E1DFDD"/>
<path d="M170.237 101.091L138.772 96.0195L142.385 73.4779L173.85 78.549L170.237 101.091Z" fill="url(#paint9_linear)"/>
<path d="M142.387 73.4867L138.775 96.0255L170.238 101.098L173.851 78.5589L142.387 73.4867Z" fill="white"/>
<path d="M171.554 92.8835L170.989 92.3585C168.292 89.8523 164.359 89.2194 161.015 90.7517L155.339 93.353L154.505 98.5542L170.238 101.089L171.554 92.8835Z" fill="url(#paint10_linear)"/>
<path d="M166.769 87.5983C168.924 87.5983 170.671 85.8463 170.671 83.6851C170.671 81.5239 168.924 79.7719 166.769 79.7719C164.614 79.7719 162.867 81.5239 162.867 83.6851C162.867 85.8463 164.614 87.5983 166.769 87.5983Z" fill="#FFB900"/>
<path d="M160.194 91.8239L155.617 87.5697C152.92 85.0635 148.987 84.4306 145.643 85.9629L139.967 88.5643L138.772 96.0195L170.237 101.091L160.194 91.8239Z" fill="#8BC53F"/>
<path d="M171.602 78.1873C172.842 78.3872 173.689 79.561 173.489 80.803L170.6 98.835C170.4 100.079 169.23 100.927 167.992 100.727L141.022 96.3811C139.782 96.1812 138.935 95.0075 139.135 93.7654L142.024 75.7334C142.224 74.4899 143.394 73.6412 144.632 73.8411L171.602 78.1873ZM171.963 75.9333L144.993 71.5871C142.51 71.1874 140.174 72.8814 139.775 75.3702L136.886 93.4022C136.487 95.8926 138.176 98.2354 140.658 98.6351L167.628 102.981C170.111 103.381 172.447 101.687 172.846 99.1982L175.735 81.1662C176.134 78.6759 174.446 76.333 171.963 75.9333Z" fill="#E1DFDD"/>
<path d="M51.9928 106.315C51.1498 105.859 50.465 105.683 50.0032 105.787C49.1127 106.019 46.9807 107.688 46.2278 108.17C45.8941 108.416 45.6806 108.793 45.6394 109.206C45.4797 110.051 44.847 117.915 45.6473 120.694C46.6896 124.382 49.2313 123.916 49.7928 123.769C50.34 123.629 51.966 120.206 52.6461 119.216C53.3056 118.091 53.9604 117.99 54.601 117.833C55.1087 117.698 55.8742 117.505 58.7717 116.769C61.6693 116.033 62.4364 115.837 62.9425 115.704C63.5831 115.547 64.2173 115.309 65.3624 115.977C66.4711 116.518 69.7119 118.707 70.2591 118.567C70.8064 118.428 73.2642 117.635 72.1982 113.944C71.4121 111.155 66.6862 104.652 66.0947 103.99C65.8306 103.655 65.4478 103.437 65.0271 103.381C64.1129 103.31 61.3877 102.892 60.4894 103.11C60.0418 103.207 59.5151 103.608 59.0691 104.469L51.9928 106.315Z" fill="#FFD566"/>
<path d="M67.3316 105.024C67.0485 104.648 66.6309 104.399 66.1659 104.328C65.1774 104.241 62.272 104.003 61.304 104.244C60.4689 104.461 60.3946 105.21 59.9264 106.233C59.4488 107.708 59.2605 108.043 58.5488 108.222C58.3305 108.278 57.3452 108.528 56.431 108.753C55.5168 108.98 54.5315 109.229 54.3132 109.285C53.6173 109.456 53.2693 109.275 52.0815 108.213C51.1436 107.54 50.6707 106.931 49.8498 107.14C48.8803 107.38 46.4904 108.979 45.6901 109.515C45.3295 109.797 45.0986 110.213 45.0512 110.67C44.8708 111.613 44.2603 120.377 45.1445 123.486C46.3117 127.602 49.0812 127.096 49.6838 126.944C50.2848 126.792 52.0325 122.993 52.7648 121.884C53.4765 120.642 54.1946 120.541 54.881 120.355C55.4425 120.206 56.2633 119.998 59.4203 119.202C62.5772 118.406 63.4107 118.188 63.9596 118.05C64.6555 117.879 65.334 117.614 66.6009 118.372C67.8124 118.975 71.3553 121.437 71.9563 121.285C72.5573 121.132 75.2255 120.268 74.0346 116.147C73.1583 113.051 67.9722 105.76 67.3316 105.024Z" fill="#FFB900"/>
<path d="M56.2523 115.075L55.1041 115.366L54.7782 114.194C54.7229 114.002 54.5284 113.886 54.3338 113.928L53.8419 114.053C53.6569 114.099 53.5446 114.286 53.5904 114.472C53.5936 114.483 53.5968 114.494 53.6015 114.507L53.9273 115.679L52.7791 115.968C52.594 116.014 52.4817 116.201 52.5276 116.386C52.5308 116.397 52.5339 116.409 52.5387 116.421L52.6873 116.921C52.7427 117.113 52.9372 117.229 53.1318 117.187L54.28 116.895L54.6059 118.068C54.6612 118.26 54.8558 118.375 55.0503 118.334L55.5422 118.209C55.7272 118.163 55.8395 117.976 55.7937 117.79C55.7905 117.779 55.7873 117.768 55.7826 117.755L55.4568 116.583L56.605 116.291C56.7901 116.245 56.9024 116.058 56.8565 115.872C56.8534 115.861 56.8502 115.85 56.8454 115.837L56.6968 115.338C56.6414 115.149 56.4485 115.033 56.2523 115.075Z" fill="white"/>
<path d="M62.3859 116.02C61.429 116.244 60.4673 115.673 60.2016 114.724C59.9264 113.82 60.4357 112.863 61.3372 112.587C61.361 112.581 61.3847 112.573 61.4068 112.568C62.3637 112.337 63.3317 112.911 63.5911 113.864C63.8631 114.773 63.3475 115.731 62.4412 116.004C62.4238 116.009 62.4048 116.014 62.3859 116.02Z" fill="white"/>
<path d="M64.5717 107.377C64.1194 107.578 63.5895 107.386 63.3713 106.94C63.1483 106.522 63.3048 106.001 63.7224 105.778C63.7335 105.771 63.743 105.767 63.754 105.762C64.2064 105.56 64.7362 105.752 64.9545 106.198C65.1775 106.617 65.0209 107.137 64.6034 107.361C64.5923 107.366 64.5812 107.372 64.5717 107.377Z" fill="white"/>
<path d="M62.7402 109.353C62.2578 109.466 61.7738 109.175 61.6442 108.698C61.5034 108.244 61.7565 107.764 62.2088 107.623C62.2199 107.619 62.2309 107.616 62.2436 107.613C62.726 107.5 63.21 107.791 63.3397 108.268C63.482 108.719 63.2337 109.199 62.7845 109.34C62.7687 109.345 62.7545 109.348 62.7402 109.353Z" fill="white"/>
<path d="M65.0194 111.153C64.567 111.355 64.0372 111.161 63.8205 110.717C63.5975 110.298 63.7541 109.778 64.1716 109.555C64.1827 109.548 64.1922 109.543 64.2032 109.539C64.6556 109.337 65.1854 109.529 65.4037 109.975C65.6299 110.384 65.4828 110.901 65.0731 111.128C65.0557 111.134 65.0368 111.144 65.0194 111.153Z" fill="white"/>
<path d="M66.5344 109.305C66.052 109.418 65.568 109.129 65.4383 108.65C65.2976 108.197 65.5506 107.716 66.003 107.575C66.0141 107.572 66.0251 107.569 66.0378 107.565C66.5202 107.453 67.0042 107.743 67.1338 108.221C67.2746 108.674 67.0216 109.155 66.5692 109.296C66.5566 109.299 66.5455 109.302 66.5344 109.305Z" fill="white"/>
<path d="M50.0507 113.558C49.0938 113.782 48.1321 113.211 47.8664 112.262C47.5912 111.358 48.1005 110.402 49.002 110.126C49.0258 110.119 49.0495 110.111 49.0716 110.107C50.0285 109.875 50.9965 110.449 51.2559 111.402C51.5279 112.311 51.0123 113.269 50.106 113.542C50.0886 113.547 50.0696 113.553 50.0507 113.558Z" fill="white"/>
<path d="M121.947 105.963L120.957 119.135C120.932 119.465 120.786 119.738 120.566 119.943C120.327 120.177 119.987 120.309 119.628 120.282L107.012 119.329L101.811 123.799C101.558 124.016 101.236 124.119 100.922 124.095C100.249 124.045 99.7266 123.453 99.7773 122.777L100.076 118.805L97.854 118.637C97.166 118.585 96.6583 117.995 96.7105 117.303L97.7006 104.131C97.7512 103.456 98.3411 102.948 99.0291 103L120.805 104.647C121.491 104.696 121.999 105.288 121.947 105.963Z" fill="#FFB900"/>
<path d="M102.403 112.857C103.362 112.857 104.139 112.077 104.139 111.115C104.139 110.153 103.362 109.374 102.403 109.374C101.444 109.374 100.666 110.153 100.666 111.115C100.666 112.077 101.444 112.857 102.403 112.857Z" fill="white"/>
<path d="M109.327 113.38C110.286 113.38 111.064 112.601 111.064 111.639C111.064 110.677 110.286 109.897 109.327 109.897C108.368 109.897 107.591 110.677 107.591 111.639C107.591 112.601 108.368 113.38 109.327 113.38Z" fill="white"/>
<path d="M116.253 113.904C117.212 113.904 117.99 113.124 117.99 112.162C117.99 111.2 117.212 110.421 116.253 110.421C115.294 110.421 114.517 111.2 114.517 112.162C114.517 113.124 115.294 113.904 116.253 113.904Z" fill="white"/>
<defs>
<linearGradient id="paint0_linear" x1="149.929" y1="124.49" x2="149.929" y2="145.27" gradientUnits="userSpaceOnUse">
<stop stop-color="#B3AFAB"/>
<stop offset="1" stop-color="#C8C6C4"/>
</linearGradient>
<linearGradient id="paint1_linear" x1="71.1491" y1="110.729" x2="228.229" y2="32.9369" gradientUnits="userSpaceOnUse">
<stop stop-color="#3393DD"/>
<stop offset="1" stop-color="#0078D4"/>
</linearGradient>
<linearGradient id="paint2_linear" x1="149.675" y1="123.462" x2="149.543" y2="129.224" gradientUnits="userSpaceOnUse">
<stop stop-color="#B3AFAB"/>
<stop offset="1" stop-color="#C8C6C4"/>
</linearGradient>
<linearGradient id="paint3_linear" x1="239.74" y1="70.1915" x2="239.784" y2="67.2691" gradientUnits="userSpaceOnUse">
<stop stop-color="#E1DFDD"/>
<stop offset="1" stop-color="#FAF9F8"/>
</linearGradient>
<linearGradient id="paint4_linear" x1="239.787" y1="126.641" x2="239.721" y2="121.598" gradientUnits="userSpaceOnUse">
<stop stop-color="#E1DFDD"/>
<stop offset="1" stop-color="#FAF9F8"/>
</linearGradient>
<linearGradient id="paint5_linear" x1="301.882" y1="135.045" x2="245.637" y2="145.94" gradientUnits="userSpaceOnUse">
<stop stop-color="#E1DFDD"/>
<stop offset="1" stop-color="#FAF9F8"/>
</linearGradient>
<linearGradient id="paint6_linear" x1="43.7124" y1="153.535" x2="9.72251" y2="132.813" gradientUnits="userSpaceOnUse">
<stop offset="0.3594" stop-color="#E1DFDD"/>
<stop offset="0.6399" stop-color="#E9E7E6"/>
<stop offset="1" stop-color="#FAF9F8"/>
</linearGradient>
<linearGradient id="paint7_linear" x1="71.829" y1="132.112" x2="95.728" y2="141.528" gradientUnits="userSpaceOnUse">
<stop stop-color="#E1DFDD"/>
<stop offset="0.3956" stop-color="#DDDBD9"/>
<stop offset="0.8251" stop-color="#D0CECC"/>
<stop offset="1" stop-color="#C8C6C4"/>
</linearGradient>
<linearGradient id="paint8_linear" x1="83.4868" y1="140.895" x2="94.6273" y2="142.391" gradientUnits="userSpaceOnUse">
<stop offset="0.338" stop-color="#82A555"/>
<stop offset="0.5219" stop-color="#86B44B"/>
<stop offset="0.7704" stop-color="#8AC142"/>
<stop offset="1" stop-color="#8BC53F"/>
</linearGradient>
<linearGradient id="paint9_linear" x1="139.496" y1="80.1554" x2="173.028" y2="94.3683" gradientUnits="userSpaceOnUse">
<stop stop-color="#E1DFDD"/>
<stop offset="0.3956" stop-color="#DDDBD9"/>
<stop offset="0.8251" stop-color="#D0CECC"/>
<stop offset="1" stop-color="#C8C6C4"/>
</linearGradient>
<linearGradient id="paint10_linear" x1="155.58" y1="93.5564" x2="171.314" y2="96.0783" gradientUnits="userSpaceOnUse">
<stop offset="0.338" stop-color="#82A555"/>
<stop offset="0.5219" stop-color="#86B44B"/>
<stop offset="0.7704" stop-color="#8AC142"/>
<stop offset="1" stop-color="#8BC53F"/>
</linearGradient>
</defs>
</svg>
