<svg width="310" height="184" viewBox="0 0 284 138" fill="none" xmlns="http://www.w3.org/2000/svg">
<path d="M157.235 107.991H118.622V124.646H157.235V107.991Z" fill="url(#paint0_linear_9688_294783)"/>
<path d="M51.2653 107.148C51.2653 109.816 53.4068 111.975 56.0544 111.975H218.874C221.522 111.975 223.663 109.816 223.663 107.148V5.76903C223.663 3.10103 221.522 0.9422 218.874 0.9422H56.0544C53.4068 0.9422 51.2653 3.10103 51.2653 5.76903V107.148Z" fill="#C8C6C4"/>
<path d="M217.337 8.87323H59.1735V87.7791L138.255 90.1457L217.337 87.7791V8.87323Z" fill="#A8A8A8"/>
<path d="M137.602 106.008C138.912 106.008 139.974 104.943 139.974 103.628C139.974 102.314 138.912 101.249 137.602 101.249C136.292 101.249 135.229 102.314 135.229 103.628C135.229 104.943 136.292 106.008 137.602 106.008Z" fill="url(#paint1_linear_9688_294783)"/>
<path d="M170.816 126.253C170.816 123.623 168.694 121.494 166.071 121.494H109.132C106.51 121.494 104.388 123.623 104.388 126.253V131.011H170.816V126.253Z" fill="#C8C6C4"/>
<path d="M216.684 86.5974H58.5203V96.1146H216.684V86.5974Z" fill="#9B9B9B"/>
<path d="M240.408 42.1836H243.026C245.436 42.1836 247.388 43.9459 247.388 46.1237V50.0639V93.3959V97.336V101.276C247.388 103.454 245.438 105.216 243.026 105.216H240.408" fill="#C8C6C4"/>
<path d="M244.224 95.6974H227.617H212.592V49.6974L227.617 48.1112L244.224 49.6974V95.6974Z" fill="#B4B4B4"/>
<path d="M240.27 42.1836C242.456 42.1836 244.224 43.957 244.224 46.1491V50.1146H212.592V46.1491C212.592 43.957 214.36 42.1836 216.546 42.1836H240.27Z" fill="#E1DFDD"/>
<path d="M223.801 45.356C223.364 45.356 223.01 45.7113 223.01 46.1491C223.01 46.5869 223.364 46.9422 223.801 46.9422H231.709C232.146 46.9422 232.5 46.5869 232.5 46.1491C232.5 45.7113 232.146 45.356 231.709 45.356H223.801Z" fill="url(#paint2_linear_9688_294783)"/>
<path d="M244.224 93.2642H212.592V97.7008H244.224V93.2642Z" fill="#A4A4A4"/>
<path d="M240.27 105.632C242.456 105.632 244.224 103.858 244.224 101.666V97.7008H212.592V101.666C212.592 103.858 214.36 105.632 216.546 105.632H240.27Z" fill="#E1DFDD"/>
<path d="M227.755 102.835C228.628 102.835 229.337 102.125 229.337 101.249C229.337 100.373 228.628 99.663 227.755 99.663C226.881 99.663 226.173 100.373 226.173 101.249C226.173 102.125 226.881 102.835 227.755 102.835Z" fill="url(#paint3_linear_9688_294783)"/>
<path d="M176.214 131.011H232.373L233.153 118.322L232.373 105.632H176.214V115.149H177.774L178.553 118.322L177.774 121.494H176.214V131.011Z" fill="#E1DFDD"/>
<path d="M232.5 115.149H177.796V121.494H232.5V115.149Z" fill="#606060"/>
<path d="M282.184 131.011H177.796V137.356H282.184V131.011Z" fill="#606060"/>
<path d="M283.765 105.632H231.571V131.011H283.765V105.632Z" fill="url(#paint4_linear_9688_294783)"/>
<path d="M264.923 134.561C264.487 134.561 264.132 134.206 264.132 133.768C264.132 133.33 264.487 132.975 264.923 132.975H269.668C270.105 132.975 270.459 133.33 270.459 133.768C270.459 134.206 270.105 134.561 269.668 134.561H264.923Z" fill="#33312D"/>
<path d="M254.643 134.561C255.079 134.561 255.433 134.206 255.433 133.768C255.433 133.33 255.079 132.975 254.643 132.975C254.206 132.975 253.852 133.33 253.852 133.768C253.852 134.206 254.206 134.561 254.643 134.561Z" fill="#33312D"/>
<path d="M194.541 132.975H188.214V133.768H194.541V132.975Z" fill="#33312D"/>
<path d="M194.541 133.768H188.214V134.561H194.541V133.768Z" fill="#E1DFDD"/>
<path d="M266.429 116.496C266.431 116.494 266.434 116.489 266.434 116.486C266.434 116.482 266.432 116.478 266.429 116.475C265.391 115.441 265.091 115.636 265.077 115.647C264.496 116.221 264.136 117.021 264.136 117.904C264.136 118.626 264.376 119.294 264.782 119.827C264.787 119.832 264.794 119.835 264.8 119.832C264.805 119.828 264.806 119.822 264.803 119.816C264.559 119.069 265.792 117.256 266.429 116.496Z" fill="#606060"/>
<path d="M265.075 115.647L265.077 115.646L265.075 115.647Z" fill="#606060"/>
<path d="M269.518 115.647L269.516 115.646L269.518 115.647Z" fill="#606060"/>
<path d="M269.518 115.649C269.518 115.647 269.518 115.647 269.518 115.649C269.504 115.638 269.206 115.438 268.166 116.475C268.162 116.478 268.161 116.482 268.161 116.486C268.161 116.489 268.162 116.493 268.166 116.496C268.803 117.256 270.034 119.07 269.793 119.819C269.792 119.825 269.792 119.832 269.796 119.835C269.803 119.838 269.809 119.835 269.814 119.83C270.219 119.297 270.461 118.629 270.461 117.908C270.459 117.021 270.1 116.223 269.518 115.649Z" fill="#606060"/>
<path d="M265.654 115.22C266.195 115.081 267.057 115.535 267.289 115.668C267.292 115.669 267.294 115.671 267.296 115.671C267.297 115.671 267.3 115.669 267.302 115.668C267.391 115.615 268.321 115.084 268.933 115.217C268.939 115.219 268.945 115.219 268.948 115.213C268.952 115.206 268.948 115.201 268.944 115.197C268.46 114.908 267.935 114.734 267.296 114.734C266.658 114.734 266.127 114.908 265.643 115.201C265.638 115.205 265.635 115.211 265.638 115.217C265.641 115.222 265.648 115.224 265.654 115.22Z" fill="#606060"/>
<path d="M267.307 117.283C267.304 117.279 267.3 117.278 267.296 117.278C267.293 117.278 267.288 117.281 267.285 117.283C266.339 118.004 264.719 119.789 265.213 120.293C265.769 120.782 266.497 121.078 267.296 121.078C268.094 121.078 268.822 120.782 269.377 120.293C269.874 119.789 268.253 118.004 267.307 117.283Z" fill="#606060"/>
<path d="M235.448 80.4056L219.897 78.3064L221.392 67.1673L236.942 69.2664L235.448 80.4056Z" fill="url(#paint5_linear_9688_294783)"/>
<path d="M220.579 68.1626L220.579 79.4024L236.27 79.4144L236.27 68.1746L220.579 68.1626Z" fill="white"/>
<path d="M236.238 75.3617L235.913 75.1481C234.358 74.1287 232.345 74.1457 230.81 75.1912L228.204 76.9665L228.229 79.6261L236.277 79.5581L236.238 75.3617Z" fill="url(#paint6_linear_9688_294783)"/>
<path d="M233.521 73.6098C234.582 73.6098 235.442 72.7473 235.442 71.6833C235.442 70.6194 234.582 69.7569 233.521 69.7569C232.46 69.7569 231.6 70.6194 231.6 71.6833C231.6 72.7473 232.46 73.6098 233.521 73.6098Z" fill="#FFB900"/>
<path d="M230.493 75.7944L227.854 74.0632C226.3 73.0438 224.287 73.0608 222.752 74.1063L220.146 75.8816L220.181 79.6952L236.276 79.5583L230.493 75.7944Z" fill="#8BC53F"/>
<path d="M235.153 68.1828C235.772 68.1847 236.273 68.6901 236.272 69.3089L236.258 78.3002C236.256 78.9202 235.753 79.4226 235.136 79.4217L221.687 79.3889C221.068 79.3871 220.567 78.8817 220.567 78.2629L220.582 69.2715C220.583 68.6515 221.087 68.1492 221.704 68.1501L235.153 68.1828ZM235.156 67.059L221.707 67.0262C220.469 67.0227 219.464 68.027 219.461 69.2681L219.447 78.2595C219.444 79.5007 220.446 80.5093 221.684 80.5128L235.133 80.5455C236.371 80.5491 237.376 79.5448 237.378 78.3036L237.393 69.3122C237.396 68.0711 236.393 67.0625 235.156 67.059Z" fill="#E1DFDD"/>
<path d="M22.1443 137.356H2.37231L3.16471 134.15L20.5627 98.8873L22.1443 137.356Z" fill="url(#paint7_linear_9688_294783)"/>
<path d="M2.3723 137.356C2.01485 137.356 1.65424 137.275 1.31261 137.102C0.140619 136.507 -0.33387 135.064 0.251334 133.876L17.6493 98.6129C18.2361 97.4264 19.6611 96.9474 20.8331 97.5374C22.0051 98.1323 22.4796 99.5757 21.8944 100.764L4.49644 136.027C4.08047 136.869 3.2422 137.356 2.3723 137.356Z" fill="#C8C6C4"/>
<path d="M16.4694 132.209C16.4694 134.823 18.4464 136.939 20.8884 136.939H25.3075V67.5629H20.8884C18.4464 67.5629 16.4694 69.6789 16.4694 72.293V132.209Z" fill="#C8C6C4"/>
<path d="M21.2144 72.3215C21.2144 69.6916 23.3369 67.5629 25.9593 67.5629H117.694C120.316 67.5629 122.439 69.6916 122.439 72.3215V132.597C122.439 135.227 120.316 137.356 117.694 137.356H25.9593C23.3369 137.356 21.2144 135.227 21.2144 132.597V72.3215Z" fill="#E1DFDD"/>
<path d="M117.694 127.839L71.8266 129.425L25.9592 127.839V72.3215H117.694V127.839Z" fill="#B4B4B4"/>
<path d="M117.694 127.422H25.9592V132.597H117.694V127.422Z" fill="#A4A4A4"/>
<path d="M82.0201 113.071L59.7412 110.064L61.8827 94.105L84.1616 97.1125L82.0201 113.071Z" fill="url(#paint8_linear_9688_294783)"/>
<path d="M60.7183 95.531L60.7183 111.634L83.1984 111.651L83.1984 95.5482L60.7183 95.531Z" fill="white"/>
<path d="M83.153 105.845L82.6861 105.539C80.4586 104.078 77.5756 104.103 75.3762 105.601L71.6419 108.144L71.6776 111.954L83.2082 111.857L83.153 105.845Z" fill="url(#paint9_linear_9688_294783)"/>
<path d="M79.2601 103.335C80.78 103.335 82.0121 102.099 82.0121 100.575C82.0121 99.0508 80.78 97.8151 79.2601 97.8151C77.7402 97.8151 76.5081 99.0508 76.5081 100.575C76.5081 102.099 77.7402 103.335 79.2601 103.335Z" fill="#FFB900"/>
<path d="M74.9217 106.465L71.1414 103.985C68.9138 102.524 66.0308 102.549 63.8314 104.046L60.0971 106.59L60.1474 112.053L83.2067 111.857L74.9217 106.465Z" fill="#8BC53F"/>
<path d="M81.5981 95.56C82.4839 95.5626 83.2021 96.2867 83.2015 97.1732L83.1806 110.055C83.1786 110.943 82.4571 111.663 81.573 111.662L62.3049 111.615C61.419 111.612 60.7008 110.888 60.7014 110.001L60.7224 97.1197C60.7243 96.2314 61.4459 95.5118 62.3299 95.5131L81.5981 95.56ZM81.6017 93.9498L62.3335 93.9029C60.5603 93.8979 59.1204 95.3367 59.1167 97.1149L59.0958 109.997C59.0921 111.775 60.528 113.22 62.3012 113.225L81.5694 113.272C83.3426 113.277 84.7825 111.838 84.7862 110.06L84.8072 97.1781C84.8109 95.3999 83.3749 93.9549 81.6017 93.9498Z" fill="#E1DFDD"/>
<path d="M160.226 61.0671L128.355 60.9806L128.396 38.1514L160.267 38.2379L160.226 61.0671Z" fill="url(#paint10_linear_9688_294783)"/>
<path d="M128.4 38.1598L128.358 60.9862L160.228 61.0739L160.27 38.2475L128.4 38.1598Z" fill="white"/>
<path d="M160.241 52.7552L159.602 52.325C156.546 50.2715 152.562 50.2617 149.499 52.2982L144.3 55.7555L144.29 61.023L160.225 61.0655L160.241 52.7552Z" fill="url(#paint11_linear_9688_294783)"/>
<path d="M154.689 48.2835C156.818 47.9464 158.269 45.9427 157.931 43.8081C157.593 41.6735 155.593 40.2164 153.465 40.5535C151.336 40.8906 149.885 42.8943 150.223 45.0289C150.561 47.1634 152.561 48.6206 154.689 48.2835Z" fill="#FFB900"/>
<path d="M148.856 53.4856L143.67 49.9998C140.614 47.9464 136.63 47.9366 133.567 49.973L128.368 53.4304L128.355 60.9806L160.226 61.067L148.856 53.4856Z" fill="#8BC53F"/>
<path d="M157.991 38.2323C159.247 38.2357 160.266 39.2627 160.264 40.5205L160.23 58.7826C160.228 60.042 159.205 61.0633 157.95 61.0596L130.633 60.986C129.377 60.9825 128.357 59.9556 128.36 58.6977L128.393 40.4356C128.395 39.1762 129.419 38.1549 130.673 38.1586L157.991 38.2323ZM157.994 35.9496L130.677 35.8759C128.161 35.8696 126.119 37.9082 126.115 40.4287L126.082 58.6908C126.078 61.2128 128.112 63.2625 130.626 63.2691L157.944 63.3428C160.459 63.3491 162.501 61.3105 162.506 58.79L162.539 40.528C162.543 38.0059 160.51 35.956 157.994 35.9496Z" fill="#E1DFDD"/>
<defs>
<linearGradient id="paint0_linear_9688_294783" x1="137.929" y1="101.49" x2="137.929" y2="122.27" gradientUnits="userSpaceOnUse">
<stop stop-color="#B3AFAB"/>
<stop offset="1" stop-color="#C8C6C4"/>
</linearGradient>
<linearGradient id="paint1_linear_9688_294783" x1="137.674" y1="100.462" x2="137.543" y2="106.224" gradientUnits="userSpaceOnUse">
<stop stop-color="#B3AFAB"/>
<stop offset="1" stop-color="#C8C6C4"/>
</linearGradient>
<linearGradient id="paint2_linear_9688_294783" x1="227.74" y1="47.1915" x2="227.784" y2="44.2691" gradientUnits="userSpaceOnUse">
<stop stop-color="#E1DFDD"/>
<stop offset="1" stop-color="#FAF9F8"/>
</linearGradient>
<linearGradient id="paint3_linear_9688_294783" x1="227.787" y1="103.641" x2="227.721" y2="98.5981" gradientUnits="userSpaceOnUse">
<stop stop-color="#E1DFDD"/>
<stop offset="1" stop-color="#FAF9F8"/>
</linearGradient>
<linearGradient id="paint4_linear_9688_294783" x1="289.882" y1="112.045" x2="233.637" y2="122.94" gradientUnits="userSpaceOnUse">
<stop stop-color="#E1DFDD"/>
<stop offset="1" stop-color="#FAF9F8"/>
</linearGradient>
<linearGradient id="paint5_linear_9688_294783" x1="219.959" y1="70.5327" x2="236.64" y2="77.1055" gradientUnits="userSpaceOnUse">
<stop stop-color="#E1DFDD"/>
<stop offset="0.3956" stop-color="#DDDBD9"/>
<stop offset="0.8251" stop-color="#D0CECC"/>
<stop offset="1" stop-color="#C8C6C4"/>
</linearGradient>
<linearGradient id="paint6_linear_9688_294783" x1="228.266" y1="76.8318" x2="236.314" y2="76.7576" gradientUnits="userSpaceOnUse">
<stop offset="0.338" stop-color="#82A555"/>
<stop offset="0.5219" stop-color="#86B44B"/>
<stop offset="0.7704" stop-color="#8AC142"/>
<stop offset="1" stop-color="#8BC53F"/>
</linearGradient>
<linearGradient id="paint7_linear_9688_294783" x1="31.7124" y1="130.535" x2="-2.27749" y2="109.813" gradientUnits="userSpaceOnUse">
<stop offset="0.3594" stop-color="#E1DFDD"/>
<stop offset="0.6399" stop-color="#E9E7E6"/>
<stop offset="1" stop-color="#FAF9F8"/>
</linearGradient>
<linearGradient id="paint8_linear_9688_294783" x1="59.829" y1="98.9266" x2="83.728" y2="108.343" gradientUnits="userSpaceOnUse">
<stop stop-color="#E1DFDD"/>
<stop offset="0.3956" stop-color="#DDDBD9"/>
<stop offset="0.8251" stop-color="#D0CECC"/>
<stop offset="1" stop-color="#C8C6C4"/>
</linearGradient>
<linearGradient id="paint9_linear_9688_294783" x1="71.731" y1="107.951" x2="83.2614" y2="107.845" gradientUnits="userSpaceOnUse">
<stop offset="0.338" stop-color="#82A555"/>
<stop offset="0.5219" stop-color="#86B44B"/>
<stop offset="0.7704" stop-color="#8AC142"/>
<stop offset="1" stop-color="#8BC53F"/>
</linearGradient>
<linearGradient id="paint10_linear_9688_294783" x1="126.587" y1="45.1987" x2="161.93" y2="53.991" gradientUnits="userSpaceOnUse">
<stop stop-color="#E1DFDD"/>
<stop offset="0.3956" stop-color="#DDDBD9"/>
<stop offset="0.8251" stop-color="#D0CECC"/>
<stop offset="1" stop-color="#C8C6C4"/>
</linearGradient>
<linearGradient id="paint11_linear_9688_294783" x1="144.569" y1="55.9187" x2="160.505" y2="55.9481" gradientUnits="userSpaceOnUse">
<stop offset="0.338" stop-color="#82A555"/>
<stop offset="0.5219" stop-color="#86B44B"/>
<stop offset="0.7704" stop-color="#8AC142"/>
<stop offset="1" stop-color="#8BC53F"/>
</linearGradient>
</defs>
</svg>
