<!-- icon666.com - MILLIONS vector ICONS FREE --><svg version="1.1" id="Capa_1" xmlns="http://www.w3.org/2000/svg" xmlns:xlink="http://www.w3.org/1999/xlink" x="0px" y="0px" viewBox="0 0 512 512" style="enable-background:new 0 0 512 512;" xml:space="preserve"><g><g><path d="M139.773,176.344c-21.823,0-39.577,17.755-39.577,39.577c0,21.823,17.755,39.577,39.577,39.577 s39.577-17.755,39.577-39.577C179.35,194.099,161.596,176.344,139.773,176.344z M139.773,240.47 c-13.535,0-24.548-11.013-24.548-24.548c0-10.915,7.163-20.185,17.033-23.367v15.351c0,4.15,3.365,7.515,7.515,7.515 c4.15,0,7.515-3.365,7.515-7.515v-15.351c9.87,3.182,17.033,12.451,17.033,23.367C164.321,229.457,153.308,240.47,139.773,240.47z "></path></g></g><g><g><path d="M203.898,272.532H51.601c-4.15,0-7.515,3.365-7.515,7.515c0,4.15,3.365,7.515,7.515,7.515h152.297 c4.15,0,7.515-3.365,7.515-7.515C211.413,275.897,208.048,272.532,203.898,272.532z"></path></g></g><g><g><path d="M227.945,24.047H51.601c-4.15,0-7.515,3.365-7.515,7.515v64.125c0,4.15,3.365,7.515,7.515,7.515h176.344 c4.15,0,7.515-3.365,7.515-7.515V31.562C235.46,27.412,232.095,24.047,227.945,24.047z M220.431,88.172H59.115V39.076h161.315 V88.172z"></path></g></g><g><g><path d="M435.812,319.36c-0.379-3.81-3.711-6.749-7.522-6.749h-56.064c-4.151,0-7.515,3.365-7.515,7.515s3.364,7.515,7.515,7.515 h35.353L284.055,430.578L160.529,327.64h176.129c4.151,0,7.515-3.365,7.515-7.515s-3.364-7.515-7.515-7.515h-69.135V7.515 c0-4.15-3.364-7.515-7.515-7.515H19.538c-4.15,0-7.515,3.365-7.515,7.515v440.861c0,4.15,3.365,7.515,7.515,7.515h112.72v48.595 c0,4.15,3.365,7.515,7.515,7.515h288.564c4.151,0,7.515-3.365,7.515-7.515v-184.36 C435.851,319.871,435.838,319.612,435.812,319.36z M27.053,15.029h225.44v97.19H27.053V15.029z M51.601,312.611 c-4.15,0-7.515,3.365-7.515,7.515s3.365,7.515,7.515,7.515h80.658v25.049H51.601c-4.15,0-7.515,3.365-7.515,7.515 c0,4.15,3.365,7.515,7.515,7.515h80.658v73.143H27.053V127.249h225.44v185.362H51.601z M420.822,496.971H147.288V336.17 l131.956,109.964c2.753,2.294,6.868,2.294,9.623,0L420.822,336.17V496.971z"></path></g></g><g><g><path d="M324.133,232.454c-17.403,0-31.562,14.159-31.562,31.562c0,17.403,14.159,31.562,31.562,31.562 c17.403,0,31.562-14.159,31.562-31.562C355.695,246.613,341.536,232.454,324.133,232.454z M324.133,280.548 c-9.116,0-16.532-7.416-16.532-16.532c0-9.116,7.417-16.532,16.532-16.532s16.532,7.417,16.532,16.532 C340.665,273.131,333.249,280.548,324.133,280.548z"></path></g></g><g><g><path d="M324.133,192.376c-4.151,0-7.515,3.365-7.515,7.515c0,4.15,3.364,7.515,7.515,7.515c31.215,0,56.611,25.396,56.611,56.611 c0,4.15,3.364,7.515,7.515,7.515s7.515-3.365,7.515-7.515C395.773,224.513,363.635,192.376,324.133,192.376z"></path></g></g><g><g><path d="M324.133,144.282c-4.151,0-7.515,3.365-7.515,7.515c0,4.15,3.364,7.515,7.515,7.515 c57.734,0,104.705,46.97,104.705,104.704c0,4.15,3.364,7.515,7.515,7.515s7.515-3.365,7.515-7.515 C443.867,197.994,390.155,144.282,324.133,144.282z"></path></g></g><g><g><path d="M324.133,88.172c-4.151,0-7.515,3.365-7.515,7.515s3.364,7.515,7.515,7.515c88.673,0,160.814,72.141,160.814,160.814 c0,4.15,3.364,7.515,7.515,7.515s7.515-3.365,7.515-7.515C499.977,167.055,421.093,88.172,324.133,88.172z"></path></g></g></svg>