<svg width="356" height="178" viewBox="0 0 356 178" fill="none" xmlns="http://www.w3.org/2000/svg">
<path d="M182.682 154.335C219.501 154.335 249.349 124.487 249.349 87.6674C249.349 50.848 219.501 21 182.682 21C145.863 21 116.015 50.848 116.015 87.6674C116.015 124.487 145.863 154.335 182.682 154.335Z" fill="#EFEFEF"/>
<path d="M219.892 139.518L137.99 156.255C136.27 156.586 134.616 155.528 134.285 153.807L125.42 110.475C125.089 108.754 126.147 107.1 127.868 106.77L209.704 90.0319C211.424 89.7011 213.078 90.7597 213.409 92.4798L222.274 135.813C222.671 137.467 221.546 139.121 219.892 139.518Z" fill="#FAFAFA"/>
<path d="M214.374 97.0654L126.356 115.088L128.294 124.55L216.312 106.528L214.374 97.0654Z" fill="#B3AFAB"/>
<path opacity="0.77" d="M207.782 134.025L202.027 135.216C200.505 135.547 198.984 134.554 198.653 132.967L197.462 127.211C197.131 125.689 198.124 124.168 199.711 123.837L205.467 122.646C206.989 122.315 208.51 123.308 208.841 124.896L210.032 130.651C210.296 132.239 209.304 133.761 207.782 134.025Z" fill="#CCE3F6"/>
<path d="M211.82 127.941L206.064 129.132C204.542 129.463 203.021 128.47 202.69 126.883L201.499 121.127C201.168 119.605 202.161 118.084 203.748 117.753L209.504 116.562C211.026 116.231 212.547 117.224 212.878 118.811L214.069 124.567C214.4 126.089 213.341 127.61 211.82 127.941Z" fill="#3393DD"/>
<path d="M161.394 129.238L138.19 133.989L138.801 136.97L162.004 132.219L161.394 129.238Z" fill="#B3B3B3"/>
<path d="M182.036 132.976L139.777 141.629L140.388 144.61L182.647 135.958L182.036 132.976Z" fill="#B3B3B3"/>
<path d="M238.024 112.92L155.99 98.5641C154.203 98.2333 153.012 96.5794 153.343 94.7932L161.811 46.5646C162.142 44.7783 163.796 43.5875 165.582 43.9183L247.617 58.2744C249.403 58.6052 250.594 60.2591 250.264 62.0454L241.795 110.274C241.531 112.06 239.811 113.251 238.024 112.92Z" fill="#CCE3F6"/>
<path d="M182.385 91.9519C191.739 91.9519 199.322 84.3693 199.322 75.0157C199.322 65.6621 191.739 58.0794 182.385 58.0794C173.032 58.0794 165.449 65.6621 165.449 75.0157C165.449 84.3693 173.032 91.9519 182.385 91.9519Z" fill="#C3F2F4"/>
<path d="M182.384 91.9509C191.737 91.9509 199.32 84.3683 199.32 75.0147C199.32 65.6611 191.737 58.0785 182.384 58.0785C173.03 58.0785 165.447 65.6611 165.447 75.0147C165.447 84.3683 173.03 91.9509 182.384 91.9509Z" fill="#F8F8FB"/>
<path d="M175.06 69.3022L171.968 86.9619L188.063 89.7807L191.156 72.121L175.06 69.3022Z" fill="#3A312E"/>
<path d="M191.181 71.9714C190.189 77.5947 185.822 81.498 181.324 80.7041C176.825 79.9102 174.046 74.75 175.039 69.1266C176.031 63.5032 180.331 60.1292 184.764 60.9231C189.262 61.717 192.173 66.348 191.181 71.9714Z" fill="#3A312E"/>
<path d="M189.726 85.2006C189.66 85.1344 189.594 85.0683 189.528 84.936C188.204 82.5543 185.293 80.6357 181.655 80.0403C177.685 79.3126 173.914 80.4373 171.996 82.6205C171.268 83.282 170.21 84.2744 169.085 85.5314C171.599 88.6408 175.171 90.9563 179.405 91.684C183.838 92.4779 188.138 91.4194 191.645 89.1039C190.586 86.7222 189.726 85.2006 189.726 85.2006Z" fill="#00B294"/>
<path d="M185.093 81.0335C185.093 81.0335 185.027 80.9673 184.961 80.9673C184.167 80.5042 183.637 80.1734 183.902 79.0487L184.63 75.0132L180.66 74.2854L179.933 78.2549C179.734 79.1811 179.602 79.4457 178.543 79.7103C177.749 79.7765 177.022 79.9088 176.294 80.1073C177.683 80.9011 179.337 81.5627 181.19 81.8935C183.108 82.2243 184.894 82.2243 186.482 81.8935C186.085 81.5627 185.556 81.2981 185.093 81.0335Z" fill="url(#paint0_radial)"/>
<path d="M180.528 74.8132L184.563 75.5408L183.505 81.6266L179.47 80.8989L180.528 74.8132Z" fill="url(#paint1_radial)"/>
<path d="M188.603 71.8364C187.941 75.4751 184.964 77.7906 181.987 77.2613C179.01 76.7321 176.959 73.5565 177.621 69.9179C178.282 66.2792 181.193 63.8314 184.236 64.3607C187.213 64.8899 189.198 68.1978 188.603 71.8364Z" fill="#BF8F68"/>
<path d="M182.05 61.9799C182.05 61.9799 181.454 64.5601 183.108 66.6109C184.167 67.8679 185.556 68.8603 186.614 69.6542C189.062 71.5066 187.938 74.0867 187.938 74.0867C187.938 74.0867 191.444 68.2649 188.136 63.9647C185.887 61.0537 182.05 61.9799 182.05 61.9799Z" fill="#3A312E"/>
<path d="M208.122 73.9983L207.597 76.9958L233.011 81.4466L233.536 78.449L208.122 73.9983Z" fill="#3393DD"/>
<path d="M206.84 81.7775L206.315 84.7751L227.233 88.4384L227.758 85.4408L206.84 81.7775Z" fill="#3393DD"/>
<path d="M206.864 63.6345C202.762 62.9067 199.984 59.0035 200.712 54.8356L203.556 38.6932L218.508 41.3395L215.663 57.4819C214.935 61.5836 210.966 64.3622 206.864 63.6345Z" fill="#3393DD"/>
<path d="M208.188 59.7975C210.197 59.7975 211.826 58.1686 211.826 56.1593C211.826 54.15 210.197 52.5211 208.188 52.5211C206.179 52.5211 204.55 54.15 204.55 56.1593C204.55 58.1686 206.179 59.7975 208.188 59.7975Z" fill="#3A312E"/>
<path d="M157.985 58.4329C157.915 58.3647 157.915 58.3647 157.915 58.2965C157.707 58.0919 157.569 57.8191 157.361 57.6146L157.291 57.5464C157.084 57.3418 156.945 57.1372 156.737 56.9326C156.737 56.9326 156.737 56.9326 156.668 56.8644C156.182 56.387 155.697 55.9097 155.212 55.4323C155.143 55.3641 155.004 55.2959 154.935 55.2277C154.45 54.8868 154.034 54.5458 153.549 54.2048L153.133 53.932C152.301 53.3865 151.4 52.9773 150.499 52.6363C150.36 52.5681 150.222 52.4999 150.014 52.4317C141.072 49.2266 131.161 53.7274 127.903 62.5928C126.309 66.8209 126.586 71.4581 128.457 75.4816L106 100.918L106.97 110.125H107.04L115.08 109.852C116.189 109.784 117.09 109.034 117.298 107.942L117.922 104.533L121.595 103.373C122.427 103.101 123.051 102.35 123.19 101.464L123.675 97.5086L127.626 96.4856C128.527 96.2811 129.15 95.5309 129.289 94.6444L129.913 90.8937L135.042 89.257L139.132 84.6197C139.27 84.6879 139.409 84.6879 139.547 84.7561C139.617 84.7561 139.686 84.7561 139.686 84.8243C139.894 84.8925 140.033 84.8925 140.241 84.9607C140.31 84.9607 140.31 84.9607 140.379 84.9607C140.518 85.0289 140.726 85.0289 140.934 85.0971C141.142 85.1653 141.28 85.1653 141.488 85.1653C141.557 85.1653 141.696 85.1653 141.765 85.2335C141.904 85.2335 141.973 85.2335 142.112 85.3017C142.32 85.3017 142.528 85.3699 142.736 85.3699H142.805H142.874L143.36 85.4381C143.568 85.4381 143.775 85.4381 143.983 85.4381C144.191 85.4381 144.399 85.4381 144.607 85.4381C144.677 85.4381 144.746 85.4381 144.815 85.4381C146.063 85.3699 147.31 85.2335 148.558 84.8925C148.558 84.8925 148.627 84.8925 148.697 84.8925H148.766C149.39 84.7561 150.014 84.5515 150.568 84.2788C150.568 84.2788 150.568 84.2788 150.637 84.2788C150.776 84.2106 150.984 84.1424 151.123 84.0742C153.479 83.0512 155.559 81.551 157.291 79.5733C162.421 73.2994 162.559 64.6386 157.985 58.4329ZM143.914 61.5017C145.578 59.5922 148.489 59.3876 150.43 61.0243L150.499 61.0925C151.469 61.9108 152.024 63.0701 152.093 64.2295C152.162 65.3888 151.816 66.6163 150.984 67.571C150.845 67.7756 150.637 67.912 150.43 68.0484C149.321 68.9349 147.865 69.2759 146.479 68.9349C145.924 68.8667 145.37 68.5939 144.884 68.3211C144.815 68.253 144.746 68.1848 144.677 68.1848C144.607 68.1166 144.469 68.0484 144.399 67.9802C142.459 66.2753 142.251 63.4111 143.914 61.5017Z" fill="#F7B548"/>
<defs>
<radialGradient id="paint0_radial" cx="0" cy="0" r="1" gradientUnits="userSpaceOnUse" gradientTransform="translate(182.576 75.819) scale(4.54546)">
<stop stop-color="#9B643D"/>
<stop offset="0.9997" stop-color="#BF8F68"/>
</radialGradient>
<radialGradient id="paint1_radial" cx="0" cy="0" r="1" gradientUnits="userSpaceOnUse" gradientTransform="translate(182.02 76.199) rotate(-170.067) scale(4.55308 4.46947)">
<stop stop-color="#9B643D"/>
<stop offset="0.8819" stop-color="#BA8A63" stop-opacity="0.1178"/>
<stop offset="0.9997" stop-color="#BF8F68" stop-opacity="0"/>
</radialGradient>
</defs>
</svg>
