<?xml version="1.0" encoding="UTF-8" standalone="no"?>
<!-- icon666.com - MILLIONS vector ICONS FREE -->

<svg
   id="Layer_1"
   viewBox="0 0 24 24"
   data-name="Layer 1"
   version="1.1"
   sodipodi:docname="play_speed.svg"
   inkscape:version="1.3.2 (091e20e, 2023-11-25, custom)"
   xmlns:inkscape="http://www.inkscape.org/namespaces/inkscape"
   xmlns:sodipodi="http://sodipodi.sourceforge.net/DTD/sodipodi-0.dtd"
   xmlns="http://www.w3.org/2000/svg"
   xmlns:svg="http://www.w3.org/2000/svg">
  <defs
     id="defs3" />
  <sodipodi:namedview
     id="namedview3"
     pagecolor="#ffffff"
     bordercolor="#000000"
     borderopacity="0.25"
     inkscape:showpageshadow="2"
     inkscape:pageopacity="0.0"
     inkscape:pagecheckerboard="0"
     inkscape:deskcolor="#d1d1d1"
     inkscape:zoom="5.9883106"
     inkscape:cx="8.9340724"
     inkscape:cy="-9.1010644"
     inkscape:window-width="1920"
     inkscape:window-height="1009"
     inkscape:window-x="-8"
     inkscape:window-y="-8"
     inkscape:window-maximized="1"
     inkscape:current-layer="Layer_1" />
  <path
     d="M 12.029591,0.0101476 A 12.386528,12.386454 0 0 0 10.32732,0.13253239 0.84668529,0.84668022 0 0 0 9.615259,1.078233 a 0.84779788,0.84779281 0 0 0 0.834447,0.7120569 0.37828252,0.37828025 0 0 0 0.11126,-0.011126 10.857821,10.857755 0 0 1 1.468625,-0.1001329 0.8344468,0.8344418 0 0 0 0,-1.6688834 z M 8.0131213,1.5566463 A 0.83444674,0.83444174 0 0 0 6.9005256,1.1561143 12.259692,12.259617 0 0 0 4.8644756,2.391088 0.83444674,0.83444174 0 0 0 4.6975862,3.5593064 0.80774444,0.8077396 0 0 0 5.3651436,3.8930832 0.84557269,0.84556763 0 0 0 5.8658117,3.7261948 9.6984963,9.6984381 0 0 1 7.6237128,2.6692353 0.83667193,0.83666691 0 0 0 8.0131213,1.5566463 Z M 3.5182348,4.7497767 A 0.84891049,0.84890539 0 0 0 2.3500094,4.9389167 12.73922,12.739144 0 0 0 1.1484061,6.9972064 0.84223491,0.84222986 0 0 0 1.5600665,8.1097954 0.96795821,0.96795242 0 0 0 1.9049712,8.1876766 0.82888376,0.82887879 0 0 0 2.6615362,7.6981375 10.223641,10.22358 0 0 1 3.7073761,5.9179951 0.84891049,0.84890539 0 0 0 3.5182348,4.7497767 Z M 1.8270895,10.646498 A 0.83559565,0.83559064 0 0 0 0.16932195,10.435106 11.731208,11.731138 0 0 0 0.06918835,11.97048 c 0,0.289272 0.01112595,0.56742 0.03337786,0.856693 a 0.8188704,0.81886549 0 0 0 0.82332078,0.767686 h 0.0667558 A 0.83333415,0.83332915 0 0 0 1.7603337,12.704788 c -0.011126,-0.24477 -0.022251,-0.48954 -0.022251,-0.734308 a 10.445048,10.444985 0 0 1 0.089007,-1.323982 z m 1.5465079,6.886926 a 9.7430001,9.7429417 0 0 1 -0.9345803,-1.824646 0.83474348,0.83473847 0 0 0 -1.55763394,0.600798 11.608823,11.608753 0 0 0 1.09034374,2.125045 0.83555933,0.83555432 0 0 0 0.7009352,0.389406 0.80218146,0.80217666 0 0 0 0.4450383,-0.133511 0.8433475,0.84334245 0 0 0 0.255897,-1.157092 z m 3.7271955,3.471278 A 11.179361,11.179294 0 0 1 5.3985215,19.84761 0.82908908,0.82908411 0 0 0 4.3304297,21.115961 12.127292,12.12722 0 0 0 6.299724,22.473319 0.82888376,0.82887879 0 0 0 7.4234456,22.139543 0.83778452,0.83777951 0 0 0 7.1007929,21.004702 Z m 4.9287981,1.257225 a 10.468413,10.46835 0 0 1 -2.0471754,-0.200266 0.83351915,0.83351416 0 1 0 -0.3226527,1.635506 11.971529,11.971458 0 0 0 2.3698281,0.233643 0.83444674,0.83444174 0 0 0 0,-1.668883 z"
     id="path1"
     style="stroke-width:1.11259;fill:#ffffff" />
  <path
     d="M 16.257455,10.386152 11.492208,6.9849679 A 1.9470424,1.9470307 0 0 0 8.4136557,8.5692947 v 6.8023693 a 1.9381416,1.93813 0 0 0 1.0569658,1.731188 1.9403669,1.9403552 0 0 0 2.0226985,-0.146861 l 4.764135,-3.401185 a 1.9470424,1.9470307 0 0 0 0,-3.168654 z"
     id="path2"
     style="stroke-width:1.11259;fill:#ffffff" />
  <path
     d="m 12.029591,23.93081 a 0.83444674,0.83444174 0 0 1 0,-1.668883 10.29151,10.291448 0 0 0 0,-20.5828959 0.83444675,0.83444175 0 0 1 0,-1.6688835 11.960403,11.960332 0 0 1 0,23.9206624 z"
     id="path3"
     style="stroke-width:1.11259;fill:#ffffff" />
</svg>
