<!-- icon666.com - MILLIONS vector ICONS FREE --><svg viewBox="0 -2 503.34902 503" xmlns="http://www.w3.org/2000/svg"><path d="m251.675781 460.210938c0 2.722656 1.296875 6.523437 2.859375 8.480468 33.160156 41.660156 72.117188 28.621094 87.058594-3.078125 2.601562-5.519531 8.460938-7.441406 13.121094-4.519531 14.078125 8.800781 31.460937 9.039062 46.21875-1.242188 15.519531-10.796874 24.140625-30.457031 24.039062-50.617187-.019531-6.382813 4.222656-11.621094 9.5-11.902344 15.859375-.859375 31.019532-11.160156 39.519532-28.960937 8.960937-18.699219 8.300781-40.9375-.136719-58.359375-2.660157-5.5-1.160157-12.597657 3.296875-16.039063 13.363281-10.300781 22.222656-28.359375 22.222656-48.917968 0-21.601563-9.800781-40.441407-24.320312-50.421876-4.582032-3.160156-6.222657-10.21875-3.78125-15.878906 7.300781-17 7.5-38-1.019532-55.800781-8.960937-18.71875-25.238281-29.121094-41.941406-29.019531-5.296875.019531-9.617188-5.101563-9.859375-11.460938-.71875-19.121094-9.238281-37.417968-24-47.699218-15.519531-10.800782-33.917969-9.980469-48.359375.199218-4.558594 3.21875-10.441406 1.398438-13.28125-3.980468-8.539062-16.140626-23.5-26.820313-40.539062-26.820313-16.25 0-30.648438 9.746094-39.339844 24.652344-.859375 1.46875-1.257813 3.160156-1.257813 4.859375v1.167968c0-2.597656-.683593-5.117187-1.960937-7.21875-8.761719-14.238281-22.820313-23.460937-38.640625-23.460937-17.039063 0-32 10.679687-40.539063 26.820313-2.839844 5.378906-8.722656 7.199218-13.28125 3.980468-14.441406-10.179687-32.839844-11-48.359375-.199218-14.761719 10.28125-23.28125 28.578124-24 47.699218-.242187 6.359375-4.5625 11.480469-9.859375 11.460938-16.703125-.101563-32.980468 10.300781-41.941406 29.019531-8.519531 17.800781-8.320312 38.800781-1.019531 55.800781 2.441406 5.660156.800781 12.71875-3.78125 15.878906-14.519531 9.980469-24.320313 28.820313-24.320313 50.421876 0 20.558593 8.859375 38.617187 22.222656 48.917968 4.457032 3.441406 5.957032 10.539063 3.296876 16.039063-8.4375 17.421875-9.097657 39.660156-.136719 58.359375 8.5 17.800781 23.660156 28.101562 39.519531 28.960937 5.277344.28125 9.519531 5.519531 9.5 11.902344-.101562 20.160156 8.519531 39.820313 24.039062 50.617187 14.761719 10.28125 32.140626 10.042969 46.21875 1.242188 4.660157-2.921875 10.519532-1 13.121094 4.519531 14.941406 31.699219 53.898438 44.738281 87.058594 3.078125 1.5625-1.957031 2.863281-5.757812 2.863281-8.480468" fill="#40c4df"></path><path d="m73.09375 122.953125c-8.519531 17.800781-8.320312 38.800781-1.019531 55.800781 2.441406 5.660156.800781 12.71875-3.78125 15.878906-14.519531 9.980469-24.320313 28.820313-24.320313 50.421876 0 20.558593 8.859375 38.617187 22.222656 48.917968 4.457032 3.441406 5.957032 10.539063 3.296876 16.039063-8.4375 17.421875-9.097657 39.660156-.136719 58.359375 8.5 17.800781 23.660156 28.101562 39.519531 28.960937 5.277344.28125 9.519531 5.519531 9.5 11.902344-.101562 20.160156 8.519531 39.820313 24.039062 50.617187 1.320313.921876 2.679688 1.761719 4.039063 2.5-13.660156 7.542969-30.039063 7.261719-44.039063-2.5-15.519531-10.796874-24.140624-30.457031-24.039062-50.617187.019531-6.382813-4.222656-11.621094-9.5-11.902344-15.859375-.859375-31.019531-11.160156-39.519531-28.960937-8.960938-18.699219-8.300781-40.9375.136719-58.359375 2.660156-5.5 1.160156-12.597657-3.296876-16.039063-13.363281-10.300781-22.222656-28.359375-22.222656-48.917968 0-21.601563 9.800782-40.441407 24.320313-50.421876 4.582031-3.160156 6.222656-10.21875 3.78125-15.878906-7.300781-17-7.5-38 1.019531-55.800781 8.960938-18.71875 25.238281-29.121094 41.941406-29.019531 5.296875.019531 9.617188-5.101563 9.859375-11.460938.71875-19.121094 9.238281-37.417968 24-47.699218 14-9.742188 30.359375-10.019532 44.039063-2.519532-1.359375.757813-2.71875 1.597656-4.039063 2.519532-14.761719 10.28125-23.28125 28.578124-24 47.699218-.242187 6.359375-4.5625 11.480469-9.859375 11.460938-16.703125-.101563-32.980468 10.300781-41.941406 29.019531zm0 0" fill="#1c868e"></path><path d="m473.855469 310.011719c8.4375 17.421875 9.097656 39.660156.136719 58.359375-8.5 17.800781-23.660157 28.101562-39.519532 28.960937-5.277344.28125-9.519531 5.519531-9.5 11.902344.101563 20.160156-8.519531 39.820313-24.039062 50.617187-1.320313.921876-2.679688 1.761719-4.039063 2.5-5.242187 2.921876-10.71875 4.582032-16.21875 5.101563-9 .859375-18-1.378906-25.960937-6.359375-4.660156-2.921875-10.519532-1-13.121094 4.519531-5.039062 10.699219-12.820312 19.28125-22.199219 24.320313-13.699219 7.417968-30.800781 7.320312-47.71875-4.640625-5.78125-4.101563-11.542969-9.558594-17.140625-16.601563-1.5625-1.957031-2.859375-5.757812-2.859375-8.480468 0 2.722656-1.300781 6.523437-2.863281 8.480468-8.078125 10.160156-16.519531 17.0625-24.859375 21.242188-25.199219 12.621094-49.597656.320312-61.277344-22.480469-.320312-.601563-.621093-1.21875-.921875-1.839844-2.601562-5.519531-8.460937-7.441406-13.121094-4.519531-.71875.4375-1.4375.878906-2.179687 1.257812-1.359375-.738281-2.71875-1.578124-4.039063-2.5-15.519531-10.796874-24.140624-30.457031-24.039062-50.617187.019531-6.382813-4.222656-11.621094-9.5-11.902344-15.859375-.859375-31.019531-11.160156-39.519531-28.960937-8.960938-18.699219-8.300781-40.9375.136719-58.359375 2.660156-5.5 1.160156-12.597657-3.296876-16.039063-13.363281-10.300781-22.222656-28.359375-22.222656-48.917968 0-21.601563 9.800782-40.441407 24.320313-50.421876 4.582031-3.160156 6.222656-10.21875 3.78125-15.878906-7.300781-17-7.5-38 1.019531-55.800781 8.960938-18.71875 25.238281-29.121094 41.941406-29.019531 5.296875.019531 9.617188-5.101563 9.859375-11.460938.71875-19.121094 9.238281-37.417968 24-47.699218 1.320313-.921876 2.679688-1.761719 4.039063-2.519532 1.480468.820313 2.921875 1.71875 4.320312 2.71875 4.558594 3.21875 10.441406 1.398438 13.28125-3.980468.71875-1.378907 1.5-2.71875 2.320313-4h.019531c8.757812-13.878907 22.617188-22.820313 38.199219-22.820313 7.140625 0 13.917969 1.882813 20 5.261719 7.417969 4.078125 13.820312 10.378906 18.640625 18.199218 1.277344 2.101563 1.960937 4.621094 1.960937 7.21875v-1.160156c0-1.699218.398438-3.398437 1.257813-4.859375 4.761718-8.160156 11.199218-14.757812 18.742187-19.058593 6.238281-3.601563 13.238281-5.601563 20.597657-5.601563 7.140624 0 13.902343 1.882813 20 5.261719 8.441406 4.640625 15.582031 12.179687 20.539062 21.558594 2.839844 5.378906 8.722656 7.199218 13.28125 3.980468 7.398438-5.21875 15.820312-7.980468 24.378906-7.980468h.019532c6.722656 0 13.5 1.71875 19.921874 5.261718 1.359376.757813 2.71875 1.597656 4.039063 2.519532 14.761719 10.28125 23.28125 28.578124 24 47.699218.242187 6.359375 4.5625 11.480469 9.859375 11.460938 16.703125-.101563 32.980469 10.300781 41.941406 29.019531 8.519532 17.800781 8.320313 38.800781 1.019532 55.800781-2.441407 5.660156-.800782 12.71875 3.78125 15.878906 14.519531 9.980469 24.320312 28.820313 24.320312 50.421876 0 20.558593-8.859375 38.617187-22.222656 48.917968-4.457032 3.441406-5.957032 10.539063-3.296875 16.039063zm0 0" fill="#40c4df"></path><path d="m295.675781 198.492188h-88c-5.523437 0-10 4.480468-10 10v88c0 5.523437 4.476563 10 10 10h88c5.519531 0 10-4.476563 10-10v-88c0-5.519532-4.480469-10-10-10zm0 0" fill="#fff"></path><path d="m269.925781 224.242188h-36.5c-5.523437 0-10 4.480468-10 10v36.5c0 5.523437 4.476563 10 10 10h36.5c5.519531 0 10-4.476563 10-10v-36.5c0-5.519532-4.480469-10-10-10zm0 0" fill="#7befe4"></path><g fill="#491352"><path d="m479.597656 297.140625c32.835938-25.320313 31.199219-82.792969-2.273437-105.800781-2.972657-2.054688-4.0625-7.09375-2.375-11.007813 17.972656-41.851562-7.867188-90.398437-46.382813-90.398437-.09375 0-.167968.011718-.28125 0-2.621094 0-4.90625-2.511719-5.605468-5.871094-.015626-.28125-.054688-.554688-.125-.820312-.039063-.304688-.089844-.605469-.101563-.917969-1.78125-47.367188-45.113281-74.273438-78.664063-50.621094-1.109374.78125-2.339843 1.039063-3.5625.746094-1.542968-.371094-2.953124-1.582031-3.875-3.328125-17.214843-32.53125-53.996093-37.996094-77.453124-14.601563-4.03125 4.019531-10.414063 4.023438-14.445313.003907-23.464844-23.386719-60.234375-17.949219-77.457031 14.601562-.921875 1.742188-2.332032 2.953125-3.875 3.324219-1.234375.292969-2.457032.035156-3.5625-.746094-33.660156-23.726563-76.882813 3.40625-78.664063 50.621094-.15625 4.199219-2.773437 7.609375-5.824219 7.609375-.050781 0-.183593 0-.277343 0-38.746094 0-64.277344 48.753906-46.394531 90.40625 1.53125 3.539062.804687 8.808594-2.371094 11-33.558594 23.0625-35.035156 80.542968-2.28125 105.804687 2.972656 2.289063 3.957031 7.386719 2.144531 11.125-19.335937 39.921875 3.339844 90.921875 42.765625 93.058594 3.164062.167969 5.726562 3.707031 5.714844 7.882813-.230469 46.429687 41.1875 77.269531 76.386718 55.269531 1.179688-.742188 2.476563-.933594 3.734376-.566407 1.527343.449219 2.816406 1.65625 3.636718 3.402344 17.09375 36.265625 59.890625 46.144532 93.542969 4.203125 32.5625 40.585938 75.753906 33.535157 93.539063-4.203125.820312-1.746094 2.113281-2.957031 3.636718-3.402344 1.269532-.371093 2.554688-.171874 3.742188.570313 35.363281 22.101563 76.609375-9.109375 76.378906-55.265625-.011719-4.183594 2.550781-7.722656 5.71875-7.890625 39.617188-2.148437 62.003906-53.332031 42.761719-93.058594-1.804688-3.742187-.824219-8.835937 2.148437-11.128906zm-9.34375 14.617187c16.964844 35.023438-2.648437 79.773438-35.992187 81.582032-.21875.011718-.429688.046875-.644531.070312-.121094-.003906-.179688 0-.269532 0-11.640625 0-19.882812-2.578125-25.183594-7.875-5.238281-5.234375-7.765624-13.53125-7.722656-25.363281.007813-2.207031-1.78125-4.003906-3.988281-4.011719-.003906 0-.007813 0-.011719 0-2.207031 0-3.992187 1.78125-4 3.984375-.050781 14.074219 3.246094 24.226563 10.070313 31.050781 5.054687 5.050782 11.867187 8.179688 20.625 9.492188-1.378907 2.476562-2.171875 5.414062-2.160157 8.5625.199219 40.261719-34.570312 66.941406-64.136718 48.449219-3.132813-1.957031-6.765625-2.476563-10.238282-1.460938-3.699218 1.085938-6.839843 3.878907-8.625 7.667969-14.78125 31.367188-50.59375 39.628906-80.3125 2.296875-1.023437-1.289063-1.988281-4.199219-1.988281-5.992187 0-2.207032-1.792969-4-4-4s-4 1.792968-4 4c0 1.792968-.964843 4.703124-1.988281 5.988281-29.5625 37.136719-65.449219 29.246093-80.3125-2.289063-1.785156-3.792968-4.925781-6.585937-8.625-7.667968-3.46875-1.015626-7.109375-.5-10.234375 1.457031-29.84375 18.65625-64.335937-8.550781-64.140625-48.453125.011719-3.242188-.832031-6.257813-2.285156-8.777344 8.394531-1.378906 14.980468-4.453125 19.890625-9.359375 6.828125-6.820313 10.125-16.980469 10.074219-31.050781-.007813-2.203125-1.792969-3.984375-4-3.984375-.003907 0-.007813 0-.011719 0-2.210938.007812-3.996094 1.800781-3.988281 4.011719.042968 11.832031-2.488282 20.128906-7.726563 25.367187-5.339844 5.335937-13.632813 7.832031-25.445313 7.871094-33.519531-2.011719-52.570312-46.917969-35.78125-81.566407 3.457032-7.152343 1.5-16.355468-4.460937-20.949218-28.398437-21.894532-27.242187-72.828125 1.929687-92.878906 2.398438-1.65625 4.199219-4.074219 5.3125-6.847657 7.78125 6.273438 15.433594 9.351563 23.226563 9.355469h.011719c9.648437 0 19.15625-4.851562 29.070312-14.835938 1.554688-1.566406 1.546875-4.097656-.019531-5.65625-1.566406-1.554687-4.101563-1.546874-5.65625.023438-8.335937 8.390625-15.988281 12.46875-23.394531 12.46875-.003906 0-.003906 0-.007813 0-7.902343-.003906-19.058593-5.28125-23.359375-15.261719-15.738281-36.644531 6.441406-79.242187 39.046875-79.242187h.261719c2.199219 0 4.265625-.597656 6.113281-1.648438 1.320313 8.691406 4.433594 15.464844 9.457031 20.492188 6.773438 6.777344 16.832032 10.074218 30.746094 10.074218h.304688c2.207031-.007812 3.996094-1.800781 3.988281-4.011718-.011719-2.207032-1.796875-3.988282-4-3.988282-.101563 0-.203125 0-.296875 0-11.679688 0-19.886719-2.527343-25.082031-7.726562-5.277344-5.28125-7.84375-13.496094-7.859375-25.074219.25-1.101562.414062-2.242187.457031-3.429687 1.507813-40.101563 37.128906-64.777344 66.054687-44.378906 2.996094 2.113281 6.5625 2.824218 10.039063 1.988281 3.78125-.90625 7.089844-3.59375 9.082031-7.367188 16.632813-31.425781 53.707032-33.265625 72.230469-3.148437.898437 1.476562 1.378906 3.253906 1.378906 5.136718 0 2.210938 1.789063 4 4 4 2.207031 0 4-1.789062 4-4v-1.167968c0-1.0625.246094-2.042969.710938-2.84375 18.058593-30.964844 55.898437-30.089844 72.890625 2.019531 1.992187 3.777344 5.300781 6.464844 9.082031 7.371094 3.480469.832031 7.042969.125 10.039063-1.988281 29.148437-20.550782 64.5625 4.574218 66.054687 44.382812.027344.742188.113281 1.464844.226563 2.175781-.035157 11.515625-2.601563 19.699219-7.859376 24.960938-5.195312 5.199219-13.398437 7.730469-25.082031 7.730469-.097656 0-.1875.007812-.292969 0-2.207031 0-3.992187 1.78125-4 3.984374-.007812 2.207032 1.777344 4.007813 3.984376 4.015626h.304687c13.914063 0 23.972656-3.296876 30.746094-10.074219 4.804687-4.808594 7.84375-11.234375 9.261719-19.378907 1.949218 1.207032 4.179687 1.894532 6.550781 1.894532.09375-.003906.175781 0 .261719 0 32.804687 0 54.679687 42.832031 39.046874 79.238281-2.449218 5.679687-13.992187 13.898437-23.59375 13.902344-.003906 0-.007812 0-.007812 0-7.40625 0-15.058594-4.082031-23.394531-12.472657-1.554688-1.570312-4.089844-1.578124-5.65625-.019531-1.566407 1.554688-1.574219 4.085938-.019531 5.65625 9.914062 9.980469 19.421874 14.832031 29.070312 14.832031h.011719c7.722656-.003906 15.308593-3.03125 23.019531-9.195312 1.050781 3.273438 3.011719 6.15625 5.757812 8.050781 29.109376 20.011719 30.382813 70.933594 1.921876 92.878907-5.960938 4.597656-7.917969 13.796874-4.457032 20.953124zm0 0"></path><path d="m347.414062 341.902344c-13.199218 0-23.9375-10.738282-23.9375-23.941406 0-2.207032-1.789062-4-4-4-2.207031 0-4 1.792968-4 4 0 17.613281 14.328126 31.941406 31.9375 31.941406 2.210938 0 4-1.792969 4-4 0-2.210938-1.789062-4-4-4zm0 0"></path><path d="m298.515625 98.25c1.867187 15.84375 15.355469 28.179688 31.695313 28.179688 2.207031 0 4-1.792969 4-4 0-2.207032-1.792969-4-4-4-11.945313 0-21.847657-8.808594-23.628907-20.265626 15.574219-2.113281 27.628907-15.464843 27.628907-31.609374 0-2.210938-1.792969-4-4-4-2.210938 0-4 1.789062-4 4 0 13.199218-10.738282 23.9375-23.9375 23.9375-13.203126 0-23.941407-10.738282-23.941407-23.9375 0-2.210938-1.789062-4-4-4-2.207031 0-4 1.789062-4 4 .003907 16.339843 12.339844 29.828124 28.183594 31.695312zm0 0"></path><path d="m452.3125 243.832031c2.207031 0 4-1.792969 4-4 0-2.210937-1.792969-4-4-4-16.339844 0-29.828125 12.335938-31.695312 28.175781-15.84375 1.867188-28.179688 15.359376-28.179688 31.695313 0 2.210937 1.792969 4 4 4s4-1.789063 4-4c0-11.945313 8.804688-21.847656 20.265625-23.625 2.113281 15.574219 15.464844 27.625 31.609375 27.625 2.210938 0 4-1.789063 4-4 0-2.207031-1.789062-4-4-4-13.199219 0-23.9375-10.734375-23.9375-23.9375 0-13.199219 10.738281-23.933594 23.9375-23.933594zm0 0"></path><path d="m307.171875 366.851562c-1.570313-1.558593-4.105469-1.546874-5.65625.023438-8.320313 8.386719-16.042969 12.464844-23.605469 12.46875h-.003906c-7.410156 0-15.058594-4.078125-23.394531-12.472656-1.554688-1.566406-4.089844-1.578125-5.65625-.019532-.21875.21875-9.585938 13.855469-23.644531 13.855469-.003907 0-.003907 0-.007813 0-7.5625-.003906-15.28125-4.082031-23.601563-12.46875-1.550781-1.566406-4.085937-1.578125-5.65625-.023437-1.566406 1.554687-1.578124 4.089844-.023437 5.65625 9.898437 9.980468 19.472656 14.832031 29.277344 14.835937h.011719c9.003906 0 17.890624-4.230469 27.089843-12.90625 8.675781 7.753907 17.085938 11.542969 25.605469 11.542969h.011719c9.800781-.003906 19.378906-4.855469 29.277343-14.835938 1.554688-1.570312 1.542969-4.101562-.023437-5.65625zm0 0"></path><path d="m345.015625 404.5c-.105469 0-.207031 0-.308594 0-13.910156 0-23.972656 3.296875-30.746093 10.074219-6.929688 6.933593-10.269532 17.136719-10.210938 31.195312.011719 2.203125 1.800781 3.984375 4 3.984375h.019531c2.207031-.007812 3.992188-1.808594 3.980469-4.015625-.046875-11.816406 2.527344-20.160156 7.875-25.503906 5.195312-5.203125 13.398438-7.730469 25.082031-7.730469.097657 0 .226563-.003906.292969 0 2.207031 0 3.992188-1.78125 4-3.988281s-1.777344-4.007813-3.984375-4.015625zm0 0"></path><path d="m400.066406 200.097656c2.207032 0 3.992188-1.78125 4-3.988281.007813-2.207031-1.777344-4.003906-3.984375-4.011719-.105469 0-.207031 0-.304687 0-13.914063 0-23.972656 3.296875-30.746094 10.074219-6.929688 6.933594-10.269531 17.136719-10.210938 31.191406.007813 2.207031 1.796876 3.984375 4 3.984375h.015626c2.210937-.007812 3.992187-1.808594 3.984374-4.015625-.046874-11.8125 2.527344-20.15625 7.871094-25.503906 5.195313-5.199219 13.402344-7.730469 25.082032-7.730469.097656 0 .1875-.003906.292968 0zm0 0"></path><path d="m187.636719 319.324219c0-2.207031-1.792969-4-4-4s-4 1.792969-4 4c0 13.199219-10.738281 23.9375-23.9375 23.9375-2.210938 0-4 1.792969-4 4 0 2.210937 1.789062 4 4 4 17.609375 0 31.9375-14.328125 31.9375-31.9375zm0 0"></path><path d="m172.902344 119.792969c-2.207032 0-4 1.792969-4 4s1.792968 4 4 4c16.339844 0 29.828125-12.335938 31.699218-28.179688 15.84375-1.867187 28.175782-15.359375 28.175782-31.695312 0-2.207031-1.792969-4-4-4-2.207032 0-4 1.792969-4 4 0 13.199219-10.738282 23.9375-23.9375 23.9375-13.199219 0-23.9375-10.738281-23.9375-23.9375 0-2.207031-1.792969-4-4-4-2.207032 0-4 1.792969-4 4 0 16.144531 12.050781 29.496093 27.625 31.613281-1.773438 11.457031-11.675782 20.261719-23.625 20.261719zm0 0"></path><path d="m82.5 265.371094c-1.867188-15.839844-15.359375-28.175782-31.695312-28.175782-2.207032 0-4 1.792969-4 4 0 2.207032 1.792968 4 4 4 13.199218 0 23.9375 10.738282 23.9375 23.9375 0 13.199219-10.738282 23.9375-23.9375 23.9375-2.207032 0-4 1.792969-4 4 0 2.207032 1.792968 4 4 4 16.144531 0 29.496093-12.050781 31.609374-27.625 11.460938 1.777344 20.265626 11.675782 20.265626 23.625 0 2.207032 1.792968 4 4 4 2.207031 0 4-1.792968 4-4 0-16.335937-12.335938-29.828124-28.179688-31.699218zm0 0"></path><path d="m158.101562 405.863281c-2.207031.007813-3.992187 1.804688-3.984374 4.015625.007812 2.207032 1.792968 3.984375 4 3.984375h.011718c11.886719.007813 20.128906 2.488281 25.367188 7.726563 5.347656 5.347656 7.917968 13.691406 7.871094 25.507812-.007813 2.207032 1.773437 4.007813 3.984374 4.015625h.015626c2.203124 0 3.992187-1.78125 4-3.984375.058593-14.054687-3.285157-24.261718-10.210938-31.195312-6.824219-6.824219-17.042969-10.039063-31.054688-10.070313zm0 0"></path><path d="m103.035156 193.457031c-2.210937.011719-3.996094 1.804688-3.988281 4.015625.007813 2.207032 1.796875 3.984375 4 3.984375.097656-.007812.199219 0 .296875 0 11.679688 0 19.886719 2.53125 25.082031 7.730469 5.347657 5.347656 7.921875 13.691406 7.871094 25.503906-.007813 2.210938 1.773437 4.007813 3.984375 4.015625h.015625c2.203125 0 3.992187-1.777343 4-3.980469.058594-14.058593-3.28125-24.261718-10.207031-31.195312-6.824219-6.828125-16.96875-10.113281-31.054688-10.074219zm0 0"></path><path d="m161.675781 274.992188c-2.210937 0-4 1.792968-4 4 0 2.207031 1.789063 4 4 4h32v13.5c0 7.71875 6.28125 14 14 14h13.5v32c0 2.207031 1.789063 4 4 4 2.207031 0 4-1.792969 4-4v-32h18.5v32c0 2.207031 1.789063 4 4 4 2.207031 0 4-1.792969 4-4v-32h18.5v32c0 2.207031 1.789063 4 4 4 2.207031 0 4-1.792969 4-4v-32h13.5c7.714844 0 14-6.28125 14-14v-13.5h32c2.207031 0 4-1.792969 4-4 0-2.207032-1.792969-4-4-4h-32v-18.5h32c2.207031 0 4-1.792969 4-4 0-2.207032-1.792969-4-4-4h-32v-18.5h32c2.207031 0 4-1.792969 4-4 0-2.207032-1.792969-4-4-4h-32v-13.5c0-7.71875-6.285156-14-14-14h-13.5v-32c0-2.207032-1.792969-4-4-4-2.210937 0-4 1.792968-4 4v32h-18.5v-32c0-2.207032-1.792969-4-4-4-2.210937 0-4 1.792968-4 4v32h-18.5v-32c0-2.207032-1.792969-4-4-4-2.210937 0-4 1.792968-4 4v32h-13.5c-7.71875 0-14 6.28125-14 14v13.5h-32c-2.210937 0-4 1.792968-4 4 0 2.207031 1.789063 4 4 4h32v18.5h-32c-2.210937 0-4 1.792968-4 4 0 2.207031 1.789063 4 4 4h32v18.5zm40-66.5c0-3.308594 2.691407-6 6-6h88c3.304688 0 6 2.691406 6 6v88c0 3.308593-2.695312 6-6 6h-88c-3.308593 0-6-2.691407-6-6zm0 0"></path><path d="m233.425781 284.742188h36.5c7.714844 0 14-6.28125 14-14v-36.5c0-7.71875-6.285156-14-14-14h-36.5c-7.71875 0-14 6.28125-14 14v36.5c0 7.71875 6.28125 14 14 14zm-6-50.5c0-3.308594 2.691407-6 6-6h36.5c3.304688 0 6 2.691406 6 6v36.5c0 3.308593-2.695312 6-6 6h-36.5c-3.308593 0-6-2.691407-6-6zm0 0"></path></g></svg>