<!-- icon666.com - MILLIONS vector ICONS FREE --><svg id="icons" enable-background="new 0 0 64 64" viewBox="0 0 64 64" xmlns="http://www.w3.org/2000/svg"><g><g><path d="m23.506 62v1h-4v-1c0-1.101.9-2 2-2 1.11 0 2 .899 2 2z" fill="#656d78"></path></g><g><path d="m19.506 49v8h-4v-5z" fill="#ed5565"></path></g><g><path d="m21.506 8h8v8.99h-8z" fill="#e6e9ed"></path></g><g><path d="m27.506 62v1h-4v-1c0-1.101.9-2 2-2 1.11 0 2 .899 2 2z" fill="#656d78"></path></g><g><path d="m27.506 62c0-1.101.9-2 2-2 1.11 0 2 .899 2 2v1h-4z" fill="#656d78"></path></g><g><path d="m29.506 60c-1.1 0-2 .899-2 2 0-1.101-.89-2-2-2-1.1 0-2 .899-2 2 0-1.101-.89-2-2-2-1.1 0-2 .899-2 2v-5h6 6v5c0-1.101-.89-2-2-2z" fill="#ccd1d9"></path></g><g><path d="m29.506 8h-8v-.891c0-2.739 1.65-5.08 4-6.109 2.36 1.029 4 3.37 4 6.109z" fill="#656d78"></path></g><g><path d="m29.506 16.99 2 4h-12l2-4z" fill="#ccd1d9"></path></g><g><path d="m35.506 52v5h-4v-8z" fill="#ed5565"></path></g><g><path d="m25.506 57h-6v-8-28.01h12v28.01 8z" fill="#e6e9ed"></path></g></g><g><g><path d="m29.504 8.1c-.553 0-1-.447-1-1 0-2.102-1.164-4.018-3-4.997-1.836.98-3 2.896-3 4.997 0 .553-.447 1-1 1s-1-.447-1-1c0-3.045 1.806-5.802 4.6-7.023.254-.111.545-.111.801 0 2.794 1.221 4.6 3.978 4.6 7.023-.001.552-.448 1-1.001 1z"></path></g><g><path d="m52.49 63.992h-40.98c-.553 0-1-.447-1-1s.447-1 1-1h40.98c.553 0 1 .447 1 1s-.447 1-1 1z"></path></g><g><path d="m21.506 17.988c-.553 0-1-.447-1-1v-9.888c0-.553.447-1 1-1s1 .447 1 1v9.889c0 .552-.447.999-1 .999z"></path></g><g><path d="m29.504 17.988c-.553 0-1-.447-1-1v-9.888c0-.553.447-1 1-1s1 .447 1 1v9.889c0 .552-.447.999-1 .999z"></path></g><g><path d="m19.505 21.988c-.15 0-.303-.034-.446-.105-.494-.247-.694-.848-.447-1.342l2-4c.248-.494.849-.692 1.342-.447.494.247.694.848.447 1.342l-2 4c-.176.35-.529.552-.896.552z"></path></g><g><path d="m31.507 21.988c-.367 0-.72-.202-.896-.553l-2-4c-.247-.494-.047-1.095.447-1.342.494-.245 1.095-.047 1.342.447l2 4c.247.494.047 1.095-.447 1.342-.143.072-.296.106-.446.106z"></path></g><g><path d="m29.506 17.988h-8c-.553 0-1-.447-1-1s.447-1 1-1h8c.553 0 1 .447 1 1s-.447 1-1 1z"></path></g><g><path d="m19.506 63.99c-.553 0-1-.447-1-1v-42.002c0-.553.447-1 1-1s1 .447 1 1v42.002c0 .553-.447 1-1 1z"></path></g><g><path d="m31.506 63.99c-.553 0-1-.447-1-1v-42.002c0-.553.447-1 1-1s1 .447 1 1v42.002c0 .553-.447 1-1 1z"></path></g><g><path d="m29.504 8.992h-8c-.553 0-1-.447-1-1s.447-1 1-1h8c.553 0 1 .447 1 1s-.447 1-1 1z"></path></g><g><path d="m23.506 62.994c-.553 0-1-.447-1-1 0-.552-.448-1-1-1s-1 .448-1 1c0 .553-.447 1-1 1s-1-.447-1-1c0-1.654 1.346-3 3-3s3 1.346 3 3c0 .553-.447 1-1 1z"></path></g><g><path d="m27.506 62.994c-.553 0-1-.447-1-1 0-.552-.448-1-1-1s-1 .448-1 1c0 .553-.447 1-1 1s-1-.447-1-1c0-1.654 1.346-3 3-3s3 1.346 3 3c0 .553-.447 1-1 1z"></path></g><g><path d="m31.506 62.994c-.553 0-1-.447-1-1 0-.552-.448-1-1-1s-1 .448-1 1c0 .553-.447 1-1 1s-1-.447-1-1c0-1.654 1.346-3 3-3s3 1.346 3 3c0 .553-.447 1-1 1z"></path></g><g><path d="m23.506 63.992c-.553 0-1-.447-1-1v-.998c0-.553.447-1 1-1s1 .447 1 1v.998c0 .553-.447 1-1 1z"></path></g><g><path d="m27.506 63.992c-.553 0-1-.447-1-1v-.998c0-.553.447-1 1-1s1 .447 1 1v.998c0 .553-.447 1-1 1z"></path></g><g><path d="m31.506 57.994h-12c-.553 0-1-.447-1-1s.447-1 1-1h12c.553 0 1 .447 1 1s-.447 1-1 1z"></path></g><g><path d="m25.506 57.996c-.553 0-1-.447-1-1v-8.004c0-.553.447-1 1-1s1 .447 1 1v8.004c0 .553-.447 1-1 1z"></path></g><g><path d="m15.506 57.996c-.553 0-1-.447-1-1v-5c0-.553.447-1 1-1s1 .447 1 1v5c0 .553-.447 1-1 1z"></path></g><g><path d="m15.507 52.996c-.304 0-.604-.138-.801-.399-.331-.441-.242-1.068.199-1.4l4-3.004c.441-.33 1.07-.242 1.4.199.331.441.242 1.068-.199 1.4l-4 3.004c-.179.135-.39.2-.599.2z"></path></g><g><path d="m35.506 57.996c-.553 0-1-.447-1-1v-5c0-.553.447-1 1-1s1 .447 1 1v5c0 .553-.447 1-1 1z"></path></g><g><path d="m35.505 52.996c-.209 0-.42-.065-.6-.2l-4-3.004c-.441-.332-.53-.959-.199-1.4.331-.442.96-.53 1.4-.199l4 3.004c.441.332.53.959.199 1.4-.196.261-.496.399-.8.399z"></path></g><g><path d="m19.506 57.996h-4c-.553 0-1-.447-1-1s.447-1 1-1h4c.553 0 1 .447 1 1s-.447 1-1 1z"></path></g><g><path d="m35.506 57.996h-4c-.553 0-1-.447-1-1s.447-1 1-1h4c.553 0 1 .447 1 1s-.447 1-1 1z"></path></g><g><path d="m31.506 21.988h-12c-.553 0-1-.447-1-1s.447-1 1-1h12c.553 0 1 .447 1 1s-.447 1-1 1z"></path></g><g><path d="m25.506 40.994c-.553 0-1-.447-1-1v-10c0-.553.447-1 1-1s1 .447 1 1v10c0 .553-.447 1-1 1z"></path></g><g><path d="m46.502 21.988h-14.996c-.553 0-1-.447-1-1s.447-1 1-1h14.996c.553 0 1 .447 1 1s-.447 1-1 1z"></path></g><g><path d="m46.502 64.008c-.553 0-1-.447-1-1v-42.02c0-.553.447-1 1-1s1 .447 1 1v42.02c0 .553-.447 1-1 1z"></path></g><g><path d="m40.5 64.008c-.553 0-1-.448-1-1l.002-42.02c0-.553.448-1 1-1 .553 0 1 .448 1 1l-.002 42.02c0 .553-.448 1-1 1z"></path></g><g><path d="m40.5 27.99c-.256 0-.512-.098-.707-.293-.391-.391-.391-1.023 0-1.414l6.002-6.002c.391-.391 1.023-.391 1.414 0s.391 1.023 0 1.414l-6.002 6.002c-.195.196-.451.293-.707.293z"></path></g><g><path d="m46.504 33.992c-.256 0-.512-.098-.707-.293l-6.002-6.002c-.391-.391-.391-1.023 0-1.414s1.023-.391 1.414 0l6.002 6.002c.391.391.391 1.023 0 1.414-.195.196-.451.293-.707.293z"></path></g><g><path d="m40.5 39.996c-.256 0-.512-.098-.707-.293-.391-.391-.391-1.023 0-1.414l6.002-6.002c.391-.391 1.023-.391 1.414 0s.391 1.023 0 1.414l-6.002 6.002c-.195.195-.451.293-.707.293z"></path></g><g><path d="m46.504 45.998c-.256 0-.512-.098-.707-.293l-6.002-6.002c-.391-.391-.391-1.023 0-1.414s1.023-.391 1.414 0l6.002 6.002c.391.391.391 1.023 0 1.414-.195.195-.451.293-.707.293z"></path></g><g><path d="m40.5 52.002c-.256 0-.512-.098-.707-.293-.391-.391-.391-1.023 0-1.414l6.002-6.002c.391-.391 1.023-.391 1.414 0s.391 1.023 0 1.414l-6.002 6.002c-.195.195-.451.293-.707.293z"></path></g><g><path d="m46.504 58.004c-.256 0-.512-.098-.707-.293l-6.002-6.002c-.391-.391-.391-1.023 0-1.414s1.023-.391 1.414 0l6.002 6.002c.391.391.391 1.023 0 1.414-.195.195-.451.293-.707.293z"></path></g><g><path d="m40.5 64.008c-.256 0-.512-.098-.707-.293-.391-.391-.391-1.023 0-1.414l6.002-6.002c.391-.391 1.023-.391 1.414 0s.391 1.023 0 1.414l-6.002 6.002c-.195.195-.451.293-.707.293z"></path></g></g></svg>