<!-- icon666.com - MILLIONS vector ICONS FREE --><svg version="1.1" id="Layer_1" xmlns="http://www.w3.org/2000/svg" xmlns:xlink="http://www.w3.org/1999/xlink" x="0px" y="0px" viewBox="0 0 473.654 473.654" style="enable-background:new 0 0 473.654 473.654;" xml:space="preserve"><circle style="fill:#344E5D;" cx="236.827" cy="236.827" r="236.827"></circle><path style="fill:#E84849;" d="M257.675,381.837c0,9.801-7.954,17.755-17.756,17.755H108.253c-9.809,0-17.756-7.954-17.756-17.755 l63.311-122.426c0-9.801,7.939-17.748,17.756-17.748h5.048c9.809,0,17.755,7.947,17.755,17.748L257.675,381.837z"></path><path style="fill:#DB3F3E;" d="M248.831,378.265c0,9.226-7.105,16.72-15.871,16.72H115.209c-8.758,0-15.863-7.494-15.863-16.72 l18.238-37.149c0,0-1.021-9.072,37.227-3.324c38.237,5.755,71.037-6.339,71.037-6.339L248.831,378.265z"></path><g><path style="fill:#E84849;" d="M190.621,259.841c0,5.026-2.453,9.102-5.486,9.102h-22.651c-3.04,0-5.493-4.076-5.493-9.102v-84.926 c0-5.03,2.453-9.106,5.493-9.106h22.651c3.033,0,5.486,4.076,5.486,9.106V259.841z"></path><path style="fill:#E84849;" d="M173.819,148.671c-19.135,0-26.719,2.247-26.719,9.895c0,0.221,0.06,0.438,0.079,0.658 c0.86,7.337,8.063,21.11,26.637,21.11c18.56,0,25.754-13.773,26.615-21.11c0.03-0.221,0.079-0.438,0.079-0.658 C200.516,150.914,192.943,148.671,173.819,148.671z"></path></g><path style="fill:#DC3A3A;" d="M173.819,161.856c14.338,0,20.025-1.683,20.025-7.416c0-1.735-5.37-3.953-19.057-3.953 c-13.679,0-21.02,1.234-21.02,3.953C153.771,160.173,159.467,161.856,173.819,161.856z"></path><circle style="fill:#CBE9E6;" cx="175.386" cy="117.355" r="20.687"></circle><path style="fill:#DFF1EF;" d="M159.141,119.898c-3.295-3.867,1.425-13.47,5.288-16.753c3.87-3.302,12.812-6.006,16.091-2.135 C183.826,104.869,162.425,123.769,159.141,119.898z"></path><circle style="fill:#CBE9E6;" cx="160.615" cy="71.833" r="14.775"></circle><path style="fill:#DFF1EF;" d="M149.022,73.658c-2.36-2.764,1.013-9.629,3.777-11.97c2.76-2.356,9.158-4.289,11.503-1.518 C166.662,62.918,151.374,76.418,149.022,73.658z"></path><circle style="fill:#CBE9E6;" cx="204.143" cy="82.719" r="15.964"></circle><path style="fill:#DFF1EF;" d="M191.62,84.686c-2.55-2.984,1.096-10.389,4.084-12.931c2.988-2.539,9.891-4.622,12.415-1.642 C210.661,73.094,194.162,87.671,191.62,84.686z"></path><path style="fill:#E84849;" d="M195.023,253.035c0,6.01-1.855,10.882-4.17,10.882h-34.176c-2.307,0-4.177-4.873-4.177-10.882l0,0 c0-6.002,1.87-10.875,4.177-10.875h34.176C193.168,242.16,195.023,247.029,195.023,253.035L195.023,253.035z"></path><g><path style="fill:#FFFFFF;" d="M161.894,187.255c-1.148,0-2.098-0.83-2.154-1.888c-0.052-1.096,0.868-2.019,2.053-2.064 c1.586-0.079,15.486-0.669,16.574-0.669c1.189,0,2.154,0.883,2.154,1.978c0,1.092-0.965,1.978-2.154,1.978 c-0.744,0-10.205,0.389-16.368,0.651C161.957,187.255,161.931,187.255,161.894,187.255z"></path><path style="fill:#FFFFFF;" d="M161.894,199.125c-1.148,0-2.098-0.826-2.154-1.881c-0.052-1.099,0.868-2.023,2.053-2.072 c1.586-0.075,15.486-0.669,16.574-0.669c1.189,0,2.154,0.883,2.154,1.978c0,1.099-0.965,1.978-2.154,1.978 c-0.744,0-10.205,0.389-16.368,0.654C161.957,199.125,161.931,199.125,161.894,199.125z"></path><path style="fill:#FFFFFF;" d="M161.894,210.998c-1.148,0-2.098-0.83-2.154-1.892c-0.052-1.088,0.868-2.012,2.053-2.064 c1.586-0.067,15.486-0.666,16.574-0.666c1.189,0,2.154,0.883,2.154,1.978c0,1.096-0.965,1.978-2.154,1.978 c-0.744,0-10.205,0.393-16.368,0.662C161.957,210.998,161.931,210.998,161.894,210.998z"></path><path style="fill:#FFFFFF;" d="M161.894,222.864c-1.148,0-2.098-0.823-2.154-1.885c-0.052-1.088,0.868-2.016,2.053-2.068 c1.586-0.071,15.486-0.662,16.574-0.662c1.189,0,2.154,0.883,2.154,1.975s-0.965,1.978-2.154,1.978 c-0.744,0-10.205,0.393-16.368,0.658C161.957,222.864,161.931,222.864,161.894,222.864z"></path><path style="fill:#FFFFFF;" d="M161.894,234.737c-1.148,0-2.098-0.834-2.154-1.885c-0.052-1.096,0.868-2.016,2.053-2.068 c1.586-0.075,15.486-0.666,16.574-0.666c1.189,0,2.154,0.883,2.154,1.971c0,1.096-0.965,1.986-2.154,1.986 c-0.744,0-10.205,0.393-16.368,0.651C161.957,234.737,161.931,234.737,161.894,234.737z"></path></g><path style="fill:#039A88;" d="M381.051,217.83c18.728-21.959,24.883-41.36,16.813-53.566c-7.558-11.439-26.783-13.769-51.98-6.679 l-0.03-0.075l-0.067,0.022c-8.055-25.276-20.414-39.684-34.24-39.684c-14.82,0-27.703,16.166-35.672,44.475 c-8.683-1.836-16.753-2.82-23.956-2.82c-16.215,0-27.265,4.734-31.977,13.698c-6.799,12.943,1.249,31.611,22.037,51.565 l-0.045,0.052l0.052,0.049c-18.683,21.94-24.82,41.319-16.761,53.517c4.674,7.072,13.664,10.804,26.001,10.804 c0.007,0,0.007,0,0.007,0c7.632,0,16.413-1.462,26.031-4.185c8.063,25.336,20.437,39.8,34.284,39.8 c14.812,0,27.695-16.17,35.672-44.482c8.683,1.84,16.75,2.827,23.948,2.827l0,0c16.207,0,27.265-4.734,31.977-13.694 C409.954,256.497,401.885,237.803,381.051,217.83z M341.247,270.483c-5.856-1.541-11.862-3.418-17.991-5.688 c4.091-2.39,8.137-4.85,12.094-7.457c3.179-2.109,6.305-4.293,9.371-6.522C343.876,257.672,342.695,264.231,341.247,270.483z M282.865,274.653c-1.81-7.012-3.265-14.498-4.301-22.445c4.229,2.55,8.522,5.026,12.898,7.326 c4.177,2.199,8.459,4.244,12.774,6.208C296.948,269.313,289.806,272.267,282.865,274.653z M261.52,230.743 c-0.759-0.583-1.481-1.185-2.229-1.776c-1.586-1.256-3.134-2.524-4.622-3.799c-0.366-0.31-0.714-0.621-1.073-0.931 c0.374-0.385,0.722-0.77,1.096-1.159c1.462-1.522,2.98-3.04,4.536-4.551c0.744-0.725,1.481-1.455,2.251-2.176 c2.075-1.948,4.222-3.882,6.443-5.804c0.239-0.209,0.475-0.423,0.714-0.632c-0.007,0.138-0.007,0.277-0.007,0.415 c-0.161,3.654-0.247,7.322-0.247,10.987c0,4.51,0.153,9.016,0.393,13.507c0.022,0.438,0.015,0.875,0.037,1.324 c-0.052-0.037-0.094-0.075-0.146-0.108C266.198,234.299,263.827,232.523,261.52,230.743z M299.835,177.847 c-4.091,2.386-8.145,4.85-12.094,7.457c-3.164,2.094-6.29,4.286-9.371,6.522c0.856-6.858,2.038-13.418,3.478-19.67 C287.7,173.696,293.706,175.573,299.835,177.847z M319.255,176.699c3.287-1.604,6.544-3.074,9.764-4.443 c0.868-0.37,1.731-0.688,2.592-1.04c2.39-0.969,4.753-1.877,7.09-2.711c0.512-0.18,1.013-0.348,1.526-0.524 c0.131,0.512,0.262,1.013,0.393,1.526c0.591,2.386,1.133,4.835,1.638,7.33c0.183,0.897,0.381,1.776,0.553,2.689 c0.636,3.396,1.189,6.877,1.664,10.456c0.015,0.127,0.03,0.262,0.045,0.389c-0.366-0.221-0.744-0.411-1.118-0.628 c-3.863-2.3-7.786-4.536-11.787-6.641c-3.833-2.012-7.741-3.904-11.686-5.725c-0.344-0.157-0.681-0.344-1.021-0.501 C319.027,176.818,319.139,176.751,319.255,176.699z M346.52,221.319c0,6.137-0.228,12.329-0.688,18.44 c-4.805,3.725-9.846,7.333-15.003,10.744c-5.617,3.71-11.432,7.217-17.296,10.437c-6.17-2.621-12.307-5.531-18.26-8.653 c-6.069-3.186-12.053-6.66-17.8-10.329c-0.168-2.038-0.299-4.084-0.423-6.137c-0.075-1.212-0.176-2.416-0.236-3.639 c-0.161-3.609-0.247-7.24-0.247-10.863c0-3.246,0.075-6.496,0.198-9.734c0.045-1.077,0.123-2.132,0.183-3.201 c0.093-1.847,0.206-3.691,0.337-5.523c4.835-3.743,9.861-7.345,14.973-10.718c5.609-3.702,11.402-7.202,17.251-10.411 c1.963,0.83,3.923,1.702,5.871,2.595c0.957,0.43,1.922,0.841,2.872,1.29c3.22,1.515,6.413,3.089,9.562,4.742 c3.22,1.694,6.398,3.47,9.54,5.299c0.972,0.568,1.922,1.174,2.883,1.761c1.825,1.099,3.639,2.21,5.419,3.347 C346.228,207.531,346.52,214.438,346.52,221.319z M354.231,206.458c5.501,3.878,10.576,7.876,15.265,11.948 c-4.559,4.835-9.562,9.633-15.052,14.334c0.168-3.807,0.269-7.629,0.269-11.424C354.714,216.353,354.519,211.391,354.231,206.458z M391.029,168.786c5.718,8.65-0.4,25.134-16.002,43.517c-6.458-5.613-13.694-11.073-21.577-16.29v-0.007l-0.007-0.004 c-0.228-2.262-0.505-4.484-0.789-6.69c-0.06-0.393-0.086-0.797-0.146-1.185c-0.4-2.936-0.86-5.804-1.365-8.627 c-0.153-0.853-0.329-1.675-0.49-2.517c-0.381-1.96-0.767-3.897-1.197-5.8c-0.221-0.998-0.46-1.967-0.703-2.947 c-0.228-0.92-0.423-1.874-0.658-2.779c8.829-2.487,16.981-3.796,23.761-3.796C378.46,161.658,387.136,162.892,391.029,168.786z M311.548,126.042c9.742,0,19.719,12.916,26.446,33.981c-0.935,0.322-1.892,0.703-2.842,1.04c-0.905,0.329-1.81,0.654-2.73,1.002 c-1.907,0.725-3.826,1.5-5.763,2.311c-0.744,0.31-1.477,0.595-2.221,0.92c-2.696,1.163-5.404,2.397-8.137,3.713 c-0.239,0.116-0.49,0.247-0.729,0.37c-2.147,1.043-4.301,2.12-6.466,3.261l-0.007-0.004l-0.007,0.004 c-8.612-3.482-17.075-6.324-25.25-8.47C290.572,140.537,301.032,126.042,311.548,126.042z M227.198,177.009 c3.156-6.006,11.933-9.312,24.722-9.312c6.552,0,13.908,0.849,21.91,2.524c-2.053,8.896-3.541,18.436-4.446,28.424l-0.007,0.004 v0.007c-1.724,1.376-3.388,2.771-5.033,4.166c-0.292,0.239-0.591,0.475-0.875,0.714c-2.132,1.829-4.2,3.672-6.208,5.527 c-0.643,0.587-1.242,1.182-1.862,1.773c-1.395,1.313-2.752,2.625-4.084,3.953c-0.658,0.662-1.301,1.324-1.937,1.986 c-0.628,0.647-1.294,1.286-1.9,1.937C230.118,201.978,222.378,186.19,227.198,177.009z M251.236,280.988 c-6.604,0-15.28-1.234-19.173-7.128c-5.718-8.65,0.408-25.134,16.002-43.517c0.583,0.512,1.219,1.013,1.817,1.526 c0.621,0.52,1.242,1.043,1.877,1.571c1.395,1.156,2.842,2.3,4.308,3.433c0.546,0.438,1.088,0.868,1.649,1.294 c2.038,1.556,4.132,3.096,6.29,4.615c0.236,0.168,0.482,0.329,0.722,0.497c1.616,1.126,3.235,2.251,4.91,3.351v0.015h0.007 c1.111,10.912,2.906,21.159,5.355,30.545C266.164,279.679,258.012,280.988,251.236,280.988L251.236,280.988z M311.548,316.6 c-9.742,0-19.726-12.92-26.454-33.985c9.334-3.194,19.027-7.419,28.888-12.614h0.007h0.007c8.612,3.478,17.075,6.324,25.25,8.474 C332.519,302.101,322.067,316.6,311.548,316.6z M395.894,265.633c-3.156,6.002-11.94,9.312-24.722,9.312 c-6.552,0-13.908-0.849-21.91-2.521c2.053-8.896,3.541-18.429,4.446-28.421l0.007-0.007v-0.015 c8.137-6.503,15.478-13.231,21.895-20.048C392.973,240.668,400.714,256.452,395.894,265.633z"></path><g><circle style="fill:#00B39A;" cx="330.952" cy="136.868" r="11.892"></circle><circle style="fill:#00B39A;" cx="247.971" cy="283.355" r="11.888"></circle><circle style="fill:#00B39A;" cx="351.445" cy="241.352" r="11.892"></circle></g></svg>