<!-- icon666.com - MILLIONS vector ICONS FREE --><svg viewBox="0 0 64 64" xmlns="http://www.w3.org/2000/svg"><g id="Layer_4" data-name="Layer 4"><rect fill="#666" height="60" rx="6" width="34" x="15" y="2"></rect><path d="m15 10h34v40h-34z" fill="#92d8f1"></path><path d="m15 43.821c16.3-1.638 29-14.586 29-30.321a28.912 28.912 0 0 0 -.219-3.5h-28.781z" fill="#c9ebf8"></path><rect fill="#e7e4dd" height="4" rx="2" width="10" x="27" y="54"></rect><path d="m38 7h-12a1 1 0 0 1 0-2h12a1 1 0 0 1 0 2z" fill="#e7e4dd"></path><g fill="#fff"><path d="m22 36a1 1 0 0 1 -.707-1.707l10-10a1 1 0 0 1 1.414 1.414l-10 10a1 1 0 0 1 -.707.293z"></path><path d="m32 36a1 1 0 0 1 -.707-1.707l10-10a1 1 0 0 1 1.414 1.414l-10 10a1 1 0 0 1 -.707.293z"></path></g></g></svg>