<?xml version="1.0" encoding="UTF-8" standalone="no"?>
<!-- Generator: Adobe Illustrator 27.5.0, SVG Export Plug-In . SVG Version: 6.00 Build 0)  -->

<svg
   version="1.1"
   x="0px"
   y="0px"
   viewBox="0 0 450 300"
   xml:space="preserve"
   id="svg246"
   sodipodi:docname="delete_account.svg"
   width="450"
   height="300"
   inkscape:version="1.3.2 (091e20e, 2023-11-25, custom)"
   xmlns:inkscape="http://www.inkscape.org/namespaces/inkscape"
   xmlns:sodipodi="http://sodipodi.sourceforge.net/DTD/sodipodi-0.dtd"
   xmlns="http://www.w3.org/2000/svg"
   xmlns:svg="http://www.w3.org/2000/svg"><defs
   id="defs246" /><sodipodi:namedview
   id="namedview246"
   pagecolor="#ffffff"
   bordercolor="#000000"
   borderopacity="0.25"
   inkscape:showpageshadow="2"
   inkscape:pageopacity="0.0"
   inkscape:pagecheckerboard="0"
   inkscape:deskcolor="#d1d1d1"
   inkscape:zoom="0.74066667"
   inkscape:cx="184.29343"
   inkscape:cy="216.69667"
   inkscape:window-width="1920"
   inkscape:window-height="1009"
   inkscape:window-x="-8"
   inkscape:window-y="-8"
   inkscape:window-maximized="1"
   inkscape:current-layer="svg246" />
<g
   id="Background_Complete"
   transform="matrix(0.55336558,0,0,0.55336558,38.559736,0)">
	<g
   id="g17">
		<g
   id="g1">
			
				<rect
   x="151.535"
   y="143.02499"
   transform="matrix(0.8312,-0.556,0.556,0.8312,-97.7997,162.6891)"
   style="fill:#f5f5f5"
   width="134.991"
   height="198.769"
   id="rect1" />
		</g>
		<g
   id="g4">
			<g
   id="g2">
				<polygon
   style="fill:#e0e0e0"
   points="215.368,279.505 216.641,271.624 272.42,279.659 271.146,287.54 "
   id="polygon1" />
			</g>
			<g
   id="g3">
				<polygon
   style="fill:#e0e0e0"
   points="243.459,307.617 235.454,306.465 244.329,251.546 252.333,252.7 "
   id="polygon2" />
			</g>
		</g>
		<g
   id="g6">
			<g
   id="g5">
				<path
   style="fill:none;stroke:#ffffff;stroke-miterlimit:10"
   d="M 228.466,184.995"
   id="path4" />
			</g>
		</g>
		<g
   id="g8">
			<g
   id="g7">
				<path
   style="fill:#e0e0e0"
   d="m 192.952,181.745 c 0.08,0.12 -11.165,7.781 -25.112,17.11 -13.952,9.332 -25.324,16.798 -25.404,16.678 -0.08,-0.119 11.162,-7.779 25.115,-17.111 13.947,-9.329 25.321,-16.796 25.401,-16.677 z"
   id="path6" />
			</g>
		</g>
		<g
   id="g10">
			<g
   id="g9">
				<path
   style="fill:#e0e0e0"
   d="m 234.216,171.387 c 0.08,0.12 -18.619,12.767 -41.759,28.244 -23.149,15.483 -41.973,27.934 -42.053,27.814 -0.08,-0.119 18.615,-12.764 41.763,-28.247 23.14,-15.477 41.969,-27.93 42.049,-27.811 z"
   id="path8" />
			</g>
		</g>
		<g
   id="g12">
			<g
   id="g11">
				<path
   style="fill:#e0e0e0"
   d="m 242.487,183.753 c 0.08,0.12 -18.619,12.767 -41.759,28.244 -23.149,15.483 -41.973,27.934 -42.053,27.814 -0.08,-0.12 18.615,-12.764 41.763,-28.247 23.141,-15.477 41.969,-27.93 42.049,-27.811 z"
   id="path10" />
			</g>
		</g>
		<g
   id="g14">
			<g
   id="g13">
				<path
   style="fill:#e0e0e0"
   d="m 250.758,196.12 c 0.08,0.12 -18.619,12.767 -41.759,28.244 -23.149,15.483 -41.973,27.934 -42.053,27.814 -0.08,-0.119 18.615,-12.764 41.763,-28.247 C 231.85,208.453 250.678,196 250.758,196.12 Z"
   id="path12" />
			</g>
		</g>
		<g
   id="g16">
			<g
   id="g15">
				<path
   style="fill:#e0e0e0"
   d="m 259.03,208.486 c 0.08,0.12 -18.619,12.766 -41.759,28.244 -23.149,15.483 -41.973,27.934 -42.053,27.814 -0.08,-0.12 18.615,-12.764 41.763,-28.247 23.14,-15.477 41.969,-27.93 42.049,-27.811 z"
   id="path14" />
			</g>
		</g>
	</g>
	<g
   id="g34">
		<g
   id="g18">
			
				<rect
   x="537.677"
   y="250.42999"
   transform="matrix(0.8312,-0.556,0.556,0.8312,-85.3099,386.8)"
   style="fill:#f5f5f5"
   width="113.369"
   height="166.93201"
   id="rect17" />
		</g>
		<g
   id="g21">
			<g
   id="g19">
				<polygon
   style="fill:#e0e0e0"
   points="591.285,365.049 592.355,358.431 639.199,365.18 638.13,371.798 "
   id="polygon18" />
			</g>
			<g
   id="g20">
				<polygon
   style="fill:#e0e0e0"
   points="614.877,388.659 608.155,387.691 615.608,341.569 622.33,342.538 "
   id="polygon19" />
			</g>
		</g>
		<g
   id="g23">
			<g
   id="g22">
				<path
   style="fill:none;stroke:#ffffff;stroke-miterlimit:10"
   d="M 602.285,285.678"
   id="path21" />
			</g>
		</g>
		<g
   id="g25">
			<g
   id="g24">
				<path
   style="fill:#e0e0e0"
   d="m 572.46,282.948 c 0.08,0.12 -9.353,6.569 -21.067,14.404 -11.718,7.837 -21.278,14.092 -21.358,13.972 -0.08,-0.12 9.351,-6.568 21.069,-14.405 11.713,-7.834 21.276,-14.09 21.356,-13.971 z"
   id="path23" />
			</g>
		</g>
		<g
   id="g27">
			<g
   id="g26">
				<path
   style="fill:#e0e0e0"
   d="m 607.114,274.249 c 0.08,0.12 -15.613,10.756 -35.047,23.755 -19.441,13.003 -35.26,23.444 -35.34,23.324 -0.08,-0.12 15.61,-10.754 35.051,-23.757 19.433,-12.998 35.256,-23.441 35.336,-23.322 z"
   id="path25" />
			</g>
		</g>
		<g
   id="g29">
			<g
   id="g28">
				<path
   style="fill:#e0e0e0"
   d="m 614.061,284.635 c 0.08,0.12 -15.613,10.757 -35.047,23.755 -19.441,13.003 -35.26,23.444 -35.34,23.324 -0.08,-0.12 15.61,-10.754 35.051,-23.757 19.433,-12.999 35.256,-23.442 35.336,-23.322 z"
   id="path27" />
			</g>
		</g>
		<g
   id="g31">
			<g
   id="g30">
				<path
   style="fill:#e0e0e0"
   d="m 621.007,295.02 c 0.08,0.12 -15.613,10.756 -35.047,23.755 -19.441,13.003 -35.26,23.444 -35.34,23.324 -0.08,-0.119 15.61,-10.754 35.051,-23.757 19.433,-12.998 35.256,-23.441 35.336,-23.322 z"
   id="path29" />
			</g>
		</g>
		<g
   id="g33">
			<g
   id="g32">
				<path
   style="fill:#e0e0e0"
   d="m 627.954,305.406 c 0.08,0.12 -15.613,10.756 -35.047,23.755 -19.441,13.003 -35.26,23.444 -35.34,23.324 -0.08,-0.119 15.61,-10.754 35.051,-23.757 19.433,-12.998 35.256,-23.442 35.336,-23.322 z"
   id="path31" />
			</g>
		</g>
	</g>
	<g
   id="g51">
		<g
   id="g35">
			
				<rect
   x="295.79901"
   y="90.691002"
   transform="matrix(0.8818,0.4716,-0.4716,0.8818,125.1062,-146.1305)"
   style="fill:#f5f5f5"
   width="116.6"
   height="171.689"
   id="rect34" />
		</g>
		<g
   id="g38">
			<g
   id="g36">
				<polygon
   style="fill:#e0e0e0"
   points="324.341,188.828 330.865,186.594 347.422,232.368 340.899,234.602 "
   id="polygon35" />
			</g>
			<g
   id="g37">
				<polygon
   style="fill:#e0e0e0"
   points="314.34,221.667 311.964,215.098 357.423,199.529 359.8,206.098 "
   id="polygon36" />
			</g>
		</g>
		<g
   id="g40">
			<g
   id="g39">
				<path
   style="fill:none;stroke:#ffffff;stroke-miterlimit:10"
   d="M 401.689,160.379"
   id="path38" />
			</g>
		</g>
		<g
   id="g42">
			<g
   id="g41">
				<path
   style="fill:#e0e0e0"
   d="m 389.724,131.993 c -0.081,0.151 -10.509,-5.27 -23.29,-12.105 -12.785,-6.838 -23.081,-12.501 -23,-12.652 0.081,-0.15 10.507,5.269 23.292,12.106 12.781,6.836 23.079,12.501 22.998,12.651 z"
   id="path40" />
			</g>
		</g>
		<g
   id="g44">
			<g
   id="g43">
				<path
   style="fill:#e0e0e0"
   d="m 414.397,159.227 c -0.081,0.151 -17.34,-8.923 -38.544,-20.263 -21.212,-11.345 -38.337,-20.66 -38.256,-20.811 0.081,-0.15 17.336,8.921 38.548,20.266 21.204,11.34 38.333,20.657 38.252,20.808 z"
   id="path42" />
			</g>
		</g>
		<g
   id="g46">
			<g
   id="g45">
				<path
   style="fill:#e0e0e0"
   d="m 408.337,170.559 c -0.081,0.151 -17.34,-8.923 -38.544,-20.264 -21.212,-11.345 -38.337,-20.66 -38.256,-20.811 0.081,-0.15 17.336,8.921 38.548,20.266 21.204,11.34 38.332,20.658 38.252,20.809 z"
   id="path44" />
			</g>
		</g>
		<g
   id="g48">
			<g
   id="g47">
				<path
   style="fill:#e0e0e0"
   d="m 402.276,181.89 c -0.081,0.151 -17.34,-8.923 -38.544,-20.264 -21.212,-11.344 -38.337,-20.66 -38.256,-20.811 0.08,-0.151 17.336,8.921 38.548,20.266 21.204,11.341 38.333,20.659 38.252,20.809 z"
   id="path46" />
			</g>
		</g>
		<g
   id="g50">
			<g
   id="g49">
				<path
   style="fill:#e0e0e0"
   d="m 396.216,193.222 c -0.081,0.151 -17.339,-8.923 -38.544,-20.264 -21.212,-11.344 -38.337,-20.66 -38.256,-20.811 0.081,-0.15 17.336,8.921 38.548,20.266 21.204,11.341 38.332,20.659 38.252,20.809 z"
   id="path48" />
			</g>
		</g>
	</g>
	<rect
   x="394.172"
   style="opacity:0.2"
   width="2.5829999"
   height="43.983002"
   id="rect51"
   y="0" />
</g>
<g
   id="Background_Simple"
   style="display:none">
	<path
   style="display:inline;fill:#ebebeb"
   d="m 150.678,164.369 c -8.525,67.104 25.888,135.89 80.27,176.118 54.382,40.228 125.939,53.465 192.9,43.873 47.799,-6.848 95.212,-25.589 128.902,-60.181 33.69,-34.592 51.453,-86.562 37.876,-132.9 -5.128,-17.503 -15.198,-34.459 -31.18,-43.246 -25.519,-14.03 -57.02,-3.741 -84.176,6.777 -27.156,10.519 -58.607,20.881 -84.188,6.962 C 371.427,151.077 361.335,129.074 346.93,111.951 322.436,82.836 282.649,67.383 244.924,72.333 c -4.715,0.619 -9.38,1.554 -13.964,2.784 -40.132,10.768 -70.473,43.739 -79.227,84.358 z"
   id="path51" />
</g>
<g
   id="Lamp"
   transform="matrix(0.55336558,0,0,0.55336558,38.559736,0)">
	<g
   id="g54">
		<g
   id="g53">
			<g
   id="g52">
				<path
   style="fill:#e8505b"
   d="m 335.233,97.189 h 120.461 c 0,0 -11.122,-53.233 -61.143,-53.233 -44.493,-0.001 -59.318,53.233 -59.318,53.233 z"
   id="path52" />
			</g>
		</g>
		<rect
   x="394.172"
   style="fill:#e8505b"
   width="2.5829999"
   height="43.983002"
   id="rect53"
   y="0" />
	</g>
</g>
<g
   id="Floor"
   transform="matrix(0.55336558,0,0,0.55336558,38.559736,0)">
	<g
   id="g56">
		<g
   id="g55">
			<path
   style="fill:#263238"
   d="m 663.667,439.828 c 0,0.144 -129.251,0.26 -288.653,0.26 -159.457,0 -288.68,-0.117 -288.68,-0.26 0,-0.144 129.223,-0.26 288.68,-0.26 159.402,0 288.653,0.117 288.653,0.26 z"
   id="path54" />
		</g>
	</g>
</g>
<g
   id="Plant"
   transform="matrix(0.55336558,0,0,0.55336558,38.559736,0)">
	<g
   id="g66">
		<g
   id="g57">
			<path
   style="fill:#e8505b"
   d="m 118.286,377.201 c 3.381,0.119 6.555,1.954 8.785,4.499 2.23,2.544 3.597,5.743 4.472,9.012 1.692,6.323 0.652,13.786 -1.151,20.078 -6.846,-2.447 -11.067,-9.747 -12.976,-13.586 -3.018,-6.066 -4.787,-18.862 0.87,-20.003"
   id="path56" />
		</g>
		<g
   id="g58">
			<path
   style="fill:#e8505b"
   d="m 140.242,418.454 c -2.16,-3.101 -2.211,-7.414 -0.503,-10.786 1.707,-3.372 4.988,-5.803 8.601,-6.913 1.671,-0.513 3.609,-0.729 5.062,0.242 1.359,0.907 1.946,2.688 1.77,4.312 -0.175,1.624 -0.998,3.111 -1.969,4.425 -3.329,4.507 -7.378,8.257 -12.961,8.72"
   id="path57" />
		</g>
		<g
   id="g60">
			<g
   id="g59">
				<path
   style="fill:#263238"
   d="m 140.995,439.584 c -0.033,0.005 -0.137,-0.464 -0.306,-1.314 -0.183,-0.938 -0.42,-2.149 -0.704,-3.604 -0.54,-3.03 -1.397,-7.339 -0.749,-12.103 0.623,-4.743 2.511,-8.797 4.49,-11.218 0.974,-1.225 1.907,-2.092 2.597,-2.625 0.334,-0.281 0.628,-0.453 0.815,-0.585 0.191,-0.126 0.296,-0.185 0.306,-0.172 0.075,0.085 -1.6,1.117 -3.451,3.586 -1.875,2.429 -3.672,6.414 -4.286,11.077 -0.638,4.667 0.152,8.937 0.609,11.983 0.245,1.53 0.442,2.77 0.556,3.631 0.113,0.861 0.155,1.34 0.123,1.344 z"
   id="path58" />
			</g>
		</g>
		<g
   id="g62">
			<g
   id="g61">
				<path
   style="fill:#263238"
   d="m 120.494,386.826 c 0.015,-0.007 0.11,0.172 0.276,0.518 0.182,0.394 0.416,0.899 0.705,1.524 0.605,1.327 1.455,3.258 2.486,5.653 2.063,4.789 4.819,11.446 7.697,18.864 2.877,7.421 5.329,14.197 7.034,19.124 0.854,2.464 1.527,4.463 1.975,5.851 0.208,0.657 0.376,1.187 0.506,1.601 0.111,0.368 0.161,0.563 0.146,0.569 -0.016,0.005 -0.096,-0.18 -0.236,-0.538 -0.152,-0.406 -0.348,-0.927 -0.59,-1.572 -0.52,-1.425 -1.238,-3.392 -2.117,-5.799 -1.786,-4.896 -4.286,-11.649 -7.161,-19.065 -2.876,-7.413 -5.582,-14.085 -7.564,-18.905 -0.974,-2.37 -1.77,-4.307 -2.347,-5.71 -0.256,-0.639 -0.463,-1.156 -0.624,-1.559 -0.136,-0.358 -0.201,-0.549 -0.186,-0.556 z"
   id="path60" />
			</g>
		</g>
		<g
   id="g63">
			<path
   style="fill:#e8505b"
   d="m 132.869,425.604 c -4.037,-6.869 -11.575,-11.553 -19.522,-12.129 -2.024,-0.147 -4.458,0.194 -5.36,2.011 -0.904,1.82 0.305,3.975 1.684,5.468 5.736,6.213 15.44,8.379 23.274,5.195"
   id="path62" />
		</g>
		<g
   id="g65">
			<g
   id="g64">
				<path
   style="fill:#263238"
   d="m 116.429,418.892 c 0.002,-0.033 0.452,-0.014 1.267,0.047 0.408,0.028 0.907,0.064 1.478,0.171 0.57,0.106 1.233,0.168 1.939,0.365 0.711,0.174 1.495,0.348 2.307,0.641 0.828,0.245 1.678,0.599 2.571,0.977 1.764,0.801 3.635,1.849 5.417,3.212 1.769,1.379 3.263,2.92 4.478,4.431 0.584,0.775 1.142,1.509 1.577,2.255 0.481,0.717 0.838,1.438 1.173,2.088 0.359,0.639 0.571,1.271 0.806,1.802 0.237,0.531 0.385,1.009 0.503,1.401 0.243,0.781 0.361,1.215 0.33,1.224 -0.101,0.035 -0.588,-1.713 -1.936,-4.273 -0.35,-0.633 -0.719,-1.333 -1.207,-2.03 -0.442,-0.726 -1.004,-1.439 -1.587,-2.194 -1.214,-1.471 -2.689,-2.974 -4.426,-4.328 -1.75,-1.338 -3.581,-2.379 -5.308,-3.189 -0.874,-0.383 -1.706,-0.746 -2.517,-1.003 -0.794,-0.304 -1.564,-0.494 -2.261,-0.688 -2.805,-0.71 -4.615,-0.806 -4.604,-0.909 z"
   id="path63" />
			</g>
		</g>
	</g>
</g>
<g
   id="Character"
   transform="matrix(0.55336558,0,0,0.55336558,38.559736,0)">
	<g
   id="g232">
		<g
   id="g70">
			<g
   id="g67">
				<path
   style="fill:#263238"
   d="m 570.361,105.475 c -2.94,0.677 -4.372,4.06 -4.651,7.065 -0.279,3.004 0.104,6.177 -1.157,8.918 -1.42,3.085 -4.812,5.359 -4.925,8.754 -0.069,2.069 1.16,4.015 1.101,6.085 -0.097,3.399 -3.563,5.968 -3.745,9.364 -0.131,2.445 1.497,4.792 1.106,7.209 -0.305,1.881 -1.769,3.363 -2.388,5.165 -1.234,3.593 1.234,7.548 4.449,9.57 3.583,2.254 8.171,2.835 12.202,1.547 4.032,-1.288 7.433,-4.423 9.045,-8.336 1.779,-4.319 1.39,-9.182 1.004,-13.836 -1.205,-14.506 -2.101,-29.037 -2.686,-43.581"
   id="path66" />
			</g>
			<g
   id="g69">
				<g
   id="g68">
					<path
   style="fill:#455a64"
   d="m 561.824,156.664 c -0.063,-0.057 0.804,-0.315 1.344,-1.598 0.261,-0.627 0.395,-1.471 0.342,-2.441 -0.034,-0.976 -0.367,-2.039 -0.729,-3.238 -0.335,-1.188 -0.772,-2.567 -0.522,-4.1 0.252,-1.557 1.366,-2.836 2.383,-4.092 0.512,-0.637 1.026,-1.299 1.35,-2.052 0.342,-0.745 0.414,-1.598 0.156,-2.398 -0.516,-1.634 -2.117,-2.836 -2.852,-4.722 -0.364,-0.945 -0.368,-1.983 -0.161,-2.918 0.198,-0.944 0.58,-1.801 0.965,-2.617 0.783,-1.628 1.645,-3.121 1.987,-4.706 0.702,-3.172 0.374,-6.2 0.852,-8.687 0.433,-2.492 1.486,-4.365 2.529,-5.328 0.508,-0.498 1,-0.763 1.321,-0.942 0.342,-0.147 0.522,-0.215 0.529,-0.198 0.034,0.056 -0.741,0.294 -1.707,1.283 -0.964,0.975 -1.931,2.807 -2.309,5.246 -0.199,1.213 -0.228,2.577 -0.278,4.041 -0.052,1.463 -0.098,3.052 -0.47,4.694 -0.347,1.664 -1.233,3.216 -1.993,4.815 -0.752,1.571 -1.443,3.413 -0.778,5.135 0.635,1.702 2.246,2.911 2.851,4.75 0.296,0.915 0.199,1.929 -0.187,2.749 -0.367,0.834 -0.912,1.516 -1.434,2.156 -1.045,1.264 -2.091,2.466 -2.33,3.866 -0.25,1.392 0.136,2.735 0.451,3.924 0.335,1.189 0.658,2.309 0.666,3.326 0.027,1.008 -0.143,1.886 -0.447,2.535 -0.302,0.653 -0.715,1.057 -1.025,1.262 -0.307,0.211 -0.504,0.255 -0.504,0.255 z"
   id="path67" />
				</g>
			</g>
		</g>
		<path
   style="fill:#b78876"
   d="m 553.951,180.366 -9.027,26.022 -37.643,2.018 -6.277,13.968 39.3,3.976 c 7.837,3.24 16.791,-0.731 19.651,-8.714 l 10.488,-29.275 z"
   id="path70" />
		<g
   id="g75">
			<g
   id="g73">
				<g
   id="g71">
					<path
   style="fill:#b78876"
   d="m 631.814,425.697 c 0,0 -27.586,-87.617 -28.171,-90.462 -0.529,-2.571 10.011,-65.624 11.339,-81.942 l -37.274,1.39 c 0,0 -10e-4,0.1 -0.003,0.272 l -15.844,0.879 14.191,179.193 h 17.153 l -1.701,-59.451 c 10.577,28.397 25.734,57.335 25.734,57.335 z"
   id="path71" />
				</g>
				<g
   id="g72">
					<path
   style="fill:#a36957"
   d="m 592.203,396.883 c 0.015,-0.544 -0.208,-19.919 -0.208,-19.919 -0.214,1.159 -6.576,-16.823 -6.422,-17.916 0.079,-0.566 6.63,37.835 6.63,37.835 z"
   id="path72" />
				</g>
			</g>
			<g
   id="g74">
				<path
   style="fill:#a36957"
   d="m 584.847,350.535 c -0.039,-0.001 -0.076,0.385 -0.11,1.086 -0.037,0.7 -0.045,1.716 0.023,2.971 0.024,0.628 0.09,1.314 0.171,2.049 0.094,0.733 0.194,1.519 0.364,2.334 0.311,1.635 0.791,3.405 1.402,5.22 1.246,3.624 2.62,6.795 3.596,9.096 0.463,1.049 0.86,1.951 1.194,2.709 0.293,0.635 0.472,0.98 0.509,0.965 0.037,-0.015 -0.073,-0.387 -0.303,-1.048 -0.23,-0.661 -0.58,-1.61 -1.026,-2.777 -0.88,-2.339 -2.195,-5.534 -3.429,-9.126 -0.605,-1.798 -1.093,-3.537 -1.427,-5.142 -0.181,-0.8 -0.297,-1.571 -0.41,-2.292 -0.1,-0.723 -0.188,-1.397 -0.237,-2.017 -0.118,-1.237 -0.172,-2.245 -0.203,-2.942 -0.037,-0.699 -0.075,-1.086 -0.114,-1.086 z"
   id="path73" />
			</g>
		</g>
		<g
   id="g107">
			<g
   id="g106">
				<g
   id="g77">
					<g
   id="g76">
						<path
   style="fill:#455a64"
   d="m 575.729,435.91 -0.007,-1.611 17.57,-0.766 0.048,6.645 -1.084,0.073 c -4.823,0.282 -24.542,1.096 -27.769,0.128 -3.601,-1.079 11.242,-4.469 11.242,-4.469 z"
   id="path75" />
					</g>
				</g>
				<g
   id="g79">
					<g
   id="g78">
						<path
   style="fill:#263238"
   d="m 593.584,439.776 c 0,0.007 -0.103,0.019 -0.3,0.034 -0.259,0.017 -0.543,0.035 -0.863,0.055 -0.863,0.04 -1.924,0.09 -3.177,0.148 -2.683,0.106 -6.392,0.204 -10.489,0.222 -4.099,0.017 -7.809,-0.048 -10.492,-0.13 -1.253,-0.047 -2.314,-0.088 -3.178,-0.121 -0.32,-0.018 -0.604,-0.033 -0.863,-0.048 -0.197,-0.013 -0.301,-0.024 -0.3,-0.031 0,-0.007 0.104,-0.011 0.302,-0.012 0.26,0.002 0.544,0.005 0.865,0.008 0.864,0.014 1.925,0.032 3.178,0.053 2.684,0.044 6.392,0.086 10.488,0.068 4.095,-0.018 7.802,-0.092 10.485,-0.16 1.253,-0.032 2.315,-0.059 3.178,-0.081 0.321,-0.006 0.605,-0.011 0.865,-0.015 0.197,0 0.301,0.003 0.301,0.01 z"
   id="path77" />
					</g>
				</g>
				<g
   id="g81">
					<g
   id="g80">
						<path
   style="fill:#263238"
   d="m 570.036,440.342 c -0.065,0.008 -0.117,-0.75 -0.599,-1.514 -0.469,-0.773 -1.124,-1.158 -1.087,-1.212 0.012,-0.053 0.763,0.274 1.268,1.101 0.514,0.821 0.471,1.638 0.418,1.625 z"
   id="path79" />
					</g>
				</g>
				<g
   id="g83">
					<g
   id="g82">
						<path
   style="fill:#263238"
   d="m 575.185,437.707 c -0.049,0.031 -0.297,-0.268 -0.553,-0.669 -0.257,-0.401 -0.424,-0.751 -0.375,-0.783 0.049,-0.032 0.297,0.268 0.554,0.669 0.255,0.401 0.423,0.752 0.374,0.783 z"
   id="path81" />
					</g>
				</g>
				<g
   id="g85">
					<g
   id="g84">
						<path
   style="fill:#263238"
   d="m 576.597,436.953 c -0.039,0.044 -0.315,-0.139 -0.618,-0.409 -0.302,-0.27 -0.515,-0.523 -0.477,-0.567 0.039,-0.044 0.315,0.139 0.618,0.409 0.303,0.27 0.516,0.524 0.477,0.567 z"
   id="path83" />
					</g>
				</g>
				<g
   id="g87">
					<g
   id="g86">
						<path
   style="fill:#263238"
   d="m 577.486,435.3 c 10e-4,0.059 -0.407,0.112 -0.912,0.12 -0.504,0.007 -0.914,-0.034 -0.915,-0.092 -10e-4,-0.059 0.407,-0.112 0.912,-0.12 0.505,-0.007 0.914,0.034 0.915,0.092 z"
   id="path85" />
					</g>
				</g>
				<g
   id="g89">
					<g
   id="g88">
						<path
   style="fill:#263238"
   d="m 577.789,434.136 c 0.02,0.052 -0.424,0.254 -1.017,0.3 -0.592,0.049 -1.063,-0.082 -1.051,-0.136 0.01,-0.06 0.472,-0.028 1.035,-0.075 0.562,-0.043 1.014,-0.147 1.033,-0.089 z"
   id="path87" />
					</g>
				</g>
				<g
   id="g91">
					<g
   id="g90">
						<path
   style="fill:#263238"
   d="m 574.586,436.184 c 0.002,0.024 -0.429,0.078 -1.123,-0.003 -0.346,-0.04 -0.756,-0.121 -1.197,-0.259 -0.219,-0.077 -0.448,-0.135 -0.685,-0.28 -0.111,-0.074 -0.235,-0.178 -0.279,-0.348 -0.047,-0.168 0.042,-0.358 0.169,-0.45 1.072,-0.56 2.149,0.04 2.55,0.593 0.22,0.282 0.322,0.558 0.369,0.748 0.046,0.192 0.043,0.302 0.03,0.303 -0.04,0.015 -0.078,-0.442 -0.515,-0.956 -0.216,-0.252 -0.542,-0.497 -0.962,-0.62 -0.397,-0.116 -0.962,-0.146 -1.339,0.096 -0.178,0.133 -0.108,0.342 0.091,0.46 0.185,0.119 0.425,0.19 0.632,0.267 0.426,0.145 0.822,0.238 1.158,0.297 0.673,0.118 1.101,0.118 1.101,0.152 z"
   id="path89" />
					</g>
				</g>
				<g
   id="g93">
					<g
   id="g92">
						<path
   style="fill:#263238"
   d="m 574.295,436.241 c -0.016,0.012 -0.183,-0.274 -0.132,-0.779 0.026,-0.248 0.116,-0.543 0.304,-0.822 0.197,-0.25 0.451,-0.595 0.933,-0.576 0.261,0.033 0.389,0.328 0.348,0.517 -0.02,0.197 -0.107,0.366 -0.189,0.503 -0.166,0.281 -0.354,0.509 -0.528,0.682 -0.351,0.345 -0.629,0.478 -0.641,0.457 -0.02,-0.027 0.223,-0.202 0.531,-0.559 0.153,-0.178 0.32,-0.404 0.468,-0.676 0.153,-0.238 0.257,-0.665 -0.025,-0.715 -0.281,-0.026 -0.567,0.255 -0.738,0.48 -0.176,0.244 -0.273,0.506 -0.315,0.732 -0.084,0.456 0.022,0.748 -0.016,0.756 z"
   id="path91" />
					</g>
				</g>
				<g
   id="g95">
					<g
   id="g94">
						<path
   style="fill:#263238"
   d="m 593.21,434.995 c -0.004,0.039 -0.501,-0.046 -1.29,0.05 -0.782,0.09 -1.87,0.415 -2.814,1.172 -0.943,0.759 -1.495,1.75 -1.752,2.495 -0.264,0.75 -0.288,1.254 -0.328,1.249 -0.013,-0.001 -0.02,-0.126 -0.002,-0.353 0.017,-0.226 0.07,-0.553 0.187,-0.943 0.226,-0.777 0.778,-1.822 1.762,-2.613 0.984,-0.789 2.124,-1.102 2.931,-1.155 0.407,-0.03 0.737,-0.011 0.961,0.021 0.226,0.03 0.347,0.064 0.345,0.077 z"
   id="path93" />
					</g>
				</g>
				<g
   id="g97">
					<g
   id="g96">
						<path
   style="fill:#263238"
   d="m 584.796,438.384 c 0.007,0.055 -1.133,0.237 -2.553,0.243 -1.421,0.01 -2.562,-0.16 -2.556,-0.215 0.006,-0.061 1.147,0.013 2.555,0.003 1.407,-0.006 2.547,-0.092 2.554,-0.031 z"
   id="path95" />
					</g>
				</g>
				<g
   id="g99">
					<g
   id="g98">
						<path
   style="fill:#263238"
   d="m 588.221,438.347 c 0.043,0.043 -0.093,0.242 -0.208,0.505 -0.119,0.261 -0.178,0.495 -0.239,0.491 -0.057,0 -0.091,-0.276 0.045,-0.578 0.135,-0.303 0.364,-0.46 0.402,-0.418 z"
   id="path97" />
					</g>
				</g>
				<g
   id="g101">
					<g
   id="g100">
						<path
   style="fill:#263238"
   d="m 589.506,436.735 c 0.042,0.041 -0.07,0.223 -0.25,0.407 -0.18,0.184 -0.36,0.3 -0.402,0.259 -0.042,-0.041 0.07,-0.223 0.251,-0.407 0.179,-0.184 0.359,-0.3 0.401,-0.259 z"
   id="path99" />
					</g>
				</g>
				<g
   id="g103">
					<g
   id="g102">
						<path
   style="fill:#263238"
   d="m 591.351,435.994 c -0.012,0.059 -0.244,0.058 -0.501,0.15 -0.259,0.085 -0.441,0.229 -0.487,0.189 -0.047,-0.032 0.099,-0.281 0.418,-0.389 0.319,-0.111 0.587,-0.004 0.57,0.05 z"
   id="path101" />
					</g>
				</g>
				<g
   id="g105">
					<g
   id="g104">
						<path
   style="fill:#263238"
   d="m 592.665,435.643 c 0.021,0.055 -0.079,0.145 -0.224,0.201 -0.145,0.057 -0.28,0.059 -0.301,0.004 -0.021,-0.054 0.079,-0.145 0.224,-0.201 0.145,-0.056 0.279,-0.058 0.301,-0.004 z"
   id="path103" />
					</g>
				</g>
			</g>
		</g>
		<g
   id="g139">
			<g
   id="g138">
				<g
   id="g109">
					<g
   id="g108">
						<path
   style="fill:#455a64"
   d="m 616.893,434.36 -0.667,-1.467 15.715,-7.895 2.766,6.042 -0.959,0.51 c -4.284,2.233 -21.94,11.052 -25.28,11.492 -3.726,0.49 8.425,-8.682 8.425,-8.682 z"
   id="path107" />
					</g>
				</g>
				<g
   id="g111">
					<g
   id="g110">
						<path
   style="fill:#263238"
   d="m 634.766,430.573 c 0.003,0.007 -0.086,0.059 -0.26,0.154 -0.229,0.121 -0.481,0.254 -0.765,0.404 -0.771,0.39 -1.719,0.87 -2.837,1.437 -2.404,1.196 -5.748,2.804 -9.478,4.499 -3.732,1.695 -7.143,3.155 -9.625,4.179 -1.162,0.47 -2.147,0.868 -2.948,1.192 -0.299,0.115 -0.565,0.217 -0.807,0.31 -0.185,0.069 -0.284,0.102 -0.287,0.095 -0.003,-0.007 0.09,-0.053 0.271,-0.134 0.238,-0.104 0.498,-0.218 0.792,-0.347 0.794,-0.341 1.77,-0.759 2.921,-1.253 2.467,-1.059 5.866,-2.54 9.596,-4.234 3.728,-1.694 7.08,-3.28 9.5,-4.441 1.13,-0.542 2.087,-1.002 2.866,-1.376 0.29,-0.137 0.547,-0.258 0.782,-0.368 0.179,-0.083 0.275,-0.124 0.279,-0.117 z"
   id="path109" />
					</g>
				</g>
				<g
   id="g113">
					<g
   id="g112">
						<path
   style="fill:#263238"
   d="m 613.516,440.735 c -0.055,0.034 -0.414,-0.636 -1.167,-1.136 -0.744,-0.513 -1.5,-0.596 -1.489,-0.661 -0.01,-0.053 0.808,-0.063 1.608,0.485 0.805,0.539 1.101,1.302 1.048,1.312 z"
   id="path111" />
					</g>
				</g>
				<g
   id="g115">
					<g
   id="g114">
						<path
   style="fill:#263238"
   d="m 617.133,436.222 c -0.032,0.049 -0.381,-0.123 -0.779,-0.383 -0.398,-0.261 -0.695,-0.512 -0.663,-0.56 0.032,-0.049 0.381,0.123 0.779,0.383 0.398,0.26 0.695,0.511 0.663,0.56 z"
   id="path113" />
					</g>
				</g>
				<g
   id="g117">
					<g
   id="g116">
						<path
   style="fill:#263238"
   d="m 618.113,434.956 c -0.018,0.056 -0.345,0.002 -0.731,-0.12 -0.386,-0.122 -0.685,-0.266 -0.667,-0.322 0.018,-0.056 0.345,-0.002 0.731,0.12 0.386,0.122 0.684,0.266 0.667,0.322 z"
   id="path115" />
					</g>
				</g>
				<g
   id="g119">
					<g
   id="g118">
						<path
   style="fill:#263238"
   d="m 618.247,433.084 c 0.025,0.053 -0.326,0.269 -0.782,0.483 -0.457,0.213 -0.848,0.343 -0.872,0.29 -0.025,-0.053 0.326,-0.269 0.783,-0.482 0.455,-0.214 0.846,-0.344 0.871,-0.291 z"
   id="path117" />
					</g>
				</g>
				<g
   id="g121">
					<g
   id="g120">
						<path
   style="fill:#263238"
   d="m 618.046,431.897 c 0.039,0.039 -0.283,0.406 -0.805,0.69 -0.521,0.287 -1.003,0.361 -1.015,0.306 -0.016,-0.059 0.419,-0.219 0.913,-0.492 0.497,-0.269 0.866,-0.549 0.907,-0.504 z"
   id="path119" />
					</g>
				</g>
				<g
   id="g123">
					<g
   id="g122">
						<path
   style="fill:#263238"
   d="m 615.963,435.078 c 0.011,0.021 -0.36,0.247 -1.026,0.457 -0.332,0.105 -0.739,0.199 -1.198,0.254 -0.232,0.019 -0.464,0.061 -0.74,0.026 -0.132,-0.022 -0.287,-0.066 -0.397,-0.203 -0.112,-0.134 -0.108,-0.343 -0.03,-0.479 0.748,-0.95 1.977,-0.844 2.569,-0.503 0.317,0.167 0.522,0.377 0.643,0.531 0.12,0.156 0.162,0.258 0.152,0.264 -0.03,0.03 -0.252,-0.371 -0.862,-0.661 -0.3,-0.142 -0.698,-0.232 -1.131,-0.172 -0.41,0.057 -0.937,0.261 -1.182,0.636 -0.108,0.194 0.042,0.356 0.271,0.382 0.218,0.032 0.465,0 0.686,-0.015 0.448,-0.042 0.847,-0.119 1.178,-0.204 0.662,-0.169 1.053,-0.345 1.067,-0.313 z"
   id="path121" />
					</g>
				</g>
				<g
   id="g125">
					<g
   id="g124">
						<path
   style="fill:#263238"
   d="m 615.721,435.249 c -0.009,0.018 -0.279,-0.175 -0.44,-0.657 -0.078,-0.237 -0.116,-0.543 -0.06,-0.874 0.078,-0.309 0.168,-0.727 0.615,-0.908 0.251,-0.077 0.837,0.427 0.877,0.617 0.063,0.188 -0.296,0.091 -0.315,0.249 -0.036,0.325 -0.114,0.609 -0.202,0.838 -0.179,0.459 -0.378,0.694 -0.398,0.68 -0.029,-0.017 0.121,-0.276 0.256,-0.728 0.067,-0.226 0.126,-0.5 0.15,-0.808 0.042,-0.28 -0.038,-0.712 -0.315,-0.642 -0.267,0.091 -0.413,0.465 -0.477,0.74 -0.06,0.294 -0.042,0.573 0.012,0.797 0.112,0.451 0.328,0.673 0.297,0.696 z"
   id="path123" />
					</g>
				</g>
				<g
   id="g127">
					<g
   id="g126">
						<path
   style="fill:#263238"
   d="m 632.466,426.364 c 0.013,0.038 -0.476,0.163 -1.157,0.574 -0.677,0.402 -1.536,1.144 -2.087,2.221 -0.55,1.078 -0.647,2.209 -0.576,2.993 0.066,0.793 0.251,1.262 0.213,1.274 -0.012,0.005 -0.07,-0.107 -0.146,-0.321 -0.077,-0.213 -0.162,-0.533 -0.216,-0.937 -0.112,-0.801 -0.037,-1.981 0.537,-3.105 0.575,-1.123 1.486,-1.875 2.201,-2.255 0.359,-0.194 0.668,-0.312 0.886,-0.375 0.217,-0.062 0.341,-0.081 0.345,-0.069 z"
   id="path125" />
					</g>
				</g>
				<g
   id="g129">
					<g
   id="g128">
						<path
   style="fill:#263238"
   d="m 626.178,432.903 c 0.029,0.047 -0.936,0.68 -2.229,1.267 -1.292,0.591 -2.403,0.903 -2.42,0.851 -0.02,-0.058 1.052,-0.458 2.332,-1.043 1.281,-0.582 2.286,-1.129 2.317,-1.075 z"
   id="path127" />
					</g>
				</g>
				<g
   id="g131">
					<g
   id="g130">
						<path
   style="fill:#263238"
   d="m 629.287,431.466 c 0.056,0.021 0.015,0.259 0.017,0.546 -0.002,0.287 0.04,0.524 -0.017,0.546 -0.052,0.023 -0.196,-0.214 -0.195,-0.546 -10e-4,-0.332 0.143,-0.569 0.195,-0.546 z"
   id="path129" />
					</g>
				</g>
				<g
   id="g133">
					<g
   id="g132">
						<path
   style="fill:#263238"
   d="m 629.799,429.469 c 0.055,0.02 0.027,0.232 -0.062,0.474 -0.089,0.242 -0.206,0.421 -0.26,0.401 -0.055,-0.02 -0.027,-0.232 0.062,-0.474 0.089,-0.241 0.206,-0.421 0.26,-0.401 z"
   id="path131" />
					</g>
				</g>
				<g
   id="g135">
					<g
   id="g134">
						<path
   style="fill:#263238"
   d="m 631.179,428.038 c 0.013,0.059 -0.199,0.153 -0.396,0.341 -0.201,0.184 -0.309,0.389 -0.367,0.372 -0.056,-0.01 -0.025,-0.297 0.222,-0.527 0.246,-0.231 0.535,-0.243 0.541,-0.186 z"
   id="path133" />
					</g>
				</g>
				<g
   id="g137">
					<g
   id="g136">
						<path
   style="fill:#263238"
   d="m 632.234,427.179 c 0.042,0.041 -0.013,0.164 -0.121,0.275 -0.109,0.111 -0.231,0.168 -0.273,0.127 -0.042,-0.041 0.013,-0.164 0.121,-0.275 0.109,-0.111 0.231,-0.168 0.273,-0.127 z"
   id="path135" />
					</g>
				</g>
			</g>
		</g>
		<g
   id="g162">
			<g
   id="g152">
				<g
   id="g151">
					<g
   id="g144">
						<g
   id="g143">
							<g
   id="g142">
								<g
   id="g141">
									<g
   id="g140">
										<path
   style="fill:#e8505b"
   d="m 612.564,223.635 -2.926,-35.697 15.028,0.268 c 0,0 0.696,-5.263 -1.518,-16.809 -1.358,-7.08 -6.073,-11.422 -11.361,-14.002 l 10e-4,-0.095 -0.459,-0.12 c -6.725,-3.148 -13.765,-3.592 -13.765,-3.592 l -18.447,0.213 c 0,0 -14.092,-1.758 -21.892,8.288 -3.005,3.87 -12.302,30.355 -12.302,30.355 l 22.142,10.663 -2.108,-14.687 c 0,0 0.419,10.649 1.778,14.023 0.757,1.88 2.949,7.716 2.949,7.716 l -0.286,17.615 z"
   id="path139" />
									</g>
								</g>
							</g>
						</g>
					</g>
					<g
   id="g145">
						<polygon
   style="fill:#e8505b"
   points="625.48,194.422 623.781,174.864 602.387,182.756 599.649,194.422 "
   id="polygon144" />
					</g>
					<g
   id="g147">
						<g
   id="g146">
							<path
   style="fill:#263238"
   d="m 625.48,194.422 c 0.004,-0.077 -1.302,-0.214 -3.419,-0.338 -2.117,-0.124 -5.046,-0.229 -8.284,-0.214 -3.238,0.016 -6.168,0.156 -8.283,0.324 -2.115,0.167 -3.416,0.346 -3.41,0.421 0.006,0.082 1.317,0.045 3.432,-0.019 2.115,-0.065 5.036,-0.141 8.265,-0.157 3.227,-0.014 6.15,0.026 8.267,0.047 2.116,0.022 3.428,0.016 3.432,-0.064 z"
   id="path145" />
						</g>
					</g>
					<g
   id="g149">
						<g
   id="g148">
							<path
   style="fill:#263238"
   d="m 601.273,174.768 c -0.079,0.003 -0.106,1.137 -0.086,2.967 0.02,1.831 0.086,4.357 0.194,7.147 0.108,2.79 0.238,5.315 0.361,7.142 0.122,1.826 0.238,2.954 0.316,2.951 0.079,-0.003 0.106,-1.137 0.086,-2.967 -0.019,-1.83 -0.086,-4.358 -0.194,-7.148 -0.108,-2.79 -0.238,-5.314 -0.361,-7.141 -0.122,-1.825 -0.237,-2.954 -0.316,-2.951 z"
   id="path147" />
						</g>
					</g>
					<g
   style="opacity:0.3"
   id="g150">
						<path
   d="m 577.768,184.872 c 0,0 5.742,42.568 21.881,41.441 0,0 7.266,-0.086 9.603,-4.916 v -1.901 z"
   id="path149" />
					</g>
				</g>
			</g>
			<g
   style="opacity:0.3"
   id="g153">
				<polygon
   points="602.083,194.614 601.273,177.277 598.184,198.145 600.184,201.807 603.477,194.647 "
   id="polygon152" />
			</g>
			<g
   id="g155">
				<g
   id="g154">
					<path
   style="fill:#263238"
   d="m 569.686,210.161 c -0.034,0.012 -0.188,-0.344 -0.436,-0.997 -0.251,-0.652 -0.584,-1.606 -0.97,-2.794 -0.771,-2.375 -1.724,-5.701 -2.47,-9.445 -0.742,-3.747 -1.106,-7.193 -1.224,-9.691 -0.06,-1.249 -0.079,-2.261 -0.06,-2.96 0.014,-0.699 0.038,-1.085 0.074,-1.085 0.083,-0.001 0.139,1.541 0.353,4.02 0.212,2.479 0.63,5.892 1.368,9.615 0.741,3.721 1.633,7.044 2.312,9.44 0.317,1.111 0.588,2.058 0.81,2.838 0.188,0.67 0.277,1.047 0.243,1.059 z"
   id="path153" />
				</g>
			</g>
			<g
   id="g157">
				<g
   id="g156">
					<path
   style="fill:#263238"
   d="m 576.212,222.393 c -0.138,0.042 -0.537,-0.877 -0.892,-2.051 -0.355,-1.175 -0.532,-2.16 -0.394,-2.202 0.138,-0.042 0.537,0.877 0.892,2.051 0.355,1.174 0.532,2.16 0.394,2.202 z"
   id="path155" />
				</g>
			</g>
			<g
   id="g159">
				<g
   id="g158">
					<path
   style="fill:#263238"
   d="m 578.443,222.23 c -0.133,0.034 -0.569,-1.344 -0.59,-3.112 -0.03,-1.768 0.365,-3.158 0.498,-3.128 0.148,0.027 -0.008,1.414 0.022,3.12 0.02,1.706 0.218,3.089 0.07,3.12 z"
   id="path157" />
				</g>
			</g>
			<g
   id="g161">
				<g
   id="g160">
					<path
   style="fill:#263238"
   d="m 567.516,203.596 c -0.064,0.129 -5.217,-2.316 -11.508,-5.46 -6.293,-3.145 -11.341,-5.797 -11.276,-5.926 0.064,-0.129 5.216,2.316 11.509,5.46 6.29,3.144 11.339,5.797 11.275,5.926 z"
   id="path159" />
				</g>
			</g>
		</g>
		<g
   id="g211">
			<g
   id="g193">
				<g
   id="g192">
					<g
   id="g191">
						<g
   id="g190">
							<g
   id="g189">
								<g
   id="g165">
									<g
   id="g164">
										<g
   id="g163">
											<path
   style="fill:#b78876"
   d="m 576.596,157.253 c 0.115,-5.059 0.144,-10.387 0.144,-10.387 0,0 -6.489,-1.25 -7.62,-9.788 -1.078,-8.142 1.938,-27.247 1.938,-27.247 v 0 c 9.478,-3.583 19.328,-0.335 25.822,7.345 v 0 l -1.612,41.074 c -0.187,4.768 -4.436,8.405 -9.54,8.166 v 0 c -5.156,-0.242 -9.242,-4.343 -9.132,-9.163 z"
   id="path162" />
										</g>
									</g>
								</g>
								<g
   id="g173">
									<g
   id="g168">
										<g
   id="g167">
											<g
   id="g166">
												<path
   style="fill:#263238"
   d="m 570.565,125.1 c -0.035,0.575 0.423,1.079 1.023,1.127 0.599,0.048 1.114,-0.379 1.149,-0.954 0.035,-0.575 -0.423,-1.08 -1.022,-1.128 -0.6,-0.048 -1.115,0.38 -1.15,0.955 z"
   id="path165" />
											</g>
										</g>
									</g>
									<g
   id="g172">
										<g
   id="g171">
											<g
   id="g170">
												<g
   id="g169">
													<path
   style="fill:#263238"
   d="m 570.159,123.667 c 0.132,0.146 0.974,-0.444 2.147,-0.411 1.173,0.016 2.018,0.642 2.149,0.502 0.064,-0.062 -0.067,-0.322 -0.435,-0.605 -0.362,-0.281 -0.985,-0.562 -1.716,-0.578 -0.731,-0.015 -1.353,0.238 -1.713,0.505 -0.368,0.268 -0.497,0.522 -0.432,0.587 z"
   id="path168" />
												</g>
											</g>
										</g>
									</g>
								</g>
								<g
   id="g181">
									<g
   id="g176">
										<g
   id="g175">
											<g
   id="g174">
												<path
   style="fill:#263238"
   d="m 582.471,125.841 c -0.035,0.575 0.423,1.08 1.023,1.128 0.599,0.048 1.114,-0.379 1.149,-0.954 0.035,-0.575 -0.423,-1.08 -1.022,-1.128 -0.6,-0.049 -1.115,0.379 -1.15,0.954 z"
   id="path173" />
											</g>
										</g>
									</g>
									<g
   id="g180">
										<g
   id="g179">
											<g
   id="g178">
												<g
   id="g177">
													<path
   style="fill:#263238"
   d="m 582.391,124.409 c 0.132,0.146 0.975,-0.444 2.147,-0.411 1.172,0.017 2.018,0.643 2.149,0.502 0.064,-0.062 -0.066,-0.322 -0.435,-0.605 -0.362,-0.281 -0.985,-0.562 -1.716,-0.578 -0.731,-0.015 -1.353,0.238 -1.713,0.505 -0.367,0.268 -0.496,0.522 -0.432,0.587 z"
   id="path176" />
												</g>
											</g>
										</g>
									</g>
								</g>
								<g
   id="g185">
									<g
   id="g184">
										<g
   id="g183">
											<g
   id="g182">
												<path
   style="fill:#263238"
   d="m 577.908,133.001 c 0.007,-0.067 -0.719,-0.211 -1.897,-0.393 -0.299,-0.039 -0.581,-0.105 -0.626,-0.311 -0.065,-0.218 0.069,-0.538 0.223,-0.883 0.3,-0.718 0.615,-1.47 0.945,-2.259 1.314,-3.217 2.274,-5.865 2.144,-5.917 -0.13,-0.052 -1.301,2.513 -2.615,5.73 -0.317,0.793 -0.62,1.55 -0.908,2.273 -0.122,0.338 -0.327,0.719 -0.186,1.172 0.075,0.226 0.291,0.394 0.481,0.451 0.191,0.064 0.359,0.071 0.507,0.084 1.188,0.096 1.926,0.12 1.932,0.053 z"
   id="path181" />
											</g>
										</g>
									</g>
								</g>
								<g
   id="g188">
									<g
   id="g187">
										<g
   id="g186">
											<path
   style="fill:#a36957"
   d="m 576.739,146.866 c 0,0 5.711,0.516 11.465,-2.744 0,0 -2.913,5.77 -11.403,4.754 z"
   id="path185" />
										</g>
									</g>
								</g>
							</g>
						</g>
					</g>
				</g>
			</g>
			<g
   id="g195">
				<g
   id="g194">
					<path
   style="fill:#263238"
   d="m 586.147,121.024 c -0.241,0.367 -1.133,0.204 -2.133,0.024 -0.996,-0.201 -1.886,-0.378 -1.975,-0.808 -0.099,-0.412 0.934,-0.983 2.268,-0.727 1.334,0.254 2.084,1.164 1.84,1.511 z"
   id="path193" />
				</g>
			</g>
			<g
   id="g197">
				<g
   id="g196">
					<path
   style="fill:#263238"
   d="m 574.48,119.302 c -0.091,0.428 -1.046,0.584 -2.148,0.64 -1.103,0.045 -2.069,-0.023 -2.198,-0.44 -0.132,-0.404 0.8,-1.062 2.126,-1.12 1.325,-0.064 2.314,0.505 2.22,0.92 z"
   id="path195" />
				</g>
			</g>
			<g
   id="g198">
				<path
   style="fill:#a36957"
   d="m 577.927,135.81 c -0.247,-0.069 -0.525,0.072 -0.649,0.297 -0.148,0.267 -0.08,0.635 0.154,0.832 0.233,0.197 0.607,0.202 0.846,0.011 0.239,-0.19 0.317,-0.556 0.177,-0.827 -0.14,-0.271 -0.483,-0.419 -0.777,-0.335"
   id="path197" />
			</g>
			<g
   id="g200">
				<g
   id="g199">
					<path
   style="fill:#263238"
   d="m 578.202,135.926 c 0.053,-0.047 -0.188,-0.335 -0.7,-0.223 -0.237,0.052 -0.547,0.265 -0.641,0.629 -0.094,0.342 -0.009,0.785 0.353,1.063 0.375,0.264 0.827,0.21 1.125,0.007 0.32,-0.21 0.41,-0.594 0.36,-0.834 -0.103,-0.527 -0.493,-0.611 -0.504,-0.538 -0.044,0.066 0.136,0.249 0.101,0.561 -0.017,0.153 -0.09,0.295 -0.238,0.367 -0.145,0.079 -0.376,0.079 -0.507,-0.022 -0.137,-0.098 -0.208,-0.316 -0.18,-0.484 0.021,-0.168 0.133,-0.293 0.269,-0.37 0.278,-0.158 0.525,-0.084 0.562,-0.156 z"
   id="path198" />
				</g>
			</g>
			<g
   id="g210">
				<g
   id="g201">
					<path
   style="fill:#263238"
   d="m 592.95,127.208 c -1.012,2.344 -3.48,4.15 -3.138,6.68 0.221,1.633 1.269,3.156 1.065,4.792 -0.256,2.054 -2.39,3.478 -2.692,5.526 -0.37,2.512 2.073,4.464 3.049,6.808 1.421,3.413 -0.397,7.252 -0.44,10.949 -0.065,5.663 4.75,10.953 10.394,11.418 2.283,0.188 4.855,-0.501 6.038,-2.462 0.977,-1.618 0.781,-3.674 1.367,-5.471 0.872,-2.676 3.423,-4.635 3.961,-7.398 0.98,-5.037 -5.107,-9.205 -4.707,-14.321 0.171,-2.186 1.521,-4.093 2.094,-6.209 0.752,-2.772 0.063,-5.894 -1.786,-8.092 -1.502,-1.787 -3.682,-2.962 -4.961,-4.914 -1.451,-2.214 -1.501,-5.021 -2.048,-7.611 -1.333,-6.311 -6.073,-11.793 -12.125,-14.025 -6.052,-2.232 -13.216,-1.14 -18.328,2.793 0,0 -1.455,6.591 5.311,7.693 6.765,1.102 9.901,-0.17 10.664,2.542 0,0 -0.771,3.167 2.026,6.193 2.798,3.028 5.427,2.395 4.256,5.109 z"
   id="path200" />
				</g>
				<g
   id="g203">
					<g
   id="g202">
						<path
   style="fill:#455a64"
   d="m 603.746,172.92 c -0.003,0.018 -0.214,-0.005 -0.617,-0.064 -0.402,-0.063 -0.992,-0.196 -1.721,-0.464 -1.444,-0.528 -3.491,-1.678 -5.235,-3.875 -0.866,-1.089 -1.677,-2.409 -2.225,-3.961 -0.56,-1.543 -0.88,-3.292 -0.909,-5.134 -0.043,-1.843 0.218,-3.776 0.721,-5.71 0.251,-0.968 0.578,-1.934 0.957,-2.893 0.374,-0.963 0.834,-1.891 1.098,-2.873 0.285,-0.979 0.246,-1.979 -0.01,-2.933 -0.261,-0.954 -0.705,-1.851 -1.137,-2.738 -0.435,-0.886 -0.879,-1.77 -1.165,-2.71 -0.291,-0.932 -0.4,-1.937 -0.21,-2.874 0.399,-1.884 1.543,-3.278 2.218,-4.709 0.714,-1.417 0.938,-2.915 0.905,-4.259 -0.121,-2.724 -1.282,-4.738 -2.23,-5.899 -0.988,-1.162 -1.737,-1.605 -1.699,-1.654 0,0 0.793,0.375 1.853,1.522 1.016,1.146 2.269,3.188 2.444,6.015 0.06,1.393 -0.154,2.971 -0.884,4.464 -0.69,1.483 -1.794,2.887 -2.135,4.611 -0.351,1.737 0.471,3.526 1.362,5.267 0.436,0.888 0.898,1.806 1.18,2.827 0.28,1.014 0.321,2.16 0.013,3.204 -0.284,1.049 -0.754,1.989 -1.119,2.929 -0.374,0.94 -0.696,1.885 -0.945,2.832 -0.499,1.892 -0.763,3.777 -0.734,5.572 0.012,3.605 1.249,6.756 2.944,8.874 1.661,2.168 3.624,3.338 5.02,3.915 1.411,0.573 2.272,0.659 2.26,0.718 z"
   id="path201" />
					</g>
				</g>
				<g
   id="g205">
					<g
   id="g204">
						<path
   style="fill:#455a64"
   d="m 602.75,122.459 c 0.003,0.033 -0.524,0.128 -1.49,0.222 -0.962,0.079 -2.383,0.191 -4.119,-0.108 -1.695,-0.31 -3.839,-1.142 -5.197,-3.153 -0.667,-1.009 -0.931,-2.23 -1.365,-3.357 -0.408,-1.14 -1.197,-2.127 -2.278,-2.811 -2.188,-1.387 -4.762,-1.557 -7.013,-1.831 -2.263,-0.255 -4.388,-0.735 -5.829,-1.815 -1.451,-1.033 -2.195,-2.373 -2.386,-3.339 -0.109,-0.484 -0.1,-0.872 -0.078,-1.128 0.036,-0.257 0.064,-0.388 0.082,-0.385 0.064,10e-4 -0.069,0.55 0.193,1.463 0.242,0.904 0.993,2.14 2.4,3.087 1.387,0.983 3.42,1.412 5.674,1.641 2.232,0.252 4.897,0.391 7.24,1.87 1.157,0.722 2.052,1.854 2.471,3.065 0.445,1.19 0.694,2.361 1.292,3.281 1.218,1.861 3.236,2.712 4.864,3.052 1.67,0.337 3.077,0.285 4.036,0.268 0.964,-0.034 1.499,-0.06 1.503,-0.022 z"
   id="path203" />
					</g>
				</g>
				<g
   id="g207">
					<g
   id="g206">
						<path
   style="fill:#455a64"
   d="m 600.268,114.315 c 0.005,0.025 -0.404,0.153 -1.172,0.172 -0.762,0.021 -1.902,-0.114 -3.157,-0.711 -0.625,-0.297 -1.267,-0.723 -1.858,-1.292 -0.6,-0.566 -1.091,-1.298 -1.551,-2.07 -0.902,-1.521 -1.77,-3.397 -3.64,-4.172 -1.832,-0.786 -3.85,-0.611 -5.603,-0.492 -1.77,0.174 -3.429,0.226 -4.782,-0.04 -1.362,-0.237 -2.384,-0.801 -2.951,-1.323 -0.286,-0.258 -0.481,-0.489 -0.588,-0.66 -0.112,-0.168 -0.163,-0.26 -0.148,-0.271 0.041,-0.032 0.28,0.321 0.865,0.774 0.582,0.451 1.566,0.934 2.883,1.117 1.317,0.21 2.902,0.127 4.68,-0.075 1.762,-0.139 3.84,-0.361 5.854,0.494 0.997,0.423 1.81,1.172 2.388,1.983 0.589,0.811 1.011,1.658 1.456,2.423 0.441,0.766 0.894,1.465 1.441,2.005 0.541,0.547 1.135,0.967 1.719,1.27 1.172,0.609 2.258,0.797 2.996,0.837 0.745,0.044 1.162,-0.014 1.168,0.031 z"
   id="path205" />
					</g>
				</g>
				<g
   id="g209">
					<g
   id="g208">
						<path
   style="fill:#455a64"
   d="m 606.73,170.762 c -0.051,-0.023 0.267,-0.667 0.636,-1.898 0.366,-1.227 0.73,-3.071 0.667,-5.36 -0.078,-2.273 -0.625,-5.023 -2.133,-7.636 -0.731,-1.31 -1.843,-2.476 -2.748,-3.915 -0.45,-0.718 -0.837,-1.523 -1.007,-2.414 -0.167,-0.892 -0.065,-1.839 0.221,-2.699 0.561,-1.726 1.565,-3.18 1.781,-4.767 0.268,-1.592 -0.536,-3.044 -1.297,-4.336 -0.385,-0.658 -0.771,-1.308 -1.071,-1.988 -0.299,-0.68 -0.49,-1.396 -0.565,-2.088 -0.152,-1.39 0.01,-2.667 0.113,-3.813 0.289,-2.284 0.077,-4.161 -0.474,-5.314 -0.533,-1.167 -1.232,-1.517 -1.181,-1.565 0.005,-0.007 0.046,0.012 0.121,0.058 0.074,0.048 0.191,0.111 0.319,0.228 0.267,0.217 0.623,0.602 0.923,1.191 0.633,1.167 0.904,3.13 0.658,5.434 -0.081,1.151 -0.216,2.412 -0.052,3.729 0.133,1.329 0.818,2.583 1.621,3.884 0.389,0.658 0.8,1.345 1.088,2.125 0.296,0.773 0.431,1.657 0.301,2.525 -0.243,1.749 -1.274,3.229 -1.79,4.855 -0.269,0.812 -0.355,1.646 -0.208,2.448 0.151,0.802 0.503,1.549 0.931,2.239 0.858,1.382 1.975,2.572 2.73,3.944 1.535,2.715 2.052,5.544 2.085,7.867 0.018,2.339 -0.411,4.206 -0.841,5.43 -0.225,0.611 -0.413,1.079 -0.576,1.381 -0.149,0.306 -0.236,0.463 -0.252,0.455 z"
   id="path207" />
					</g>
				</g>
			</g>
		</g>
		<g
   id="g221">
			<g
   id="g212">
				<path
   style="fill:#263238"
   d="m 565.996,357.088 c 0,0 -6.735,-63.842 -7.122,-87.433 -0.387,-23.59 10.606,-46.866 10.606,-46.866 l 43.083,-1.822 c 0,0 8.516,23.936 8.668,33.99 0.296,19.539 -5.191,38.833 -4.559,54.333 l 1.44,47.798"
   id="path211" />
			</g>
			<g
   id="g214">
				<g
   id="g213">
					<path
   style="fill:#fafafa"
   d="m 619.555,278.603 c 0.009,0.016 -0.235,0.2 -0.703,0.533 -0.12,0.085 -0.251,0.177 -0.393,0.277 -0.135,0.114 -0.266,0.258 -0.417,0.403 -0.302,0.29 -0.655,0.62 -0.96,1.075 -1.392,1.704 -2.406,4.748 -3.371,8.545 -0.531,1.886 -1.07,4.002 -2.181,6.074 -0.298,0.505 -0.565,1.041 -0.957,1.512 -0.187,0.24 -0.357,0.497 -0.563,0.728 l -0.663,0.663 c -0.899,0.885 -2.039,1.552 -3.24,2.079 -2.412,1.057 -5.134,1.559 -7.621,2.806 -2.503,1.219 -4.38,3.582 -5.53,6.303 -1.213,2.709 -1.949,5.554 -2.961,8.21 -0.994,2.635 -2.348,5.201 -4.497,6.821 -2.132,1.679 -4.768,2.063 -7.05,2.21 -2.32,0.135 -4.468,0.068 -6.394,0.36 -1.919,0.266 -3.62,0.874 -4.823,1.82 -1.206,0.949 -1.91,2.137 -2.241,3.155 -0.343,1.03 -0.281,1.899 -0.167,2.452 0.111,0.562 0.269,0.83 0.234,0.845 0,0 -0.188,-0.252 -0.336,-0.82 -0.15,-0.559 -0.249,-1.459 0.075,-2.536 0.314,-1.065 1.014,-2.311 2.253,-3.323 1.244,-1.013 2.992,-1.66 4.95,-1.957 1.962,-0.32 4.134,-0.274 6.42,-0.427 2.26,-0.164 4.783,-0.56 6.788,-2.16 2.03,-1.544 3.336,-4.012 4.312,-6.62 0.995,-2.625 1.726,-5.474 2.963,-8.243 1.161,-2.769 3.151,-5.282 5.774,-6.544 2.586,-1.284 5.31,-1.77 7.661,-2.792 1.172,-0.507 2.259,-1.137 3.119,-1.974 l 0.637,-0.627 c 0.198,-0.219 0.363,-0.466 0.544,-0.694 0.379,-0.447 0.641,-0.966 0.934,-1.452 1.096,-2 1.654,-4.092 2.206,-5.967 1.007,-3.777 2.094,-6.87 3.566,-8.572 0.324,-0.453 0.695,-0.78 1.015,-1.064 0.159,-0.141 0.299,-0.281 0.441,-0.391 0.149,-0.094 0.286,-0.181 0.413,-0.261 0.494,-0.31 0.755,-0.463 0.763,-0.447 z"
   id="path212" />
				</g>
			</g>
			<g
   id="g216">
				<g
   id="g215">
					<path
   style="fill:#fafafa"
   d="m 619.821,249.059 c 0.018,-0.001 0.037,0.292 0.056,0.855 0.008,0.562 -0.059,1.396 -0.299,2.443 -0.5,2.082 -2.021,4.94 -4.867,7.526 -1.407,1.299 -3.105,2.554 -5.046,3.685 -1.93,1.146 -4.06,2.236 -6.242,3.469 -2.174,1.236 -4.416,2.634 -6.386,4.49 -1.996,1.834 -3.491,4.245 -4.837,6.797 -1.36,2.549 -2.564,5.143 -4.195,7.389 -0.809,1.122 -1.723,2.147 -2.734,3.024 -1.017,0.871 -2.126,1.578 -3.252,2.166 -2.26,1.173 -4.562,1.898 -6.695,2.566 -2.138,0.661 -4.131,1.246 -5.875,1.977 -1.746,0.72 -3.258,1.535 -4.481,2.4 -1.223,0.866 -2.153,1.773 -2.813,2.594 -1.332,1.65 -1.612,2.845 -1.688,2.805 -0.017,-0.006 0.079,-0.284 0.278,-0.811 0.231,-0.51 0.589,-1.271 1.25,-2.119 0.646,-0.855 1.575,-1.802 2.802,-2.705 1.227,-0.902 2.75,-1.752 4.508,-2.503 1.757,-0.762 3.762,-1.371 5.888,-2.049 2.123,-0.684 4.398,-1.421 6.601,-2.579 1.098,-0.58 2.171,-1.273 3.151,-2.118 0.974,-0.852 1.856,-1.846 2.644,-2.945 1.587,-2.197 2.781,-4.771 4.149,-7.336 1.35,-2.564 2.889,-5.043 4.946,-6.924 2.025,-1.897 4.307,-3.305 6.5,-4.537 2.202,-1.228 4.334,-2.302 6.259,-3.423 1.932,-1.104 3.613,-2.321 5.016,-3.585 2.834,-2.513 4.367,-5.278 4.92,-7.306 0.541,-2.047 0.362,-3.252 0.442,-3.246 z"
   id="path214" />
				</g>
			</g>
			<g
   id="g218">
				<g
   id="g217">
					<path
   style="fill:#fafafa"
   d="m 559.092,273.036 c -0.008,0.003 -0.038,-0.062 -0.087,-0.194 -0.043,-0.133 -0.135,-0.326 -0.194,-0.595 -0.122,-0.534 -0.198,-1.378 0.1,-2.397 0.556,-2.036 2.768,-4.57 6.333,-5.839 1.773,-0.609 3.785,-0.977 5.882,-1.526 2.072,-0.558 4.33,-1.34 6.016,-3.073 0.837,-0.855 1.545,-1.873 2.134,-2.992 0.573,-1.129 1.047,-2.341 1.493,-3.592 0.897,-2.494 1.649,-5.204 3.171,-7.668 1.512,-2.483 3.974,-4.208 6.523,-5.072 2.542,-0.934 5.106,-1.348 7.485,-1.897 2.386,-0.519 4.616,-1.191 6.509,-2.216 1.866,-1.06 3.352,-2.471 4.405,-3.967 2.157,-2.999 2.722,-6.071 2.799,-8.101 0.047,-2.063 -0.281,-3.186 -0.213,-3.196 0,0 0.399,1.104 0.415,3.2 -0.016,2.061 -0.53,5.207 -2.701,8.31 -1.061,1.547 -2.573,3.018 -4.494,4.131 -1.941,1.073 -4.217,1.772 -6.612,2.307 -2.391,0.564 -4.939,0.989 -7.414,1.907 -2.49,0.857 -4.803,2.49 -6.26,4.871 -1.469,2.373 -2.224,5.053 -3.131,7.563 -0.453,1.26 -0.938,2.492 -1.533,3.651 -0.611,1.151 -1.354,2.211 -2.237,3.103 -1.791,1.816 -4.15,2.604 -6.245,3.15 -2.126,0.537 -4.127,0.881 -5.875,1.457 -3.468,1.184 -5.668,3.611 -6.255,5.549 -0.316,0.972 -0.277,1.787 -0.191,2.317 0.111,0.526 0.2,0.801 0.177,0.809 z"
   id="path216" />
				</g>
			</g>
			<g
   id="g220">
				<g
   id="g219">
					<path
   style="fill:#fafafa"
   d="m 616.116,327.019 c 0.018,-0.002 0.041,0.213 0.069,0.628 0.024,0.413 -0.009,1.032 -0.184,1.805 -0.353,1.54 -1.543,3.648 -3.78,5.403 -1.101,0.888 -2.434,1.703 -3.965,2.355 -1.527,0.654 -3.215,1.172 -4.978,1.722 -1.762,0.55 -3.611,1.125 -5.408,1.975 -1.811,0.829 -3.482,2.042 -4.922,3.59 -1.459,1.528 -2.718,3.197 -4.114,4.671 -1.39,1.483 -2.97,2.704 -4.609,3.606 -3.291,1.818 -6.703,2.441 -9.51,2.473 -2.829,0.031 -5.073,-0.563 -6.546,-1.088 -0.743,-0.259 -1.295,-0.518 -1.661,-0.712 -0.37,-0.184 -0.559,-0.289 -0.551,-0.305 0.008,-0.016 0.213,0.057 0.594,0.209 0.377,0.162 0.938,0.389 1.682,0.616 1.476,0.46 3.698,0.988 6.474,0.911 2.755,-0.078 6.087,-0.729 9.282,-2.524 1.594,-0.894 3.114,-2.08 4.471,-3.537 1.368,-1.452 2.621,-3.121 4.109,-4.681 1.465,-1.578 3.226,-2.854 5.08,-3.691 1.846,-0.864 3.719,-1.434 5.486,-1.972 1.768,-0.537 3.448,-1.037 4.952,-1.661 1.502,-0.619 2.816,-1.397 3.905,-2.246 2.212,-1.678 3.407,-3.683 3.812,-5.165 0.396,-1.499 0.24,-2.384 0.312,-2.382 z"
   id="path218" />
				</g>
			</g>
		</g>
		<g
   id="g224">
			<path
   style="fill:#b78876"
   d="m 611.205,194.464 -8.331,0.197 c -0.547,2.806 -1.884,4.726 -1.884,4.726 -6.966,-12.092 -12.367,-28.292 -13.708,-34.803 0.195,-0.65 0.427,-1.37 0.716,-2.174 0.333,-0.928 0.047,-2.686 -0.11,-3.661 -0.234,-1.45 -0.639,-3.4 -0.761,-4.303 -0.371,-2.751 -0.814,-3.183 -1.774,-2.872 -1.305,0.423 0.535,7.726 -0.535,7.885 -0.575,0.085 -1.278,-2.417 -1.482,-4.47 -0.204,-2.053 -1.132,-8.368 -1.811,-8.789 -0.995,-0.617 -1.862,0.359 -1.611,2.403 0.254,2.069 0.575,8.24 -0.51,8.323 -1.069,0.082 -1.966,-10.387 -1.966,-10.387 0,0 0.169,-2.278 -1.087,-2.223 -2.266,0.098 -0.495,11.136 -0.301,12.182 0.136,0.727 -1.042,0.861 -1.145,0.071 -0.107,-0.813 -0.653,-10.47 -2.96,-10.393 -1.771,0.06 1.371,9.096 0.377,11.191 -0.994,2.094 -1.685,-7.114 -3.375,-6.987 -0.629,0.048 -1.094,0.171 0.062,5.382 0.621,2.801 2.447,7.95 4.042,12.214 2.679,14.45 14.437,60.676 32.87,52.214 10.315,-4.735 14.499,-25.72 14.499,-25.72 z"
   id="path221" />
			<g
   id="g223">
				<g
   id="g222">
					<path
   style="fill:#a36957"
   d="m 575.657,157.204 c 0,0 0.084,0.015 0.24,-0.033 0.141,-0.043 0.42,-0.219 0.376,-0.578 -0.024,-0.62 -0.121,-1.525 -0.265,-2.694 -0.107,-1.177 -0.459,-2.589 -0.46,-4.26 -0.014,-0.837 0.008,-1.737 0.056,-2.691 0.031,-0.477 0.039,-0.972 0.145,-1.44 0.078,-0.453 0.382,-0.971 0.731,-0.909 l 0.038,0.007 0.017,-0.001 c 0.356,-0.016 0.634,0.261 0.748,0.685 0.125,0.405 0.156,0.883 0.131,1.339 l -10e-4,0.019 10e-4,0.013 c 0.234,2.558 0.486,5.359 1.069,8.349 0.081,0.374 0.164,0.75 0.28,1.129 0.058,0.189 0.125,0.38 0.208,0.573 0.054,0.099 0.088,0.193 0.17,0.296 0.071,0.087 0.162,0.239 0.418,0.262 0.415,-0.031 0.535,-0.345 0.629,-0.525 0.09,-0.207 0.146,-0.412 0.187,-0.615 0.086,-0.407 0.129,-0.813 0.161,-1.221 0.11,-1.631 0.053,-3.295 -0.067,-5.002 -0.039,-0.863 -0.251,-1.723 -0.104,-2.505 0.068,-0.385 0.229,-0.773 0.492,-0.933 0.128,-0.078 0.272,-0.094 0.43,-0.054 0.079,0.023 0.159,0.055 0.238,0.103 0.066,0.063 0.051,0.035 0.11,0.147 0.335,0.716 0.506,1.648 0.694,2.514 0.177,0.885 0.331,1.787 0.472,2.699 0.141,0.912 0.27,1.835 0.379,2.765 0.089,0.929 0.224,1.905 0.461,2.844 0.12,0.473 0.253,0.945 0.451,1.413 0.102,0.235 0.207,0.467 0.412,0.707 0.074,0.102 0.307,0.293 0.599,0.218 0.282,-0.094 0.362,-0.318 0.408,-0.449 0.162,-0.575 0.114,-1.053 0.106,-1.556 -0.021,-0.496 -0.063,-0.987 -0.104,-1.477 -0.071,-0.842 -0.152,-1.675 -0.18,-2.496 -0.013,-0.409 -0.014,-0.818 0.03,-1.203 0.025,-0.188 0.057,-0.382 0.122,-0.521 0.03,-0.071 0.068,-0.123 0.096,-0.149 0.016,-0.016 0.026,-0.009 0.039,-0.025 l 0.13,-0.037 c 0.663,-0.274 0.884,0.649 1.06,1.393 0.154,0.776 0.251,1.577 0.407,2.366 0.263,1.575 0.6,3.14 0.775,4.645 0.072,0.745 0.126,1.52 -0.088,2.152 -0.237,0.723 -0.471,1.438 -0.702,2.145 l -0.021,0.064 0.015,0.067 c 1.219,5.377 2.907,10.188 4.474,14.459 1.583,4.267 3.166,7.955 4.563,10.97 1.393,3.019 2.643,5.344 3.506,6.931 0.438,0.752 0.784,1.346 1.041,1.788 0.241,0.403 0.373,0.608 0.386,0.601 0.013,-0.008 -0.092,-0.228 -0.307,-0.645 -0.238,-0.451 -0.558,-1.059 -0.964,-1.827 -0.813,-1.61 -2.013,-3.953 -3.36,-6.984 -1.352,-3.028 -2.892,-6.722 -4.439,-10.99 -1.53,-4.266 -3.19,-9.09 -4.375,-14.411 l -0.006,0.131 c 0.231,-0.698 0.465,-1.403 0.701,-2.116 0.269,-0.816 0.19,-1.613 0.123,-2.393 -0.179,-1.564 -0.506,-3.084 -0.767,-4.666 -0.154,-0.782 -0.249,-1.585 -0.41,-2.405 -0.095,-0.409 -0.183,-0.821 -0.408,-1.238 -0.108,-0.202 -0.276,-0.432 -0.552,-0.556 -0.279,-0.121 -0.565,-0.087 -0.789,-0.032 l -0.168,0.048 c -0.075,0.034 -0.169,0.074 -0.227,0.129 -0.128,0.111 -0.201,0.238 -0.253,0.356 -0.105,0.24 -0.135,0.461 -0.166,0.683 -0.05,0.439 -0.047,0.866 -0.035,1.29 0.029,0.848 0.111,1.687 0.182,2.526 0.041,0.488 0.082,0.974 0.103,1.453 0.017,0.467 0.034,0.983 -0.074,1.344 -0.025,0.105 -0.074,0.085 -0.017,0.136 l 0.002,0.005 c -0.005,-0.034 0.008,0.051 0.006,0.037 l -0.002,-0.01 c -0.002,-0.013 0,-0.025 0.003,-0.035 0.005,-0.009 0.027,-0.044 0.014,-0.046 -0.007,-0.003 -0.031,-0.016 -0.06,-0.055 -0.11,-0.127 -0.22,-0.335 -0.306,-0.542 -0.178,-0.419 -0.309,-0.874 -0.424,-1.327 -0.23,-0.917 -0.359,-1.827 -0.451,-2.772 -0.112,-0.941 -0.243,-1.868 -0.387,-2.786 -0.144,-0.918 -0.301,-1.826 -0.483,-2.722 -0.206,-0.902 -0.339,-1.769 -0.76,-2.67 -0.026,-0.091 -0.204,-0.293 -0.314,-0.352 -0.113,-0.067 -0.238,-0.119 -0.372,-0.157 -0.269,-0.074 -0.598,-0.04 -0.846,0.117 -0.496,0.328 -0.649,0.849 -0.739,1.301 -0.081,0.466 -0.069,0.926 -0.017,1.37 0.05,0.427 0.091,0.845 0.125,1.268 0.126,1.684 0.189,3.341 0.091,4.925 -0.028,0.395 -0.069,0.786 -0.145,1.155 -0.036,0.185 -0.087,0.364 -0.152,0.518 -0.032,0.076 -0.072,0.147 -0.109,0.187 -0.036,0.083 -0.068,-0.019 -0.065,0.116 0.051,-0.103 0.002,-0.046 -0.037,-0.132 -0.043,-0.047 -0.079,-0.137 -0.119,-0.207 -0.071,-0.163 -0.133,-0.335 -0.189,-0.513 -0.111,-0.355 -0.196,-0.723 -0.276,-1.086 -0.594,-2.937 -0.873,-5.745 -1.13,-8.285 v 0.032 c 0.022,-0.514 -0.012,-1.005 -0.163,-1.487 -0.076,-0.237 -0.188,-0.479 -0.391,-0.666 -0.199,-0.193 -0.485,-0.279 -0.741,-0.271 l 0.055,0.006 c -0.402,-0.071 -0.695,0.172 -0.862,0.413 -0.172,0.248 -0.248,0.517 -0.307,0.777 -0.11,0.525 -0.108,1.024 -0.134,1.503 -0.035,0.962 -0.043,1.867 -0.015,2.713 0.032,1.706 0.416,3.118 0.552,4.281 0.174,1.162 0.304,2.064 0.36,2.672 0.063,0.289 -0.17,0.475 -0.292,0.524 -0.141,0.058 -0.223,0.067 -0.221,0.079 z"
   id="path222" />
				</g>
			</g>
		</g>
		<path
   style="fill:#b78876"
   d="m 510.532,208.232 c 0,0 -2.767,-0.132 -5.793,0.664 -5.164,1.359 -14.079,6.761 -14.448,13.436 h 6.475 c 0,0 -3.626,7.719 -2.56,7.004 2.764,-1.854 8.268,-7.447 8.268,-7.447 z"
   id="path224" />
		<g
   id="g231">
			<g
   id="g226">
				<g
   id="g225">
					<path
   style="fill:#263238"
   d="m 598.858,92.044 c -0.143,0.013 -0.731,-5.341 -1.313,-11.956 -0.582,-6.618 -0.937,-11.991 -0.794,-12.003 0.143,-0.013 0.731,5.34 1.313,11.958 0.582,6.614 0.937,11.988 0.794,12.001 z"
   id="path225" />
				</g>
			</g>
			<g
   id="g228">
				<g
   id="g227">
					<path
   style="fill:#263238"
   d="m 627.266,68.411 c 0.117,0.083 -4.258,6.433 -9.77,14.18 -5.514,7.75 -10.078,13.963 -10.196,13.88 -0.117,-0.083 4.257,-6.432 9.771,-14.182 5.512,-7.747 10.077,-13.961 10.195,-13.878 z"
   id="path226" />
				</g>
			</g>
			<g
   id="g230">
				<g
   id="g229">
					<path
   style="fill:#263238"
   d="m 639.068,97.188 c 0.029,0.141 -5.077,1.309 -11.402,2.609 -6.328,1.3 -11.479,2.24 -11.508,2.099 -0.029,-0.141 5.076,-1.309 11.403,-2.609 6.326,-1.299 11.478,-2.239 11.507,-2.099 z"
   id="path228" />
				</g>
			</g>
		</g>
	</g>
</g>
<g
   id="Folder"
   transform="matrix(0.55336558,0,0,0.55336558,38.559736,0)">
	<g
   id="g237">
		<g
   id="g233">
			<path
   style="fill:#e8505b"
   d="m 298.958,234.544 -35.361,181.799 -4.629,23.799 236.063,-1.165 c 10.594,-0.052 19.983,-9.459 23.392,-23.435 l 41.859,-171.637 c 2.587,-10.61 -3.09,-21.645 -11.133,-21.636 l -238.923,0.251 c -5.275,0.007 -9.887,4.929 -11.268,12.024 z"
   id="path232" />
		</g>
		<g
   style="opacity:0.5"
   id="g234">
			<path
   d="m 298.958,234.544 -35.361,181.799 -4.629,23.799 236.063,-1.165 c 10.594,-0.052 19.983,-9.459 23.392,-23.435 l 41.859,-171.637 c 2.587,-10.61 -3.09,-21.645 -11.133,-21.636 l -238.923,0.251 c -5.275,0.007 -9.887,4.929 -11.268,12.024 z"
   id="path233" />
		</g>
		<g
   id="g235">
			<path
   style="fill:#e8505b"
   d="M 472.387,404.026 447.393,202.618 c -1.024,-8.253 -7.598,-14.409 -15.36,-14.383 l -54.806,0.179 c -4.056,0.013 -7.945,1.738 -10.827,4.801 l -26.025,27.665 -152.426,0.795 c -9.315,0.049 -16.471,8.862 -15.236,18.765 l 23.206,186.153 c 1.027,8.241 7.589,14.389 15.34,14.373 l 265.647,-0.525 c 29.587,0.613 32.411,-8.125 32.411,-8.125 -33.907,7.515 -36.927,-28.267 -36.93,-28.29 z"
   id="path234" />
		</g>
		<g
   style="opacity:0.5"
   id="g236">
			<polygon
   style="fill:#ffffff"
   points="279.88,311.264 288.84,301.642 357.842,363.717 348.883,373.339 "
   id="polygon235" />
			<polygon
   style="fill:#ffffff"
   points="292.595,375.473 282.693,366.565 345.128,299.509 355.03,308.416 "
   id="polygon236" />
		</g>
	</g>
</g>
<g
   id="Speech_Bubble"
   transform="matrix(0.55336558,0,0,0.55336558,38.559736,0)">
	<g
   id="g246">
		<g
   id="g242">
			<g
   id="g239">
				<g
   id="g238">
					<path
   style="fill:#e8505b"
   d="m 510.32,103.785 c -0.639,-0.274 -1.098,-0.895 -1.131,-1.636 l -0.399,-9.284 c -0.026,-0.584 0.224,-1.146 0.674,-1.518 0.45,-0.373 1.049,-0.512 1.618,-0.378 1.492,0.352 3.138,0.027 4.515,-0.892 1.268,-0.846 2.119,-2.092 2.334,-3.419 0.216,-1.322 -0.193,-2.785 -1.122,-4.015 -0.995,-1.317 -2.465,-2.204 -3.941,-2.373 -3.011,-0.347 -6.262,1.96 -7.099,5.038 -0.27,0.994 -1.295,1.582 -2.289,1.311 -1.011,-0.278 -1.582,-1.296 -1.312,-2.29 1.314,-4.838 6.306,-8.322 11.128,-7.767 2.5,0.288 4.869,1.684 6.489,3.83 1.542,2.04 2.208,4.542 1.829,6.866 -0.382,2.345 -1.82,4.503 -3.946,5.922 -1.536,1.025 -3.298,1.591 -5.06,1.652 l 0.31,7.156 c 0.044,1.03 -0.755,1.9 -1.785,1.944 -0.288,0.013 -0.564,-0.041 -0.813,-0.147 z"
   id="path237" />
				</g>
			</g>
			<g
   id="g241">
				<g
   id="g240">
					<path
   style="fill:#e8505b"
   d="m 513.055,107.577 c 0.058,0.841 -0.577,1.57 -1.418,1.627 -0.841,0.058 -1.57,-0.577 -1.628,-1.418 -0.058,-0.841 0.577,-1.57 1.418,-1.628 0.841,-0.058 1.57,0.578 1.628,1.419 z"
   id="path239" />
				</g>
			</g>
		</g>
		<g
   id="g245">
			<g
   id="g244">
				<g
   id="g243">
					<path
   style="fill:#263238"
   d="m 478.186,90.694 c 0.012,0 0.043,-0.206 0.09,-0.609 0.047,-0.435 0.113,-1.027 0.196,-1.788 0.045,-0.791 0.247,-1.747 0.484,-2.874 0.132,-0.56 0.2,-1.183 0.405,-1.813 0.195,-0.634 0.402,-1.307 0.62,-2.019 0.968,-2.808 2.461,-6.176 4.973,-9.526 2.494,-3.343 6.001,-6.646 10.502,-9.148 2.217,-1.322 4.752,-2.243 7.41,-3.056 2.699,-0.639 5.56,-1.187 8.549,-1.116 1.495,-0.08 3.002,0.139 4.538,0.268 0.767,0.073 1.522,0.278 2.293,0.412 0.771,0.142 1.546,0.293 2.301,0.555 3.087,0.792 6.086,2.248 8.944,4.053 5.737,3.609 10.568,9.481 13.218,16.599 1.329,3.561 1.965,7.465 1.96,11.408 0.079,3.951 -0.686,7.964 -2.092,11.742 l -0.451,1.142 -0.059,0.151 0.061,0.141 c 2.508,5.777 4.968,11.443 7.351,16.933 l 0.421,-0.478 c -5.164,-1.984 -10.172,-3.908 -14.976,-5.754 l -0.185,-0.071 -0.145,0.141 c -4.155,4.026 -9.118,6.747 -14.142,8.165 -5.04,1.421 -10.116,1.494 -14.733,0.673 -4.627,-0.819 -8.793,-2.589 -12.267,-4.864 -3.484,-2.275 -6.278,-5.041 -8.432,-7.852 -2.138,-2.842 -3.546,-5.756 -4.61,-8.359 -0.936,-2.66 -1.51,-5.021 -1.788,-6.975 -0.118,-0.976 -0.223,-1.844 -0.314,-2.601 -0.02,-0.748 -0.036,-1.384 -0.05,-1.911 -0.016,-0.491 -0.029,-0.879 -0.039,-1.171 -0.012,-0.263 -0.023,-0.398 -0.033,-0.398 -0.009,0 -0.017,0.133 -0.024,0.397 -0.004,0.293 -0.009,0.68 -0.015,1.174 -10e-4,0.529 -0.003,1.17 -0.003,1.922 0.077,0.763 0.165,1.638 0.265,2.622 0.246,1.973 0.792,4.363 1.709,7.062 1.044,2.641 2.443,5.604 4.585,8.5 2.158,2.865 4.971,5.689 8.492,8.019 3.511,2.33 7.732,4.151 12.429,5.005 4.686,0.854 9.847,0.801 14.98,-0.629 5.118,-1.426 10.182,-4.185 14.426,-8.281 l -0.331,0.07 c 4.802,1.853 9.805,3.785 14.968,5.777 l 0.755,0.291 -0.333,-0.769 c -2.381,-5.492 -4.837,-11.159 -7.342,-16.937 l 0.002,0.291 0.461,-1.167 c 1.438,-3.861 2.217,-7.966 2.136,-12.004 0.003,-4.03 -0.653,-8.021 -2.015,-11.658 -2.715,-7.271 -7.658,-13.246 -13.51,-16.908 -2.915,-1.832 -5.974,-3.302 -9.117,-4.1 -0.769,-0.263 -1.558,-0.414 -2.342,-0.556 -0.784,-0.134 -1.553,-0.339 -2.333,-0.411 -1.561,-0.125 -3.094,-0.34 -4.612,-0.253 -3.038,-0.058 -5.944,0.51 -8.68,1.175 -2.696,0.839 -5.263,1.79 -7.505,3.144 -4.551,2.567 -8.081,5.942 -10.576,9.349 -2.514,3.413 -3.987,6.836 -4.924,9.682 -0.21,0.721 -0.409,1.404 -0.595,2.045 -0.197,0.638 -0.256,1.267 -0.378,1.833 -0.217,1.14 -0.399,2.104 -0.422,2.901 -0.055,0.765 -0.098,1.363 -0.13,1.8 -0.025,0.406 -0.032,0.613 -0.021,0.614 z"
   id="path242" />
				</g>
			</g>
		</g>
	</g>
</g>
</svg>
