<svg width="356" height="178" viewBox="0 0 356 178" fill="none" xmlns="http://www.w3.org/2000/svg">
<ellipse cx="182.812" cy="88.6588" rx="69.5757" ry="67.6588" fill="#EFEFEF"/>
<path opacity="0.12" d="M133.704 80.0252H60.8453C58.1693 80.0252 56 77.8554 56 75.1787V57.7371C56 55.0605 58.1693 52.8906 60.8453 52.8906H133.704C136.38 52.8906 138.55 55.0605 138.55 57.7371V75.1787C138.55 77.8554 136.38 80.0252 133.704 80.0252Z" fill="#464775"/>
<path d="M136.456 77.9329H62.277C59.9656 77.9329 58.0918 76.0587 58.0918 73.7467V54.9846C58.0918 52.6726 59.9656 50.7983 62.277 50.7983H136.456C138.768 50.7983 140.641 52.6726 140.641 54.9846V73.7467C140.641 76.0587 138.768 77.9329 136.456 77.9329Z" fill="#98C8EC"/>
<path d="M121.613 65.298H91.4717V68.4432H121.613V65.298Z" fill="#3393DD"/>
<path d="M117.849 59.2354H91.4717V62.3806H117.849V59.2354Z" fill="#3393DD"/>
<path opacity="0.22" d="M76.6496 74.28H67.5252C65.2315 74.28 63.3721 72.4201 63.3721 70.1258V60.9991C63.3721 58.7048 65.2315 56.845 67.5252 56.845H76.6496C78.9433 56.845 80.8028 58.7049 80.8028 60.9991V70.1258C80.8028 72.4201 78.9433 74.28 76.6496 74.28Z" fill="#464775"/>
<path d="M77.6467 73.3552H68.5223C66.2285 73.3552 64.3691 71.4952 64.3691 69.201V60.0743C64.3691 57.78 66.2286 55.9202 68.5223 55.9202H77.6467C79.9404 55.9202 81.7998 57.7801 81.7998 60.0743V69.201C81.7998 71.4953 79.9404 73.3552 77.6467 73.3552Z" fill="white"/>
<path d="M75.8806 63.0483L75.8707 61.8947C75.8507 60.098 74.4422 58.6276 72.6658 58.6068C70.8589 58.5961 69.3987 60.0353 69.388 61.8422L69.3776 63.0367L69.204 63.0264C68.8671 63.0366 68.6118 63.2917 68.622 63.6286L68.631 68.8658C68.6412 69.2027 68.8963 69.458 69.2332 69.4478L76.0426 69.4596C76.3795 69.4494 76.6347 69.1943 76.6246 68.8574L76.6156 63.6202C76.6054 63.2833 76.3503 63.028 76.0134 63.0382L75.8806 63.0483ZM70.5417 61.8323C70.5521 60.6379 71.5018 59.7091 72.6962 59.7195C73.86 59.7402 74.7582 60.7 74.7681 61.8537L74.7781 63.0073L70.5618 63.0165L70.5417 61.8323Z" fill="#F7B548"/>
<path d="M93.6467 90.2332C93.6467 90.2332 89.4538 93.2034 88.7637 93.6389C90.6702 98.7339 96.3885 112.758 100.935 121.535C100.935 121.535 108.372 113.988 111.317 110.883C103.033 105.378 93.6467 90.2332 93.6467 90.2332Z" fill="#BF8F68"/>
<path d="M178 90.1782C178 90.1782 176.953 151.67 130.004 144.403C115.974 142.231 107.994 131.783 98.4531 119.318L109.282 109.122C109.282 109.122 113.457 113.321 119.207 113.447C132.501 113.797 139.413 107.205 148.362 100.334C161.392 90.3791 178 90.1782 178 90.1782Z" fill="#2C89D9"/>
<path d="M91.083 114.784L98.4523 119.318L109.281 109.122L104.673 102.13L91.083 114.784Z" fill="white"/>
<path d="M93.9516 90.7151C93.2031 87.7259 91.8252 72.9509 91.8252 72.9509C91.7498 72.2417 91.4103 71.5853 90.8723 71.1083L86.0581 66.8402C85.9189 66.7169 85.7516 66.6285 85.5702 66.5828L79.4479 65.0365C78.6769 64.8418 77.9405 65.4524 78.0038 66.2338C78.0398 66.6779 78.3347 67.0609 78.7591 67.2148L83.0447 68.7691C83.2363 68.8385 83.4058 68.9566 83.5363 69.1113L86.3876 72.4939L82.1272 72.3177C81.6136 72.2965 81.1471 72.6107 80.981 73.0898L78.8585 79.2121C78.7478 79.5315 78.7861 79.8828 78.9634 80.1718L79.8478 81.6139C80.1361 82.0839 80.7233 82.2854 81.2457 82.0935L82.7149 81.5538L84.7023 89.863C85.0446 91.2942 85.8148 92.5915 86.9132 93.5874L89.6926 96.1072C91.2717 94.2148 93.4148 92.4167 93.9516 90.7151Z" fill="#BF8F68"/>
<mask id="mask0" mask-type="alpha" maskUnits="userSpaceOnUse" x="113" y="21" width="140" height="136">
<ellipse cx="182.576" cy="88.6588" rx="69.5757" ry="67.6588" fill="#FFB900"/>
</mask>
<g mask="url(#mask0)">
<path d="M240.331 143.26L240.331 143.133C237.467 122.308 229.188 95.6198 203.119 86.4818C197.395 84.4757 190.996 86.1625 184.223 87.8126C180.706 88.7692 178.662 114.509 197.112 123.957C203.541 126.38 210.929 142.365 216.298 156.337H227.198C234.428 156.337 240.298 150.492 240.331 143.26Z" fill="#2D89DA"/>
<path d="M187.282 81.0579L169.947 83.0482L167.08 93.4145L187.47 87.5601L187.282 81.0579Z" fill="white"/>
<path d="M171.177 91.0492L170.018 83.039L191.086 80.2904C191.086 80.2904 191.629 85.6834 194.225 87.6944L171.177 91.0492Z" fill="#C8C6C4"/>
<path d="M172.983 61.7362C172.983 61.7362 173.887 81.696 173.821 83.4069C173.184 91.7874 172.383 92.7404 172.383 92.7404C172.383 92.7404 177.677 87.779 198.513 86.5496C197.104 85.4465 196.345 81.7155 196.293 79.9833C196.151 75.2694 195.6 61.1316 195.6 61.1316L172.983 61.7362Z" fill="url(#paint0_radial)"/>
<path d="M219.462 124.328C220.958 102.782 203.434 89.3482 185.803 88.0524C168.172 86.7566 152.767 100.851 151.395 119.533C150.787 127.802 152.013 142.511 153.568 156.337H222.375C220.138 142.623 219.051 130.251 219.462 124.328Z" fill="url(#paint1_radial)"/>
<path d="M174.317 90.6494C174.317 90.6494 173.292 151.766 127.345 144.543C113.614 142.385 105.804 132 96.4668 119.611L107.065 109.477C107.065 109.477 111.151 113.651 116.778 113.776C129.789 114.124 136.553 107.573 145.311 100.744C158.063 90.8491 174.317 90.6494 174.317 90.6494Z" fill="#2C88D9"/>
<path d="M173.749 82.8478L198.133 78.8662L202.572 86.4703L172.194 90.7065L173.749 82.8478Z" fill="white"/>
<path d="M168.279 48.1443C170.272 47.8909 183.561 45.6016 187.503 45.3258C192.34 45.0112 193.711 47.5386 193.711 47.5386C193.711 47.5386 196.258 42.9881 195.08 38.7083C194.163 35.376 190.409 31.9895 185.18 32.4568C181.691 32.7502 172.879 35.9273 169.203 35.3438C160.015 33.885 160.845 29.2015 160.845 29.2015C160.845 29.2015 153.667 35.8924 158.29 43.9353C160.319 47.5049 165.399 48.5103 168.279 48.1443Z" fill="#5A4539"/>
<path d="M195.844 69.187C195.342 60.533 200.999 56.2666 200.067 48.3693C198.87 43.5184 194.953 42.6285 191.777 42.7484L170.564 43.2454C167.379 43.2955 164.88 45.954 164.93 49.1397C164.93 49.1397 180.102 56.3622 188.807 62.9169C190.281 66.702 192.904 69.4897 195.844 69.187Z" fill="#5A4539"/>
<path d="M185.698 67.6439C188.319 67.3109 190.174 64.9158 189.841 62.2943C189.508 59.6728 187.113 57.8175 184.493 58.1505C181.872 58.4835 180.017 60.8786 180.35 63.5001C180.683 66.1216 183.077 67.9769 185.698 67.6439Z" fill="#BF8F68"/>
<path d="M170.615 82.1823C178.11 82.01 184.058 75.7921 183.885 68.2948L183.595 54.2864C183.545 51.1007 180.878 48.5313 177.624 48.5902L167.231 48.847C164.823 48.8693 166.028 52.8157 166.06 55.2945L163.25 69.7076L163.367 75.3714C163.497 79.1856 166.723 82.2514 170.615 82.1823Z" fill="#5A4539"/>
<path d="M163.287 69.7072L173.828 69.5026C176.516 69.4448 178.579 67.2672 178.521 64.579L178.27 52.5519C178.229 49.4359 175.734 46.2165 172.619 46.2577L167.741 46.3811C164.728 46.8979 162.856 49.0343 162.932 53.8017L163.287 69.7072Z" fill="#BF8F68"/>
<path d="M172.044 68.8774C171.694 68.3544 171.152 67.9977 170.498 67.8681C169.843 67.7384 169.224 67.8881 168.701 68.2383C167.917 68.7636 167.525 69.0262 167.115 69.1492C166.644 69.3509 166.085 69.4219 165.117 69.6159C164.629 69.678 164.237 69.9407 163.923 70.2642C162.974 71.1652 162.951 72.6578 163.921 73.5984C164.901 74.609 166.376 75.0598 167.781 74.9522C168.269 74.8901 168.688 74.8369 169.159 74.6352C171.051 73.8982 172.382 72.0974 172.352 70.186C172.509 69.7406 172.307 69.2697 172.044 68.8774Z" fill="#5A4539"/>
<path d="M170.673 70.3286C170.54 70.8932 170.035 72.3545 168.584 72.864C167.425 73.2712 165.749 72.7591 165.337 72.4255C164.827 72.0122 164.846 71.4298 165.702 71.3861C166.557 71.3423 166.989 71.4102 167.869 71.0795C168.476 70.8514 169.756 69.8067 169.756 69.8067C170.446 69.2103 170.799 69.8008 170.673 70.3286Z" fill="#BF8F68"/>
<path d="M165.503 68.7162C165.496 69.2137 164.973 69.5639 164.388 69.4255C163.943 69.2692 163.506 69.1829 163.2 69.0089L160.457 67.5132C159.313 66.8784 159.014 65.6396 159.666 64.6345L162.068 61.2081C162.729 60.2728 163.015 59.1725 163.012 58.0378L164.853 58.0166L165.503 68.7162Z" fill="#BF8F68"/>
<path d="M167.088 61.698C167.593 61.6869 167.982 60.7644 167.957 59.6376C167.933 58.5107 167.503 57.6062 166.998 57.6173C166.493 57.6284 166.104 58.5508 166.129 59.6777C166.153 60.8045 166.583 61.709 167.088 61.698Z" fill="#594539"/>
<path d="M183.638 56.8358L178.416 59.2729C178.214 54.333 169.492 54.9377 171.094 46.2179L174.719 45.6571L189.306 46.1845L183.638 56.8358Z" fill="#5A4539"/>
</g>
<defs>
<radialGradient id="paint0_radial" cx="0" cy="0" r="1" gradientUnits="userSpaceOnUse" gradientTransform="translate(185.61 65.2787) rotate(1.39851) scale(7.01685 7.01859)">
<stop stop-color="#9B643D"/>
<stop offset="1" stop-color="#BF8F68"/>
</radialGradient>
<radialGradient id="paint1_radial" cx="0" cy="0" r="1" gradientUnits="userSpaceOnUse" gradientTransform="translate(153 136) rotate(9.54279) scale(71.1455 56.482)">
<stop offset="0.0006" stop-color="#2074C6"/>
<stop offset="0.3027" stop-color="#2C88D9"/>
<stop offset="0.467426" stop-color="#2C88D9"/>
<stop offset="0.7102" stop-color="#2C88D9"/>
<stop offset="1" stop-color="#2988DC"/>
</radialGradient>
</defs>
</svg>
